<mxfile host="app.diagrams.net" modified="2024-03-28T13:42:10.143Z" agent="Mozilla/5.0 (Windows NT 10.0; Win64; x64) AppleWebKit/537.36 (KHTML, like Gecko) Chrome/123.0.0.0 Safari/537.36" etag="cZ1qEYDuy3JYxSKpycdJ" version="24.2.0" type="github">
  <diagram name="Page-1" id="8mNp7rYV6dJLGLZsdfwe">
    <mxGraphModel dx="794" dy="412" grid="1" gridSize="10" guides="1" tooltips="1" connect="1" arrows="1" fold="1" page="1" pageScale="1" pageWidth="850" pageHeight="1100" math="0" shadow="0">
      <root>
        <mxCell id="0" />
        <mxCell id="1" parent="0" />
        <mxCell id="WfmTKSGuRJZ3hl7WZfGl-2" value="" style="rounded=0;whiteSpace=wrap;html=1;strokeColor=none;" vertex="1" parent="1">
          <mxGeometry x="20" y="40" width="810" height="420" as="geometry" />
        </mxCell>
        <mxCell id="WfmTKSGuRJZ3hl7WZfGl-3" value="" style="shape=image;verticalLabelPosition=bottom;labelBackgroundColor=default;verticalAlign=top;aspect=fixed;imageAspect=0;image=data:image/png,iVBORw0KGgoAAAANSUhEUgAAA+gAAAMDCAYAAAAxID+lAAAgAElEQVR4XuydBbQcxda2CwiBQNAESQjuFuAmuLu7uyf4h7u7e4AEu7g7F5eLw4Xg7k6Q4JCQEPjXW/lr6DNnpHtmerq6+qm1snIyU12197PrpPvtqto1zt9///23oUAAAhCAAAQgAAEIQAACEIAABCCQKYFxEOiZ8qdzCEAAAhCAAAQgAAEIQAACEICAJYBAZyBAAAIQgAAEIAABCEAAAhCAAAQ8IIBA9yAImAABCEAAAhCAAAQgAAEIQAACEECgMwYgAAEIQAACEIAABCAAAQhAAAIeEECgexAETIAABCAAAQhAAAIQgAAEIAABCCDQGQMQgAAEIAABCEAAAhCAAAQgAAEPCCDQPQgCJkAAAhCAAAQgAAEIQAACEIAABBDojAEIQAACEIAABCAAAQhAAAIQgIAHBBDoHgQBEyAAAQhAAAIQgAAEIAABCEAAAgh0xgAEIAABCEAAAhCAAAQgAAEIQMADAgh0D4KACRCAAAQgAAEIQAACEIAABCAAAQQ6YwACEIAABCAAAQhAAAIQgAAEIOABAQS6B0HAhNYTGPHrmNY3SosQKBCBbt3HK5C3uFokAtwfihRtfE2DAPeHNKjSJgT+IYBAZzQEQ2D4V6PM77+MMSN/Q5wHE1QcyZTAhBOPZyaedDwz5bRdM7WDziHQLIHvh40yv/3M/aFZjlwPgSiBHr26cn9gSEAgBQII9BSg0mT7CXz35Sjzw9ejzPgTjme6TYaYaH8E6DE0AqNHjn3RNeKnUWbyqbuaqabj9yq0GBfFH+4PRYk0fraLAPeHdpGmn6ISQKAXNfIB+a2ZEc2eS5gjzgMKLK54QUACXX+YKfEiHBiRkAD3h4TAqA6BBAS4PySARVUIJCCAQE8Ai6p+Evj2i7FLFyeZupufBmIVBHJO4JdvRpjxxjNm+jn4Hct5KAtnPveHwoUch9tMgPtDm4HTXSEIINALEeawnXzvpV+ZPQ87xHiXMYE//xhjfv56hJl9oe4ZW0L3EEhGgPtDMl7UhkBSAu7+0Gf2bobkcUnpUR8ClQkg0BkZuSfAA1juQ4gDnhPgAczzAGFeVQLcHxgcEEiXAPeHdPnSejEJINCLGfegvOYBLKhw4oyHBHgA8zAomBSLAPeHWJioBIGGCXB/aBgdF0KgKgEEOoMj9wR4AMt9CHHAcwI8gHkeIMxjBp0xAIGMCHB/yAg83QZNAIEedHiL4RwCvRhxxsvsCPAAlh17em6OAPeH5vhxNQTqEeD+UI8Q30MgOQEEenJmXOEZAR7APAsI5gRHgAew4EJaGIe4PxQm1DiaEQHuDxmBp9ugCSDQgw5vMZzjAawYccbL7AjwAJYde3pujgD3h+b4cTUE6hHg/lCPEN9DIDkBBHpyZlzhGQEewDwLCOYER4AHsOBCWhiHuD8UJtQ4mhEB7g8ZgafboAkg0IMObzGc4wGsGHHGy+wI8ACWHXt6bo4A94fm+HE1BOoR4P5QjxDfQyA5AQR6cmZc4RkBHsA8CwjmBEeAB7DgQloYh7g/FCbUOJoRAe4PGYGn26AJINCDDm8xnOMBrBhxxsvsCPAAlh17em6OAPeH5vhxNQTqEeD+UI8Q30MgOQEEenJmXOEZAR7APAsI5gRHgAew4EJaGIe4PxQm1DiaEQHuDxmBp9ugCSDQgw5vMZzjAawYccbL7AjwAJYde3pujgD3h+b4cTUE6hHg/lCPEN9DIDkBBHpyZlzhGQEewDwLCOYER4AHsOBCWhiHuD8UJtQ4mhEB7g8ZgafboAkg0IMObzGc4wGsGHHGy+wI8ACWHXt6bo4A94fm+HE1BOoR4P5QjxDfQyA5AQR6cmZc4RkBHsA8CwjmBEeAB7DgQloYh7g/FCbUOJoRAe4PGYGn26AJINCDDm8xnOMBrBhxxsvsCPAAlh17em6OAPeH5vhxNQTqEeD+UI8Q30MgOQEEenJmXOEZAR7APAsI5gRHgAew4EJaGIe4PxQm1DiaEQHuDxmBp9ugCSDQgw5vMZzjAawYccbL7AjwAJYde3pujgD3h+b4cTUE6hHg/lCPEN9DIDkBBHpyZlzhGQEewDwLCOYER4AHsOBCWhiHuD8UJtQ4mhEB7g8ZgafboAkg0IMObzGc4wGsGHHGy+wI8ACWHXt6bo4A94fm+HE1BOoR4P5QjxDfQyA5AQR6cmZc4RkBHsA8CwjmBEeAB7DgQloYh7g/FCbUOJoRAe4PGYGn26AJINCDDm8xnOMBrBhxxsvsCPAAlh17em6OAPeH5vhxNQTqEeD+UI8Q30MgOQEEenJmXOEZAR7APAsI5gRHgAew4EJaGIe4PxQm1DiaEQHuDxmBp9ugCSDQgw5vMZzjAawYccbL7AjwAJYde3pujgD3h+b4cTUE6hHg/lCPEN9DIDkBBHpyZlzhGQEewDwLCOYER4AHsOBCWhiHuD8UJtQ4mhEB7g8ZgafboAkg0IMObzGc4wGsGHHGy+wI8ACWHXt6bo4A94fm+HE1BOoR4P5QjxDfQyA5AQR6cmZc4RkBHsA8CwjmBEeAB7DgQloYh7g/FCbUOJoRAe4PGYGn26AJINCDDm8xnOMBrBhxxsvsCPAAlh17em6OAPeH5vhxNQTqEeD+UI8Q30MgOQEEenJmXOEZAR7APAsI5gRHgAew4EJaGIe4PxQm1DiaEQHuDxmBp9ugCSDQgw5vMZzjAawYccbL7AjwAJYde3pujgD3h+b4cTUE6hHg/lCPEN9DIDkBBHpyZlzhGQEewDwLCOYER4AHsOBCWhiHuD8UJtQ4mhEB7g8ZgafboAkg0IMObzGc4wGsGHHGy+wI8ACWHXt6bo4A94fm+HE1BOoR4P5QjxDfQyA5AQR6cmZc4RkBHsA8CwjmBEeAB7DgQloYh7g/FCbUOJoRAe4PGYGn26AJINCDDm8xnOMBrBhxxsvsCPAAlh17em6OAPeH5vhxNQTqEeD+UI8Q30MgOQEEenJmXOEZgaI9gP344w/mhx+Gmymm6GEmn3yKTtF45pnHzeeff2qmnnpas+yyK3kVrV9//cXce+8d1ibZJht9KH///bcZZ5xxfDDFSxt4APMyLBgVg0DR7g8xkFAFAi0lwP2hpThpDAKWAAKdgZB7Anl/APvyy8/N+uuvaONwyy0Pmj59ZugUk48+et+cffZJ5tlnnzQffPBu6fu+ff9lVlttbbPlljua6aab3n4+cOCW5pZbrjUrrbS6uf76e7yK7yeffGj69ZvV2nTXXY+ZxRdfpq59Bx+8p7n++iuMxL0rs846h5l//gXNvPMuYLbddqCZcsoeddupVuHRRx8w22+/kbXlmmvuNOOOO27DbYV6IQ9goUY2fL/yfn/IW4T22GM78/jjD5ulllreXHDBlSXzDzlkL6N73WWX3WTGG2+8im7dccdN5ogj9rXfvfLKpzVfml5xxWBzxhnH27qvvvpZqb1qn+eNY57s5f6Qp2hha14IINDzEinsrEog7w9gN954ldltt22sf+ecc6nZcssdOvjqBGRUoJbDuO++Z0z//ovZj0MT6M6fagOgZ8+pzZlnDjZrrLFeQ78l//d/O5prrrnMXvvss2+b2Wabs6F2Qr6IB7CQoxu2b3m/P+QtOmuuuZR57rmnzAorrGpuvPG+kvnu//EjjzzZ7LXXQRXduvbay81ee429/33zzZiaL0tPO+1Yc8opR9m63377V0nMn3rqMebUU4+2n3/33d95w5dLe7k/5DJsGO05AQS65wHCvPoE8v4ANnz4t2annTYzf/31l7n44us6LPt+8MH/mM03X6sEYbfd9jVLL72C6d17eqPrnn76MfPMM0+YO+54tNODUCgz6O7Brnv3ScxZZ11sZ1+0ouDll18wd911S8nvs8++xGy11Y71B0xZjRdeeNZIpC+88OJGbVA6E+ABjFGRVwJ5vz/kjXs9gS5/7r//WdOv36KdXEOg5y3aY+3l/pDPuGG13wQQ6H7HB+tiEAj1AezPP/80Sy45b2lJ+1VX3W5WX33dukRCnUHXsvbnnnung/9PPPGI2Xnnzc13331jJOCff/49M9VU09RlRIVkBHgAS8aL2v4QCPX+4A/hjpbEEei9e/cxTzzxmplsssk7XIxA9zWqte3i/pDPuGG13wQQ6H7HB+tiEMjzA9h11/3bKEGZK+uvv6np1m0i+8+rr77U7L33Tvbngw8+1uy//xExaMRb4q69gM8996R57bWXbf/zzDO/nUGeaaax+8Ndeeut181LLz1vunXrZtZff7NO/T/00L3mm2+GmRlnnNksueRyHb7/44+R5umnHzeaodZs/4wzzmL3ja+33gq2Xtw96O6FQyWBrna0b3HHHTexbW633S7m9NMvtD+/++5btm9n+3vvvW0k6OXTtNP2NhtuuLm1zxUJ/HXW2cj6c/fdt9qPF110SbvPvby8+uqLtm3tV9f+//HHH99WEcunnvqveeWVoeaTTz4y008/o5l99rnscs+uXSeIFT8fK/EA5mNUsCkOgTzfH+L451udOAJdNm+44RZm8OBrOpiPQPctmvHs4f4QjxO1IJCEAAI9CS3qekkgzw9gPXt2zBz++utfWPGo4h509PM773xjevSYKhb/ejPot956nRkwYIuKbZ100rlmxx13L+39u/ji84yS+6hU2s+30UarmP/+90GzySZbd0gINGzYl2brrdez4r5aaZVA19aApZee37zzzpsmKuKvuupis88+A2z3Sky0ww4bl0zRywJtJ1hllX+WWbpr9WJhzjmntknpqm0TUFI/if155+1rHnvsFdvuV199YZfKP/LI/Z1cVtvnnXe5WWSRJWLF0LdKPID5FhHsiUsgz/eHuD76VC+uQJfN+j9x8823K5mPQPcpkvFt4f4QnxU1IRCXAAI9LinqeUsgzw9gEnRvvvlaSchGBfpMM01qRaKWtWt5e9xSS6BHZ5slUvVwpD3dt99+g3njjVdtF0q4ts02Y4VtIwL9hx++N4svPrdddq6i2eP+/Rc3n332sdGKAVdaJdDVnlYaaMWBypdfjrSz1VGBrs/lr1YoaO/6uutubJZZZkVzyilHmyeffNRmF46KeyUZUrIhldde+9z06jVdye6PP/7A9O8/m/23shTr5cSIEb+bpZaa3yhLvcrGG29lZplldvPFF5+W7NLnykzssu3HjacP9XgA8yEK2NAIgTzfHxrxN+tr6gl0vfTU/eDkk4+0pkYTcyLQs45eY/1zf2iMG1dBoBYBBDrjI/cE8v4A9vDD95lNN13dxsEJdInc2Wcfe3TYrrvuY4477szYcaom0CUiF110TitG55xzHnP33U+YKaaY0rar7zQbruy7yoo+dOgHZuKJuzck0HVMzoUXnmXbHTToCrPppmMz1KtEZ+9bKdB13M5JJ43dAvDMM2/ZZeVRgS5///OfJyueG3/88YfaI+yiAv2LLz4zCyww9ri7o48+1eyxxwElH1yWYC2Jf/vtr82EE3Yzrg1VimbU17/14mPZZccuky9faRA7qBlX5AEs4wDQfcME8n5/aNjxjC6MI9CvvvpOs+66y9n7jVYhPfDAc2aCCSY0CPSMgtZkt9wfmgTI5RCoQACBzrDIPYG8P4BVEuhRUXfssWcYZW+PW6oJ9AceuNtsscXatpkrrrjVrLnm+h2a1HFuG2+8qv3suuvuNiuvvGZiga6l7fPNN3a2WbPzWsIYLY2cg15vD7raP++8U80xx4w9ukeJ4maeebYOAl3nwWvmplKpJNBVT2ejK0u8hLtmecYZZxyjxH3yT6sDDjjgSHPQQceY0aNHm169utqmDz30eLPvvod16sb1oeRI0TN748Y063o8gGUdAfpvlEDe7w+N+p3VdXEEuv4/jt4L3EtoBHpWUWuuX+4PzfHjaghUIoBAZ1zknkDeH8AqCXTNcvftO72NzYEHHmUOPHDsua5xSjWBrlltzW6rfPrpr2aiiSbu0NzPP/9kZpllbFbdU0453+5FT7rE/bHHHjIbbriybUOzIv/61yId+khLoB988J7mkkvOt31VWuL+wQc/dMoY7AyrJtC19N0ltHOz4tFYSWhLcCsZ3RJLzGOb01n0lZawv/yyksaNXf7++ee/21n3PBUewPIULWyNEsj7/SFv0Ywr0OXXDTdcaXbffVvrol4Kf/vtN5yDnreAc8xaDiOGyXkggEDPQ5SwsSaBvD+AVRLoY8aMMdNM08X6rf3MF154VexRUE2gH374Puaii8627VRK+KbPXdK63Xbbzxx77OmJBfqllw4yBx20h+3jvfeGl5bQO+PTEuibbbaGUUb56Ax1dIl7NX9lVzWBrozsiy02lz3mzmWH32mnTc3tt99oM9oryZzKf/5zm9l22w1ix+fbb/+ys/F5Kgj0PEULWxHo2Y2BJAJdVrr/U7VlaPfd9zennHKUNf6bb8aUkpVW8iaaJyT6/7vbglTrPpcdnTB75v4QZlzxKlsCCPRs+dN7CwiEKNCFRfvFJQ61J1yztV27jl1GXa9UE+jHHXeIOeeck+3llUTiqFGjTO/eY48C09JtLeFOOoM+aNDp5qijxu7X1v5s2R4taQj0zz//1Cy44Iy2m6WXXsHcdtvD9udmBbrauPzyC80BB+xm2xs69EPTr98s9ud77nmqlJH9wQf/YzbffC37+cUXX2+Pq6tWJphgglye084DWL3fOr73lUDe7w++cq1mV1KBXp5U1LVbT6C7XCcS9h9//HPJHAR6+0cM94f2M6fH8Akg0MOPcfAe5v0BrNIMuoJ26KH/Z4YMOdfG7+yzLzFbbbVjrFhWE+jRc9XfemtYJ6H4/vvv2BljlYsuutpstNGWHQR6paXZ5cesRWeToyLWGZ6GQI+uDHBZ1Vsl0KPL/pVoTke59e37L/PII0NLsYj6VH5sUKyA5aASD2A5CBImViSQ9/tD3sKaVKDLPx1ZqaMro6WeQN9zz+3tqSD6f/mpp95AoGc4ULg/ZAifroMlgEAPNrTFcSzvD2DVBLrO1Z5//j42kJolUNbz+edfqENglbRMGci3335X06NHT/udjm675prL7DVaZj7++OPbz1988X+lc79PPvk8s9NOY5eiu3LssQebc889xf5TZ3sru+5tt91gdt55M/vZLbc8aJZddqVS/U8//dgss0xfexScy04uAbvkkvPaOmuvvaG5/PKbO/TRSoGuJehaEaAl6iqy95FHXrTHxqm0YgZd7egceK0kcEXbDbTtwBVtR5h11iksByWUe/zxV2xG4pAKD2AhRbNYvuT9/pC3aDUi0OWjknwq2acrEuh//fWXOeGEw8yff442m2++vZlnnvnt19HtR0pmqv3rrjCD3v4Rw/2h/czpMXwCCPTwYxy8h3l/AKsm0BW4o48+0Jx//mmlGJ500rlmiSWWtQnP3nrrNXPBBWfa2QedlX7llbfZvc2nnXZsaR+fEsztuOMeJfHu9mpLvKu+zgLXQ9Att1xrdt11a9uPsrsry7vKG2+8YpZddkH7s84zP+qoU+0RZs8996RRYjYJcpXo8WFbb72euffeO+zn2rstG6aeelrz008/2qPQXDK3pMesabn8iSeebSSIP/74Q6OEdM8++0SJzR13PGqWXHK50r9bJdDffvsNs9RS89l2xe2dd77pJMBvuunqEj9li1eclEletr7++stG2wu0v3L55VfJ5e8jD2C5DBtGKxfGS7+abpN1tX8o6RNoVKD/8cdI+wJZJ5iouBl0JUtV0tRFF13SHjeq4z9vvvkac9ZZJ9p65auWEOjpx7i8B+4P7WdOj+ETQKCHH+PgPcz7A1gtga594UceuV9J1FYL5qqrrm0uueR6063bRB3O3VZ9iVaJVxUJ6nXXXd4eE+aKRKdmf1Ukgu+99ykrLl1xor7WQIoK9A8/fM+ssEK/UptO2Lo+XDtJBXq1/hdaaGFz7rmXmbnnHiuiXWmVQFd7Wn6pFyHKpq8XDpWK21pQias+0wy/VibksfAAlseoYbMI5P3+kLcoNirQ5Wf0ZagT6NHTR8pZ6H710ksf2fueKwj09o8Y7g/tZ06P4RNAoIcf4+A9zPsD2OOPP2w22GDs0nHNzvboMVWnmOk4msGDzzGvvvpih++0pPrgg4+xWcWj5b777jSHHbaPPdprueVWNjff/EDp62++GWYTn2m/eLSoDS19d0vl3XfDh39n98Nrlt0VzWYccshxZtCgM8zYJGkdzzzXeej77beLuf/+u0rX6EWA6rnl4pX2qFcarLvtto258cZ/stjroWy++RYwc8wxt1lwwf5mgw02N126jM14Hy3RM3VrZXF32YDL9zJG23J7619//Qsz7bS9K/5Oadnl9ddfYVcJaMbHFdmr5HV77XVgpy0Kefnl5AEsL5HCznICeb8/5C2i1QS6+39cL5OvuebOqm65k0CcQNcKrzPOOL60KsxdqJVeZ5xxUadEpAj09o8Y7g/tZ06P4RNAoIcf4+A9LNID2MiRI+wseJcu45tZZ5295nnaEoyaKdey9/Js6hoUWn79+eef2LZ69Zqu5pE2qj9ixO92abnqTj75FLHG1ejRo81HH71vJp10MjPNNL1yd7yYc1J7/d977+1Os/TVICgzsUT69NPPaH3Pe+EBLO8RLK79Rbo/hBBl3bf0InqBBfp1cEdL4HX/mXDCbqZPnxlKuUZC8DnvPnB/yHsEsd9HAgh0H6OCTYkI8ACWCBeVIZCYAA9giZFxgScEuD94EgjMCJYA94dgQ4tjGRJAoGcIn65bQ4AHsNZwpBUIVCPAAxhjI68EuD/kNXLYnRcC3B/yEinszBMBBHqeooWtFQnwAMbAgEC6BHgAS5cvradHgPtDemxpGQIiwP2BcQCB1hNAoLeeKS22mQAPYG0GTneFI8ADWOFCHozD3B+CCSWOeEqA+4OngcGsXBNAoOc6fBgvAjyAMQ4gkC4BHsDS5Uvr6RHg/pAeW1qGADPojAEIpEMAgZ4OV1ptIwEewNoIm64KSQCBXsiwB+E094cgwogTHhPg/uBxcDAttwQQ6LkNHYY7AjyAMRYgkC4BHsDS5Uvr6RHg/pAeW1qGADPojAEIpEMAgZ4OV1ptIwEewNoIm64KSQCBXsiwB+E094cgwogTHhPg/uBxcDAttwQQ6LkNHYYzg84YgEB7CPAA1h7O9NJ6Agj01jOlRQhECXB/YDxAoPUEEOitZ0qLbSbAA1ibgdNd4QjwAFa4kAfjMPeHYEKJI54S4P7gaWAwK9cEEOi5Dh/GiwAPYIwDCKRLgAewdPnSenoEuD+kx5aWISAC3B8YBxBoPQEEeuuZ0mKbCfAA1mbgdFc4AjyAFS7kwTjM/SGYUOKIpwS4P3gaGMzKNQEEeq7Dh/HMoDMGIJA+AR7A0mdMD+kQQKCnw5VWIeAIcH9gLECg9QQQ6K1nSottJsADWJuB013hCPAAVriQB+Mw94dgQokjnhLg/uBpYDAr1wQQ6LkOH8Yzg84YgED6BHgAS58xPaRDAIGeDldahQAz6IwBCKRHAIGeHltabhMBHsDaBJpuCksAgV7Y0Ofece4PuQ8hDnhOgPuD5wHCvFwSQKDnMmwYHSXAAxjjAQLpEuABLF2+tJ4eAe4P6bGlZQiIAPcHxgEEWk8Agd56prTYZgI8gLUZON0VjgAPYIULeTAOc38IJpQ44ikB7g+eBgazck0AgZ7r8GG8CPAAxjiAQLoEeABLly+tp0eA+0N6bGkZAsygMwYgkA4BBHo6XGm1jQR4AGsjbLoqJAEEeiHDHoTT3B+CCCNOeEyA+4PHwcG03BJAoOc2dBjuCPAAxliAQLoEeABLly+tp0eA+0N6bGkZAsygMwYgkA4BBHo6XGm1jQR4AGsjbLoqJAEEeiHDHoTT3B+CCCNOeEyA+4PHwcG03BJAoOc2dBjODDpjAALtIcADWHs400vrCSDQW8+UFiEQJcD9gfEAgdYTQKC3nikttpkAD2BtBk53hSPAA1jhQh6Mw9wfggkljnhKgPuDp4HBrFwTQKDnOnwYLwI8gDEOIJAuAR7A0uVL6+kR4P6QHltahoAIcH9gHECg9QQQ6K1nSottJsADWJuB013hCPAAVriQB+Mw94dgQokjnhLg/uBpYDAr1wQQ6LkOH8Yzg84YgED6BHgAS58xPaRDAIGeDldahYAjwP2BsQCB1hNAoLeeKS22mQAPYG0GTneFI8ADWOFCHozD3B+CCSWOeEqA+4OngcGsXBNAoOc6fBjPDDpjAALpE+ABLH3G9JAOAQR6OlxpFQLMoDMGIJAeAQR6emxpuU0EeABrE2i6KSwBBHphQ597x7k/5D6EOOA5Ae4PngcI83JJAIGey7BhdJQAD2CMBwikS4AHsHT50np6BLg/pMeWliEgAtwfGAcQaD0BBHrrmdJimwnwANZm4HRXOAI8gBUu5ME4zP0hmFDiiKcEuD94GhjMyjUBBHquw4fxIsADGOMAAukS4AEsXb60nh4B7g/psaVlCDCDzhiAQDoEEOjpcKXVNhL47N0RZswYYyaZulsbe6UrCBSHwIifRhn9mX2h7sVxGk+DIMD9IYgw4oTHBLg/eBwcTMstAQR6bkOH4Y7A5++NMCN+HWMmnaab6TLBeICBAARaTOD7T381U0zT1fTs3bXFLdMcBNIlMPyrUeb7YaO4P6SLmdYLTID7Q4GDj+upEUCgp4aWhttJQLMkI38bY7pN1tX+oUAAAs0T0NJ2zY6MHjnG9Jm9m+nWnRdgzVOlhXYT4P7QbuL0VwQC3B+KEGV8zIoAAj0r8vTbcgLuIUwNjz8hQqLlgFvU4N9//9PQOOO0qFGaaTkBiXJXEOctx0uDbSbA/aHNwBvsjvtDg+DafBn3hzYDp7vCEUCgFy7kYTuspe76Q/GXgJacutKjF6sd/I2UsTPmzJr7HCFsS0KA+0MSWtnU/f2Xf+7h3B+yiUHcXrk/xCVFPQgkJ4BAT86MKyAAgSYIKKuyK+alY58AACAASURBVCQdawIkl0IAAhAIjIDLKSO3uD8EFlzcgQAEYhNAoMdGRUUIQKAVBBDoraBIGxCAAATCI4BADy+meAQBCCQngEBPzowrIACBJggg0JuAx6UQgAAEAiaAQA84uLgGAQjEJoBAj42KihCAQCsIINBbQZE2IAABCIRHAIEeXkzxCAIQSE4AgZ6cGVdAAAJNEECgNwGPSyEAAQgETACBHnBwcQ0CEIhNAIEeGxUVIQCBVhBAoLeCIm1AAAIQCI8AAj28mOIRBCCQnAACPTkzroAABJoggEBvAh6XQgACEAiYAAI94ODiGgQgEJsAAj02KipCAAKtIIBAbwVF2oAABCAQHgEEengxxSMIQCA5AQR6cmZcAQEINEEAgd4EPC6FAAQgEDABBHrAwcU1CEAgNgEEemxUVIQABFpBAIHeCoq0AQEIQCA8Agj08GKKRxCAQHICCPTkzLgCAhBoggACvQl4XAoBCEAgYAII9ICDi2sQgEBsAgj02KioCAEItIIAAr0VFGkDAhCAQHgEEOjhxRSPIACB5AQQ6MmZcQUEINAEAQR6E/C4FAIQgEDABBDoAQcX1yAAgdgEEOixUVERAhBoBQEEeiso0gYEIACB8Agg0MOLKR5BAALJCSDQkzPjCghAoAkCCPQm4HEpBCAAgYAJINADDi6uQQACsQkg0GOjoiIEINAKAgj0VlCkDQhAAALhEUCghxdTPIIABJITQKAnZ8YVEIBAEwQQ6E3A41IIQAACARNAoAccXFyDAARiE0Cgx0ZFRQhAoBUEEOitoEgbEIAABMIjgEAPL6Z4BAEIJCeAQE/OjCsgAIEmCCDQm4DHpRCAAAQCJoBADzi4uAYBCMQmgECPjYqKEIBAKwgg0FtBkTYgAAEIhEcAgR5eTPEIAhBITgCBnpwZV0AAAk0QQKA3AY9LIQABCARMAIEecHBxDQIQiE0AgR4bFRUhAIFWEECgt4IibUAAAhAIjwACPbyY4hEEIJCcAAI9OTOugAAEmiCAQG8CHpdCAAIQCJgAAj3g4OIaBCAQmwACPTYqKkIAAq0ggEBvBUXagAAEIBAeAQR6eDHFIwhAIDkBBHpyZlwBAQg0QQCB3gQ8LoUABCAQMAEEesDBxTUIQCA2AQR6bFRUhAAEWkEAgd4KirQBAQhAIDwCCPTwYopHEIBAcgII9OTMuAICEGiCAAK9CXhcCgEIQCBgAgj0gIOLaxCAQGwCCPTYqKgIAQi0ggACvRUUaQMCEIBAeAQQ6OHFFI8gAIHkBBDoyZlxBQQg0AQBBHoT8LgUAhCAQMAEEOgBBxfXIACB2AQQ6LFRURECEGgFAQR6KyjSBgQgAIHwCCDQw4spHkEAAskJINCTM+MKCECgCQII9CbgcSkEIACBgAkg0AMOLq5BAAKxCSDQY6OiIgQg0AoCCPRWUKQNCEAAAuERQKCHF1M8ggAEkhNAoCdnxhUQgEATBBDoTcBr46UvvviiGTZsmOnZs6dZZJFF2thz/a5eeeUV88UXX5gpp5zSLLbYYnUv+OWXX8wTTzxh6y2++OJmiimmqHtNqBUef/xx8+uvv5qZZprJzDPPPJm7+dVXX5mXXnrJ2rHyyiub8ccfP3ObkhgwcuRI8/7775svv/zS9O7d28w888xm4oknrtrEJ598Yt544w0z4YQTmhVWWCFJV4Woi0AvRJhxEgIQqEMAgc4QgQAE2kogBIF+7733mrPOOsvo4fz333+3/CQWJXhmm202s/rqq5tZZ521rVxb3dnhhx9u7rvvPrPEEkuYc889t9XNN9Xesccea+68807Tr18/M3jw4LptffTRR2bjjTe29f7973+b+eabr+41oVbYYIMNzKeffmq23XZbs+eee2bu5iOPPGIOPPBAa8ejjz5qJplkksxtimvAq6++avbff3/z/fffly454IADzKabbmq++eYbs8suu9jPL7jgAjPttNPan2+77TZzwgkn2J9feOGFuF0Vph4CvTChxlEIQKAGAQQ6wwMCEGgrgRAEevQhuxq83Xff3Wy99damS5cubeXbqs4Q6NVJ6sWMZqLfffdds8cee7QKeax2/vrrLzvjrJcn++67r+nWrVus61wlBHoiXFUr//jjj2adddYpvaBbaqmlzJgxY8zRRx9tevToYe655x5z5JFH2uv1t+oi0OuzR6DXZ0QNCEAgfAII9PBjjIcQ8IpAaAJ9v/32M7169TJff/21+fDDD80tt9xS4r3GGmsYzfbmsSDQq0dNKwquvPJKM8sss5gbb7yxreHVUv199tnH9vnQQw+ZySefPFH/CPREuKpWHjJkiNEflZtuuskubY+WH374wRx66KFGL1ROPPFEK9oR6PXZI9DrM6IGBCAQPgEEevgxxkMIeEUgNIH+wAMP2OXtrnz++efmiCOOMK+99pr9SMtbfdvDHWdAINCrUzr77LPN1VdfnYlA18y9Zs4R6HFGcXp1FAPFQjPnGg9xC0vca5NCoMcdSdSDAARCJoBADzm6+AYBDwmELtCFXImv1l57bUt/uummM3fccUeHSGhWTUnYtET6s88+s3W0d71///6lJfFaQvvggw/a6/71r3912tP+888/m2eeecasuuqqnaL8zjvvGO2PVSIq2aGfP/74Y7P00kub7t27m+eff94mqvrpp5+syFx++eU7JU6LI9Dfe+898/rrr9skWZrJ1b57+TDppJN2sum3334zzz33nPnggw/Mt99+a+vPPffcNslbrWXa4qMl3W+//bZtV9dor/Ldd9/dsj3oSWy766677PJy+TLRRBPZPciuLLfccp18l6/irViPO+64Njnb/PPP32nGVW0oRhJ9Gj+K0+yzz275OJ5PP/20efLJJ0uz9v/3f/9nJptsMtt93759bdv1SnQGXeJSbIcPH27H37zzzmvmmGOOik0oYaDGrOKnJHPTTDON9UPxHmeccSpe8+eff5qXX37ZKAeAfFPM55xzTjue5Z9KrT3o//vf/2yiQpWVVlrJ8naf6XdGOQjKi3ITlPNQH7JZY11J6BQ7MZ5++ulLv3eKTZwiBnoJd/7559u958sss4xR3FXWWmstG2ONkb///rvU3CqrrGJ/F1XiCPQRI0ZYP/V7rN/RGWec0Y6FhRZaKI6Jua6DQM91+DAeAhBoEQEEeotA0gwEIBCPQBEEukicdtpp5oYbbrBQlFRuqqmmsj/roV77VCW2yosEz/HHH28F+6hRo6woURK6Skvl1bb60AO/hEa0uNm9RRdd1AwaNMicfvrp5vrrrzfbbLNNSQRG62sFgOpJBLhSS6BLeF144YXmiiuu6OSD2pIP0VUDWoqtpf4uoV70oqmnntqcc845Hfp239966612eXC10ookcUltkyCtVm6++eaSSJZA00uEY445pmJ1xWLgwIFmggkmsN9H9yyXX3D77bebPn36mL322qviuFF9xWu99dar+0voBHq1iltssYXdV9+1a9dSFbekv9I1ioHGV3lyN72QUMz1YqW8SGiffPLJNgFhNYGu3w/5qyKBq8RqehGgLSWPPfaYfamk8R8tYr7wwgvbj6L7vp3PGpvRhG7uWl2jOGks1ivHHXdcpxdu7hoJ//HGG8++tIiW6O9/PYGulTeKpU4pKC96oaJl83HsrOeHr98j0H2NDHZBAALtJIBAbydt+oIABExRBHpUcGmvqmYNlURq8803t3vVVSS8NSOs2UW3d10P33qIl3CTiJHoU5FgcaJJQmTDDTesmI1bM24rrriiveaoo46yM+hOoLvhJ+GumUzNBCvbtIoT865OLYF+6qmnlmZxJdA0M68Zf+3HdiJcLxBcJnsdi7bjjjvapiUyNGP+1FNPleoq+72yq0dnMbXH22WPl7DSkVSagdWWAmUhV2mFQE9q20UXXWRj8eabb9oZXcVTReJRSQHdEVuaRXXifIYZZrD2q45WPTjRutVWW5m9997bzpIqTmKnNiW0xUJjSOX++++316pNcdNLBRWJabf6QC9zoi9Yqv1XExXo4q7YaQyoDxe78hdCl19+uX2BozhoHCtJnmbyXdHLBiem9ZlmfrfccsvS96uttpqdvVaeBq1+kEh2Lx0qCXT9PqhN2SMb9fvjZqCbEegySHaIlWbUn3322dLvothdc801HcZgJYb63dSqAxcbtTfXXHPZqnrxprjpxYRWlWiMqMQV6NHTBjQOlFhOqyc0XrSyQkU8FA+9CAixINBDjCo+QQACSQkg0JMSoz4EINAUgaIIdC2FHTBggGXlZjejM8Lap77uuuuWWEb3FmsGXOIr2obEqmYcVYYOHWpnX1X0IC/R6gSMltNrlk9F4kcP+FGBrhlpzUiqaKn9KaecUno5EE06Vk2ga4mzjpFS0ZJezVQ6Ya2zoDfbbDMrrLT098wzzyz5d9VVVxkJNbeSYPTo0faoOpdkTYLcncstwSiRqKJVBWeccUZpn7/aFleJllYIdPWRxDbVr7cHXcva9QJFtspnMXIvV/SSRjFw2x70YkbLrV02+OjMr5Y6aytCdEa2VXvQJVJlh4udlrkffPDBpTPJ3Usl+SsxKzsVdzfOtMVit912K71s0JJstaUxtd1225VeYEjYK4auSNzrLHC9IHJjNHrMml4+6UWHO+f+uuuuKyVYU/1mBLrGpGbdnbjVShDFUqtLVCSs3bir95+cfndl484771z6XYxeE10BEEegi5teYmkGXS90Lr744g5+R1/4RMdIPTvz9j0CPW8Rw14IQCANAgj0NKjSJgQgUJVAUQS6HrS33357y8HNZGu2Vfu2NeumGebyvbuaNdSsm2bklIRMD+0SeJpxlCCQqFfRMleJcldc+/q3hLsEfHQJsBPort1ocDQbKJGhohlEJ5yqCfTocueo8HBtKineZZddZv9Z61zrP/74w+7Ldoz0osDN/EdfKEgYag9utKR9Dnot22RHPYGu1QDao6wiQa2XKNEiwev2LetlivZ9u5ceEoiKZ7UZ0lYJ9ErnoGtvtVsmX+8EAm3BkLB1qxy0GqNnz54dXiop23x0Jr3SfwrRGXS9INIY1yoDFYnz8lUBzQj0Sj7rJYjyOOhlSqVl89X+I2u1QFeeiB122MF2J3Feab+5+/9h/fXXN4cddliQdxkEepBhxSkIQCAhAQR6QmBUhwAEmiNQFIEusaEZSZXBgwfbB263L1szZbvuumsnkOedd15pX/cLL7xgv3eCWCJPYkbLoV1iOM1M6kWAE97RmWctQ9eyapVaAl3LxbXsWSWacb6aQHf729W3ltqWl+jM4bXXXltKOqaXDbJfR1JpKa9eOsgnt6xawsstF5dol1/VMmS3WqAnsU3+1hPojp3qaqa6UnHL1LUaQH923313m7xMRfHcaaed7CqE8uRlaQp09e3sKH+ZIyGr2Mlut3Q76pdeKOkavVA56aST7FflJxxU4hAV6Hop4JaOR19IRa9rtUBX25rBlx1Jjs1rtUCP7k1fdtllbTK7Sr9b+n1ZYIEFzKWXXtrcf8SeXo1A9zQwmAUBCLSVAAK9rbjpDAIQKIpAj+6hVmZpLQ12S8sPOeQQuwS6vEjQumXhbnn6W2+9ZZf8OgGtpd0S7RITEtSaYVeRWFZGdS0HV9EeYbccuZZAj4r6OAJ9k002sft2q802Ru2VLxKZypKuPcra7+2KEuHprGgn0N2y/miiL7dHu5xTKwV6EtucHfUEumMU57fd+S07tHRZCdBcqZS8LG2BHs174F4SKd677LJLhwRril80kZnboqCYaxyruOtrcYgK9PJ62v6gcR4taQj0pDbLnlYL9KgN9cZN+faRevXz9D0CPU/RwlYIQCAtAgj0tMjSLgQgUJFAEQS6ZmQ32mijUjIzJaPSsmnNjKk4UVYO6JJLLjFKQqbiksJJsGrZscSQZrolvCWq3R52JSLT/lTtB1diKgl4JRzTMmlXWinQ3TLbaiIhum9eKwe0T1wvJNyRcdq3rJlyl9xM7UikOyZi51YaaB++O/M7yqqVAj2JbXEFul4sKA7aU6+VDLWKEq9FM6brJYaWx2vrgYpWGWjrgcvUn7ZA10sCzWJrH7RyJmgpu8aWW/Gg77UyQzP72q7hVj04gR7dAuH2pScR6AcddJB92aQxrpliLfeOriJIQ6C73yHFIrp1pJbdrRbo0dUzyk9QKwmcEhGWZ80P5XaDQA8lkvgBAQg0QwCB3gw9roUABBITKIJA197rAw44wLJRJmaJGhUnRpVILXp+toPoxJEyubulvvouKtydaFPWbYlcLTeWaI4WCTydn52GQC8XcOUDIJqkTi8OlI3erRxQ8jCXDM1dVy7Q9bmbgV588cWNhEt5aUagS/y5pGUSnUltky1uBt2J2Gr2SfC5DOxJflH0kkI5CtxqCK0+cDGOCvRKOQDq9RM9B33PPffsVN1tL9DLJPX/3//+tzRWo4kKdaFeCGksqziBrtUiio9KpSMAyzuMzqBrX7X2V+sllLLbq7jP3HVOoFdKEFjvmLVKe9DVrnvpFDfpoK5ptUCPnvoQh1u9OOf1ewR6XiOH3RCAQCsJINBbSZO2IACBugRCF+ia+dbec7d0Ww/e7txiiQ6JD82Kai9vdOZUy71XXnlly0/7lrXU2BUdO6UZeVfKhYb2tLvl426vepcuXUr1G5lBdyK4vD3tNZZAVYkmlXOdudljXacXFcr6rplwlei+eP1bs7MuM73Y6FqVaBK86D5210dSgR5NfqbYOJZKUpfUNtkQTYTnzr6ODnwtzXYz55qdXXPNNev+XkiUl+8318sDvUTQUnedO6+i1RjuJUc0833dDv5/hVoCXbP+LgbqQy9Uor6UJ/2LJkK84oorzLzzzmtXDrg2qu0jj9pa7Rx0xUm/IxpH2tfusv9Hl+BrO4A71k5tPvHEE0aJ6VQqnYNeSaBHV3yUHxdXi2mjAj0qxJVkb7bZZrPdRFcjlK+AiRvbEOoh0EOIIj5AAALNEkCgN0uQ6yEAgUQEQhPoSjA12WSTGR1TJcHilnILipZzu8zM+ndU0GjvuISoBIhEmGbcnciuJXzVjmYpe/fuXeIeTUhXaXa+EYGupcVaoq6iJGaa1dY55Norvfrqq9sXEMqwrVlW2SKxrRlWd2SVuOga1XdL++WzluZrVv27776zS9/dUm7VdcdtRfex6+WGkq5p2buW/b788stGy6DFLO6MpxKc6bxvFc16y4YFF1zQ+pDUNrURPfJKydwk8vVCROd8zzzzzHY7g5Z+u/PaJRblu17IKIO7Vhk8//zz9pg5l8lf4lA+6jrNvMtPl10/KnQ/++wzO8usItv1YkP8NZvtMvDX+oV0Al17u8VhvvnmMzpuTJn/ldzNHW+mc8o1NqNJ/xQfvdzQiwQd/yYxrDioSDi7hHjRJHnKTq8XSPJJXB5++GG7IkSCXsu0qwl0HVWncaaiF1cu8Vz0hYFeBChLvHItKPO7fp9cqSTQlcROR8tpDGi86mWZzi53L9NcJvo4/6E1KtCjRyQqj4NehLhTCpTR3x2/p/GgFyQ6JlG2yj/9Tup3TCxDLQj0UCOLXxCAQBICCPQktKgLAQg0TSA0gV4JiB6gJVK0fLu86BxmLV92RQJU+21dqbQMXN+5BHKVkrNJYCkDtsSSjjjr27dvh24bEejRGT01FhXD2qcbFUPRbOyqq73D2kvvMlFHhYe+l0By4tUZWr7XulLSrPJ+4gp09eFmZF1/7pzvRmz75ZdfbJI/J05dm9El79p6oMRqTvypTrn9LoledCa/0ni6++67zbTTTlv6SkveJZzLS5wl706gR7lHbdTnzi79XP6yQT507969w5hVPe23l4B0L18kyqNJ5Mp9dysmqgl0tRnNCK9VG8rqrxccGuvlNpfzrSTQa/lcvpS+3n90jQp0vSzS2In+zrtVGDpbXr//0d+Ncm56IeFWCdSzMY/fI9DzGDVshgAEWk0Agd5qorQHAQjUJBCCQI/us3XCQLPJM800k5l11lltUi3NfFUrWuaqfeLRh3RlxZbwcmeBl1+r2VktlXaJ18q/19nbml2UmCtfKu32TFc6Gi2axb28be131gy5hNaiiy5qBg0aVOpWAlSzptEjtyQmNKspcRZNciUxpZcE4uaKXkwoAZxsUpZ6id1ykaT64hQVwlrurRlFrTaotke9EneJH9ng9vY7gd6obZrll+gvF6FaBu58F1u9kNFn0aKZXIlMCTUJWtUTezd76upqTGjPdfmLHvFQEkB3XrirrzGgGfFaRQJdIlez/nqZExW6Yiufys+d1xYBzbZrBYgrEuR6CaWVEBq3KjqGTSsIVEaOHGmX5Ws/dbmY1ioPzawr8V10T335mfFa9q+xpH41XrRyQWy1WkDbHKJjTy+uJFyV80ElurXAvZRw59FH7VEstHpFL5WSFNfmwIEDSysdotcrQZ5W0KhoVc0UU0xR+lrbPrQFQrPpKtFtEuKmFx1iGbVTL3+0CkS/X265fxJ781IXgZ6XSGEnBCCQJgEEepp0aRsCEOhEIASB3qqwaiZWe8979OjRYS9ttfY1q609q25ZdLSeHuYl3Pr06dMq82w7SrwlG1UqLa2VWJbA1DLjnj171uxb/g4bNswuyY7uHZYQkwjU9U5ERRuSXz/++KO9zh0d16iTEkDqSy9Tovv0G7FNdn/55Zdm9OjRVkBGfYraN2bMGNun+uvVq1enFyiuruppabdmrfWCR1sKKsXa1de2CrERt3p13TUSh5oBn2aaaWxsFQ/1IdFXK3O4rpdt4qQxFs2fIKZfffWVFfblL4fcdYqf+tB2kFo+JYmrXrpo7Em8Ru0pbyO6715LynWNtl6U+5Gk71bUFUvZEV0d4dpVbHyxsxW+xm0DgR6XFPUgAIGQCSDQQ44uvkHAQwIIdA+DgkkQCJhAvcz1AbueO9cQ6LkLGQZDAAIpEECgpwCVJiEAgeoEEOiMDghAoJ0EEOjtpN1cXwj05vhxNQQgEAYBBHoYccQLCOSGAAI9N6HCUAgEQQCBnp8wItDzEysshQAE0iOAQE+PLS1DAAIVCCDQGRYQgEA7CSihnPbI63xxJeej+EsAge5vbLAMAhBoHwEEevtY0xMEIGCMQaAzDCAAAQhAoBIBBDrjAgIQgIAxCHRGAQQg0FYCCPS24qYzCEAAArkhgEDPTagwFAIQSJEAAj1FuDQNAQh0JoBAZ1RAAAIQgAAz6IwBCEAAApUJINAZGRCAQFsJINDbipvOIAABCOSGADPouQkVhkIAAikSQKCnCJemIQABZtAZAxCAAAQgEI8AAj0eJ2pBAAJhE0Cghx1fvIOAdwSYQfcuJBgEAQhAwAsCCHQvwoAREIBAxgQQ6BkHgO4hUDQCCPSiRRx/IQCBEAn079/fDBgwwP5pVUGgt4ok7UAAAnkmgEDPc/SwHQI5JIBAz2HQMBkCEIBAGQEJdFdaJdQR6AwzCEAAAhyzxhiAAATaTACB3mbgdAcBCEAgBQJRgd4qoY5ATyFQNAkBCOSOADPouQsZBkMg3wQQ6PmOH9ZDAAIQEIFKAr1ZoY5AZ2xBAAIQYAadMQABCLSZAAK9zcDpDgIQgEAKBGoJ9EaFOgI9hUDRJAQgkDsCzKDnLmQYDIF8E0Cg5zt+WA8BCECg3gx6OaG4e9QR6IwtCEAAAsygMwYgAIE2E4gK9Eefv7bNvdMdBCAAAQi0gsCQIUMSN1NPqCPQEyPlAghAIEACzKAHGFRcgoDPBKICffOdl/PZVGyDAAQgAIEUCAwePNj069evU8sI9BRg0yQEIJA7Agj03IUMgyGQbwJRgX76Rfvl2xmshwAEIFBQAkOHDk3suUS5ZtEriXM1hkBPjJQLIACBAAkg0AMMKi5BwGcC7EH3OTrYBgEIQCAegThJ4lxL9YS5q4dAj8eeWhCAQNgEEOhhxxfvIOAdAQS6dyHBIAhAAAKJCcQR6HGFOQI9MX4ugAAEAiaAQA84uLgGAR8JINB9jAo2QQACEEhGoJZATyrMEejJ2FMbAhAImwACPez44h0EvCOAQPcuJBgEAQhAIDGBSgK9UWGOQE+MnwsgAIGACSDQAw4urkHARwIIdB+jgk0QgAAEkhGICvRmhTkCPRl7akMAAmETQKCHHV+8g4B3BBDo3oUEgyAAAQgkJiCB3iphjkBPjJ8LIACBgAkg0AMOLq5BwEcCCHQfo4JNEIAABJIR0DFr1Y5LS9bSP7XJ4t4oOa6DAARCIoBADyma+AKBHBBAoOcgSJgIAQhAIAMCCPQMoNMlBCDgHQEEunchwSAIhE0AgR52fPEOAhCAQKMEEOiNkuM6CEAgJAII9JCiiS8QyAEBBHoOgoSJEIAABDIggEDPADpdQgAC3hFAoHsXEgyCQNgEEOhhxxfvIAABCDRKAIHeKDmugwAEQiKAQA8pmvgCgRwQQKDnIEiYCAEIQCADAgj0DKDTJQQg4B0BBLp3IcEgCIRNAIEednzxDgIQgECjBBDojZLjOghAICQCCPSQookvEMgBAQR6DoKEiRCAAAQyIIBAzwA6XUIAAt4RQKB7FxIMgkDYBBDoYccX7yAAAQg0SgCB3ig5roMABEIigEAPKZr4AoEcEECg5yBImAgBCEAgAwII9Ayg0yUEIOAdAQS6dyHBIAiETQCBHnZ88Q4CEIBAowQQ6I2S4zoIQCAkAgj0kKKJLxDIAQEEeg6ChIkQgAAEMiCAQM8AOl1CAALeEUCgexcSDIJA2AQQ6GHHF+8gAAEINEoAgd4oOa6DAARCIoBADyma+AKBHBBAoOcgSJgIAQhAIAMCCPQMoNMlBCDgHQEEunchwSAIhE0AgR52fPEOAhCAQKMEEOiNkuM6CEAgJAII9JCiiS8QyAEBBHoOgoSJEIAABDIggEDPADpdQgAC3hFAoHsXEgyCQNgEEOhhxxfvIAABCDRKAIHeKDmugwAEQiKAQA8pmvgCgRwQQKDnIEiYCAEIQCADheTtMAAAIABJREFUAgj0DKDTJQQg4B0BBLp3IcEgCIRNAIEednzxDgIQgECjBBDojZLjOghAICQCCPSQookvEMgBAQR6DoKEiRCAAAQyIIBAzwA6XUIAAt4RQKB7FxIMgkDYBBDoYccX7yAAAQg0SgCB3ig5roMABEIigEAPKZr4AoEcEECg5yBImAgBCEAgAwII9Ayg0yUEIOAdAQS6dyHBIAiETQCBHnZ88Q4CEIBAowQQ6I2S4zoIQCAkAgj0kKKJLxDIAQEEeg6ChIkQgAAEMiCAQM8AOl1CAALeEUCgexcSDIJA2AQQ6GHHF+8gAAEINEoAgd4oOa6DAARCIoBADyma+AKBHBBAoOcgSJgIAQhAIAMCCPQMoNMlBCDgHQEEunchwSAIhE0AgR52fPEOAhDwl8Dff/9txhlnnFQNfPzxx82vv/5qZpppJjPPPPMk6isNgf7VV1+Zl156ydqx8sorm/HHHz+RTVlXHjlypHn//ffNl19+aXr37m1mnnlmM/HEE1c168UXXzTDhg0zPXv2NIssskjW5tM/BCDQAAEEegPQuAQCEGicAAK9cXZcCQEI+EtAAmqnnXayBh5++OFmiSWWqGjskUceaV544QUrno4++ui2OfTss8+aAw880PzrX/8yZ555phl33HFT6XuDDTYwn376qdl2223NnnvumaiPNAT6I488Yv1WefTRR80kk0ySyKYsK7/66qtm//33N99//33JjAMOOMBsuumm5ptvvjG77LKL/fyCCy4w0047bWns3XfffXb8nXvuuVmaT98QgECDBBDoDYLjMghAoDECCPTGuHEVBCDgN4GPPvrIbLzxxtbIU0891aywwgoVDd5xxx3NK6+8YhZffHFz3nnntc2pY4891tx55522v1tuucXMOOOMqfSNQG8N1h9//NGss8465vfff7cNLrXUUmbMmDH2pU6PHj3MPffcY/SyR0V/q66KXg4h0FsTA1qBQFYEEOhZkadfCBSUAAK9oIHHbQgETsB3gf7aa6+Z4447zsw///zmiCOOSC0aCPTWoB0yZIjRH5WbbrrJLm2Plh9++MEceuih5q+//jInnniiFe0I9NawpxUIZE0AgZ51BOgfAgUjgEAvWMBxFwIFIeC7QG9XGBDorSG97777Gu3n18z52WefHbtRZtBjo6IiBLwlgED3NjQYBoEwCSDQw4wrXkGg6ASaEejav6596XPPPbeZffbZjWa79eezzz4zffr0scvhZ5lllhLiN954w3zwwQd1kU8//fQ2WdsTTzxRqqsEYyuuuGLp39qjraRual8J1J577jmjxGq6drbZZjP9+/dPtF89KtAlLpWgbfjw4bateeed18wxxxwV7X7nnXfMk4+8ZD786EM7K7zQInOYhRZayPKoVv7880/z8ssvG7H/+OOPzeSTT27mnHNOu8++e/fu9rJae9D/97//2YRqKiuttJKZaKKJjPtsuummM/369evUtdsm0LdvX8vW9dEqhkry9vnnn5vzzz/f7j1fZpllzHLLLWf7WWuttWws7rrrLqOEf66sssoqZsIJJ7T/jCPQR4wYYf0U859++sludxBn8aZAAALZE0CgZx8DLIBAoQgg0AsVbpyFQGEINCPQnYhcYIEFbHKvCy+8sBM37SFfY4017Ofau37FFVfUZTtgwAA7A7vNNtuU6s4wwwzm1ltvLf3bCeopp5yyQzIyV2HhhRc2xxxzjJl66qnr9qcKrr1qlbfYYguzxx57mK5du9oqo0aNMrvvvnsp03r5daqv2eTy8u677xoxefvttzt9J6F98sknW5bVBPrTTz9t9tprL3utBO4JJ5xgM9zvt99+5rHHHjPLL7+8Oe200zq0LVEsHirRfd+tZKhtCHfccUdFfHp5Mt5449mXJtFy7733mqmmmsp+VE+g68WP6nzxxRed+tBY0bL5uLGONSCoBAEIJCaAQE+MjAsgAIFmCCDQm6HHtRCAgK8EWiHQnW+azZZY0qz6m2++aT+W6JQQ0wy4krwpEVh50cyzEtCpaAb4hhtusLPXgwcPtm0p83c1ga5r1K9mkjUbrKzvH374oW1Ls6vXXHNNrJn0qEDXMWtLL7207ff+++8vJTzTiwaJa1ck0CU+Z+gzs5l+ulnNd8OHmXfef730vZZ4i4crmvndcsstS/9ebbXVrO1ff/21zdSumefbb7/drj6oJNA1266XFkrAJhu119vNQDcj0FvB8LbbbrMvK5QEzrU311xz2Z+VIE4z6GKno9fc2Igr0KNjVONJieUmnXRS+5JDy+lVxOPyyy+3LwIoEIBANgQQ6Nlwp1cIFJYAAr2wocdxCARNoFUCXTPGe++9d0kMR7N1n3766aXlzpVgSkSfddZZ9ivNsGtJuSuDBg2ywquaQNdSas0YO2Gm5eMSxtdff71tIjqDXyuQTqBL6Ct5mTvOTS8KDj744NJMuUSxlqKrvPXWW/ZotnlmXtqM/O0v+9mEPX8w66+/vv1ZtuloOBW9hNhuu+2sOJXIlF9KfOeKzg3/5JNP7FJ3lXKBrlnwrbfe2s4ga9XAddddV0qwpvrNCPRWMZQd6667rrVx5513NgMHDuyEPLoCII5AFzedIKAZdI2Biy++uIPfWjavlRIq0dUBQf/S4hwEPCWAQPc0MJgFgVAJINBDjSx+QaDYBFol0MvP6h49erTdg66i87w32WSTiqCjs8oSdBJ20VJPoFc6t1x7lVdddVU701xpyXclQ2olidPe6vXWW89eVj6Lrs/cOegSk7P07WbFsoRo9KWC9mhr6b7KPvvs02EmvZI9UYH+0EMP2Qz2zzzzjK0qcV6+x70Zgd4qhmkIdJ2pvsMOO1i/Jc4r7TfXqgK9+NCLkcMOO6zYv9B4D4EMCSDQM4RP1xAoIgEEehGjjs8QCJ9AWgJd5LRHWsu2q82mSkhrybedhZ5nHnPZZZeZLl26NC3Q3UsBiVwtIb/xxhvrBrJeFne3nF3Ltq+++upSe1oGP+icS8wrr71oPv/y4079aIm+ipb3n3TSSfbnBx54wM6C1ypRga6XAm7puGaoKx0312qB3gjDNAS6ls5rn73KsssuaxMClhe9DNHLGOVCuPTSS+vGmgoQgEA6BBDo6XClVQhAoAoBBDpDAwIQCJFAmgK93nJnCVYJVydglZW7vDQyg642tLT82muvtc05kVwrfvUEupK33XzzzR3ak9BWcjJXuk04kZmyxxQdEpm5vpPaExXo5XbrhUM0O76+T0OgJ7U5DYEetaHe7190S0G9unwPAQi0ngACvfVMaRECEKhBAIHO8IAABEIkEBXo2nutWe9KZauttrJJubRsXdnYVWodBVZPrP33v/81+++/v21He7w32mijiv02KtC1L1n7kzVTLSFdr9QT6NrfrFlst2z9vffeM5tvvrltdqYZZjM7bbWfmXXmuc3sC3U3N910kznllFPsd06gn3vuuebKK6+0n+moMLfHvZpd5QL9oIMOsnvxNWOvmWIt9462kYZAT8qwXsz1fdI96NHM/8oSXysJnBIRTjLJJPVCzfcQgEBKBBDoKYGlWQhAoDIBBDojAwIQCJGAzpN254tX2gMun7W3epFFFrHuK4maZpNVGhXoEpkS5FqWLMEv8aqjwiqVRgW625esM8GVDb5eqSfQt99+e5uoTMuszzjjjA4z9JdfeLuZsMvktgsJdM20O0ZOoOsccpcBXsu2dV57rRJlq33V2l/95JNP2kR8Ku4z14YT6JX8rXfMWqU96Go3KUNdU2/VRFKBHk02GIdbvTjzPQQgkB4BBHp6bGkZAhCoQACBzrCAAARCJaClwRLLmm2WuNQRVtESFZc621sZ2xsV6BL72s/9/PPP22zmWuLuzsJulUCPJmSTyHTnhteKXy2BrpUDWkGgorPQlY39gAMOsEejaU/6yUddbEb8OqYk0DVTrpcOKk6gR9uoto88al+1lx9abaCkceXsokvwdR66ZpNdeeKJJ2xiOpVK56BXEuiNMGxGoOvlhcaZ/JLvLhdBdKXC2muvbY466qhQfw3xCwK5J4BAz30IcQAC+SKAQM9XvLAWAhCIT0DHoLljybSEW0vPJTx/+eUX8/DDD5sLLrig1JgEtdsr3sgM+lVXXWXOOecc256Ers4CLy8Sl7169bIf15tBl51ami+7R40aZWeZde62Xjio6Nz1nj171oXhBLr2disJ23zzzWd0ZNvQoUNtcjd3vJnOKZeIPP/8882///1v2+4ZJ15iek81m11p8MHXT1oR7Eqlo8T03aabbmqPD9NLkT/++MNyvuSSS+wxc1qmXY3tt99+a1ZffXXb/Morr1xKPKd96aeeeqr9XC8TlHxPZ6Qr83t0n3wlgd4qhuq70Rl0Ldl3Kx2U7V5Z/yeffOyqhOOOO85oebuKXrho3OglkuIt/3StXojUS7xXdxBQAQIQaIoAAr0pfFwMAQgkJYBAT0qM+hCAQF4ISMxqP7VEaK0ioSch60pSgR6dRa7VzworrFASm/UEumtHotmJcvdZ+TLwWn06gV6rPSUs02oDFZ1ZvuGGG5aanHqq3uaXX340I0aOfTHgilYbaNWBynfffWdFeZRzud1awi6BXYttNCO8znxfaqmlzK+//mqPgCtnoH6jfVQS6K1iqHYaFejRmXK1E12q//PPP1tRrmz/1WzVCwm3SiAvv3fYCYHQCCDQQ4so/kDAcwIIdM8DhHkQgEBTBDRbrhlhzeCWFx2Bpln1vn37dvjq8ccfL4lP/SwhGC1OrLm97S7RWj1DowJ9yJAhRn/Kj0tzgtr1GRWmmhHWEnQlU4tb1J5ErgS1jnuLtrfwwgvbRHblWeaV7O3www+3R8m5oj36qqsZbdkt+8TGlZEjR5oLL7zQaD91uZjebLPN7My69qfXYquZegl97YmfeuqpbTI8JU97//337T53nQnuis6Bl3BdZ5117EdK/Lbmmmvan1vNMNpmtXwGYrbbbrvZ/h988EEzxRRTlGyVz9rfrxcYiy66qF09EeWmmXIl4Ity08qJpZde2r7UqLVVIu44oB4EINA4AQR64+y4EgIQaIAAAr0BaFwCAQjkjoDEn2Z6hw0bZsXldNNNZ7p16+adH9E949oXrsRzv/32m+nTp4/p2rVrYns/+OAD0717dzPNNNMYJVWT/0pcJ9FXK3O4eA196gMzasTfpmePac2c/f7Zv68EfBL9YlipaLn6jz/+aPuYbLLJqibKS+qMZpzFQ+K1FotWM0xqZ6X6Yv/DDz/YryotWdf3zca6FXbSBgQg0JkAAp1RAQEItJUAAr2tuOkMAhCAQE0C9bKutxPf5++N6JAkrp19N9OXTwyb8YNrIQABPwgg0P2IA1ZAoDAEEOiFCTWOQgACOSDgk7hEoOdgwGAiBCCQOgEEeuqI6QACEIgSQKAzHiAAAQj4QwCB3nwsfGLYvDe0AAEIZE0AgZ51BOgfAgUjgEAvWMBxFwIQ8JqAkqF99dVXRmdjK3t5liWvM+g+McwyfvQNAQi0hgACvTUcaQUCEIhJAIEeExTVIAABCBSMQF4FesHChLsQgEDKBBDoKQOmeQhAoCMBBDojAgIQgAAEKhFAoDMuIAABCBiDQGcUQAACbSWAQG8rbjqDAAQgkBsCCPTchApDIQCBFAkg0FOES9MQgEBnAgh0RgUEIAABCDCDzhiAAAQgUJkAAp2RAQEItJUAAr2tuOkMAhCAQG4IMIOem1BhKAQgkCIBBHqKcGkaAhBgBp0xAAEIQAAC8Qgg0ONxohYEIBA2AQR62PHFOwh4R4AZdO9CgkEQgAAEvCCAQPciDBgBAQhkTACBnnEA6B4CRSOAQC9axPEXAhCAQDwCCPR4nKgFAQiETQCBHnZ88Q4C3hFAoHsXEgyCAAQg4AUBBLoXYcAICEAgYwII9IwDQPcQKBoBBHrRIo6/EIAABOIR8EGgDx061PTr1y+ewdSCAAQgkAIBBHoKUGkSAhCoTgCBzuiAAAQgAIFKBFop0CW0Vdzf5T+7/qPfx41KVMC7n8v/jtsW9SAAAQiUE0CgMyYgAIG2EkCgtxU3nUEAAhDIDYEkAr1ceFcS5Fk6LsHuRPuAAQOyNIW+IQCBnBFAoOcsYJgLgbwTQKDnPYLYDwEIQCAdAvUEukT4wIEDY3deaabbXVxpGXulz6rNsFd7QVDLOCfUEeyxQ0hFCBSSAAK9kGHHaQhkRwCBnh17eoYABCDgM4FGBHp0aXktQd4uv8tn8vXvSiLfzbAj1tsVGfqBQH4IINDzEysshUAQBBDoQYQRJyAAAQi0nEA9ga4OndjNWyK3IUOGWF7u7yg8ZtZbPpRoEAK5JoBAz3X4MB4C+SOAQM9fzLAYAhCAQDsIxBHo7bCjHX1IqJeLdWbV20GePiDgPwEEuv8xwkIIBEUAgR5UOHEGAhCAQMsIFEmgO2jVZtYHDx7McW8tG1k0BIF8EUCg5yteWAuB3BNAoOc+hDgAAQhAIBUCRRToUZDls+pa+s4e9VSGGo1CwGsCCHSvw4NxEAiPAAI9vJjiEQQgAIFWECi6QI/OqruZdS17l0jP2577VowH2oBAUQkg0IsaefyGQEYEEOgZgadbCEAAAp4TQKD/E6Dy2XSWvHs+eDEPAi0kgEBvIUyaggAE6hNAoNdnRA0IQAACRSSAQO8cdZ377jLXI9KL+FuBz0UkgEAvYtTxGQIZEkCgZwifriEAAQh4TACBXjk4UZH+wgsveBxBTIMABFpBAIHeCoq0AQEIxCaAQI+NiooQgAAECkUAgV493E6kay+6ZtIpEIBAuAQQ6OHGFs8g4CUBBLqXYcEoCEAAApkTQKBXD4GWuUukq7DUPfOhigEQSJUAAj1VvDQOAQiUE0CgMyYgAAEIQKASAQR67XHhZtER6Pz+QCBsAgj0sOOLdxDwjgAC3buQYBAEIAABLwgg0GuHwc2is8zdi+GKERBIjQACPTW0NAwBCFQigEBnXEAAAhCAADPojY2B/v372wuZRW+MH1dBIA8EEOh5iBI2QiAgAgj0gIKJKxCAAARaSIAZ9PownUAnm3t9VtSAQF4JINDzGjnshkBOCSDQcxo4zIYABCCQMgEEen3ACPT6jKgBgbwTQKDnPYLYD4GcEUCg5yxgmAsBCECgTQQQ6LVBRzO5M4PepkFJNxDIgAACPQPodAmBIhNAoBc5+vgOAQhAoDoBBHrt0TFkyBCjPyoIdH6TIBAuAQR6uLHFMwh4SQCB7mVYMAoCEIBA5gQQ6LVD4Ja3DxgwwOgPBQIQCJMAAj3MuOIVBLwlgED3NjQYBgEIQCBTAgj06viZPc90aNI5BNpKAIHeVtx0BgEIINAZAxCAAAQgUIkAAr3yuIiKc2bP+d2BQPgEEOjhxxgPIeAVAQS6V+HAGAhAAALeEECgdw4F4tyb4YkhEGgbAQR621DTEQQgIAIIdMYBBCAAAQgwg15/DCDO6zOiBgRCJIBADzGq+AQBjwkg0D0ODqZBAAIQyJBAK2fQdSSZyvDhw80qq6ySoVfJu5btEufOB5a1J2fIFRDIMwEEep6jh+0QyCEBBHoOg4bJEIAABNpAoFmB7oStTHXi9sQTT8yVQI/OmssPxHkbBh5dQMAzAgh0zwKCORAInQACPfQI4x8EIACBxgg0ItCdKP/ll1/Mu+++26njO++80/Tu3bsxg9p4Vfmseb9+/aw4198UCECgWAQQ6MWKN95CIHMCCPTMQ4ABEIAABLwkEFegl4vZas506dLFPPvss176KqOq+TF48GCEubdRwzAIpE8AgZ4+Y3qAAAQiBBDoDAcIQAACEKhEoJpAd8vVo/uyJ5lkEqNZ81plyimnNA888IBXsOVL9I8zzs2US5xTIACBYhNAoBc7/ngPgbYTQKC3HTkdQgACEMgFgXKBHnemvJpziyyyiLngggsy9b2aII8Kc5ayZxoiOoeAdwQQ6N6FBIMgEDYBBHrY8cU7CEAAAo0SqDSDXp40LUnbyy+/vDnttNOSXNJQXTfDr4udIHc/V2qQ/eUNYeYiCBSGAAK9MKHGUQj4QQCB7kccsAICEICAbwRqLXEfOHBgS8wtT7qWNAlbuRiPY5T6iP6Jcw11IACB4hJAoBc39ngOgUwIINAzwU6nEIAABLwnUC9JXDOz6e1wPir2tWxdJekLgHbYSR8QgIDfBBDofscH6yAQHAEEenAhxSEIQAACLSFQT6Crk7giPZrBPTrrrTbK/13tM+dUJZEd/QwR3pLw0wgEIPD/CSDQGQoQgEBbCSDQ24qbziAAAQjkhkAcge7EdDSjeyUHfczgnptAYCgEIJApAQR6pvjpHALFI4BAL17M8RgCEIBAHAJxBbprq9Zsug8Z3OP4TB0IQAAC5QQQ6IwJCECgrQQQ6G3FTWcQgAAEckMgqUCXY9VE+iabbGIOPPDA3PiOoRCAAAQcAQQ6YwECEGgrAQR6W3HTGQQgAIHcEGhEoDvnyoX6iSeeaFZZZZXc+I6hEIAABBDojAEIQCATAgj0TLDTKQQgAAHvCTQj0OXc5ZdfbgYNGmT9vPPOO03v3r299xkDIQABCJQTYAadMQEBCLSVAAK9rbjpDAIQgEBuCDQr0OXoH3/8YbO0L7HEErnxG0MhAAEIRAkg0BkPEIBAWwkg0NuKm84gAAEI5IZAKwR6bpzFUAhAAAJVCCDQGRoQgEBbCSDQ24qbziAAAQjkhgACPTehwlAIQCBFAgj0FOHSNAQg0JkAAp1RAQEIQAAClQgg0BkXEIAABIxBoDMKIACBthJAoLcVN51BAAIQyA0BBHpuQoWhEIBAigQQ6CnCpWkIQIAZdMYABCAAAQjEI4BAj8eJWhCAQNgEEOhhxxfvIOAdAWbQvQsJBkEAAhDwggAC3YswYAQEIJAxAQR6xgGgewgUjQACvWgRx18IQAAC8Qgg0ONxohYEIBA2AQR62PHFOwh4RwCB7l1IMAgCEICAFwQQ6F6EASMgAIGMCSDQMw4A3UOgaAQQ6EWLOP5CAAIQiEcAgR6PE7UgAIGwCSDQw44v3kHAOwIIdO9CgkEQgAAEvCCAQPciDBgBAQhkTACBnnEA6B4CRSOAQC9axPEXAhCAQDwCCPR4nKgFAQiETQCBHnZ88Q4C3hFAoHsXEgyCAAQg4AUBBLoXYcAICEAgYwII9IwDQPcQKBoBBHrRIo6/EIAABOIRQKDH40QtCEAgbAII9LDji3cQ8I4AAt27kGAQBCAAAS8IINC9CANGQAACGRNAoGccALqHQNEIINCLFnH8hQAEIBCPAAI9HidqQQACYRNAoIcdX7yDgHcEEOjehQSDIAABCHhBAIHuRRgwAgIQyJgAAj3jANA9BIpGAIFetIjjLwQgAIF4BBDo8ThRCwIQCJsAAj3s+OIdBLwjgED3LiQYBAEIQMALAgh0L8KAERCAQMYEEOgZB4DuIVA0Agj0okUcfyEAAQjEI4BAj8eJWhCAQNgEEOhhxxfvIOAdAQS6dyHBIAhAAAJeEECgexEGjIAABDImgEDPOAB0D4GiEUCgFy3i+AsBCEAgHgEEejxO1IIABMImgEAPO754BwHvCCDQvQsJBkEAAhDwggAC3YswYAQEIJAxAQR6xgGgewgUjQACvWgRx18IQAAC8Qgg0ONxohYEIBA2AQR62PHFOwh4RwCB7l1IMAgCEICAFwQQ6F6EASMgAIGMCSDQMw4A3UOgaAQQ6EWLOP5CAAIQiEcAgR6PE7UgAIGwCSDQw44v3kHAOwIIdO9CgkEQgAAEvCCAQPciDBgBAQhkTACBnnEA6B4CRSOAQC9axPEXAhCAQDwCCPR4nKgFAQiETQCBHnZ88Q4C3hFAoHsXEgyCAAQg4AUBBLoXYcAICEAgYwII9IwDQPcQKBoBBHrRIo6/EIAABOIRQKDH40QtCEAgbAII9LDji3cQ8I4AAt27kGAQBCAAAS8IINC9CANGQAACGRNAoGccALqHQNEIINCLFnH8hQAEIBCPAAI9HidqQQACYRNAoIcdX7yDgHcEEOjehQSDIAABCHhBAIHuRRgwAgIQyJgAAj3jANA9BIpGAIFetIjjLwQgAIF4BBDo8ThRCwIQCJsAAj3s+OIdBLwjgED3LiQYBAEIQMALAgh0L8KAERCAQMYEEOgZB4DuIVA0Agj0okUcfyEAAQjEI4BAj8eJWhCAQNgEEOhhxxfvIOAdAQS6dyHBIAhAAAJeEECgexEGjIAABDImgEDPOAB0D4GiEUCgFy3i+AsBCEAgHgEEejxO1IIABMImgEAPO754BwHvCCDQvQsJBkEAAhDwggAC3YswYAQEIJAxAQR6xgGgewgUjQACvWgRx18IQKAWgb/++suMGjXKjDvuuKZr166FhtWMQP/qq6/MSy+9ZPmtvPLKZvzxx8+c5euvv24+/fRTM+mkk5qllloqc3swAAIQyAcBBHo+4oSVEAiGAAI9mFDiCAQg0CCB3377zay//vrm+++/79DCRBNNZKabbjqzwgormPXWW89MNdVUDfaQz8uaEeiPPPKIOfDAA63jjz76qJlkkkkyh3D66aeb66+/3sw111zm6quvztweDIAABPJBAIGejzhhJQSCIYBADyaUOAIBCDRI4NdffzXLLbdczaunnHJKc+6551pxl3bRi4L777/fdO/e3ay99tppd1e1fQR6ZujpGAIQ8IgAAt2jYGAKBIpAAIFehCjjIwQgUItAVKCvttpqZqWVVjIjRowwX375pfnPf/5jl0WrSJxfeeWVdvl7mmXzzTc37733ntliiy3Mvvvum2ZXNdtGoGeGno4hAAGPCCDQPQoGpkCgCAQQ6EWIMj5CAAJxBfoBBxxgNt1001L10aNHmz322MMMHTrUfnbLLbeYGWecMVWgCPR08LLEPR2utAqB0Akg0EOPMP5BwDMCCHTPAoI5EIBA2wlEZ9DLBbqMueuuu8wxxxxj7Tr//PPNYostVrKKZ4szAAAgAElEQVTx77//tuL9rbfesjPuvXr1MjPNNJOtU55kTmJf+7Hfffddo33v2t/er18/OzM/zjjj2D3wTz75pO1DP88///x2b7yKkqytvvrqHdgood2LL75o2/vss89se7PNNpvp37+/6dKlS4e6zz//vFHitp49e1rblDDthRdeMN99952ZZZZZzEYbbVSqr9UD//vf/8wLz7xhvv/+R9N72unNEsvPZxZaaKHYsYnuQb/jjjusne+8846ZbLLJzJxzzmn9nnjiiTu1N2bMGMvT+TTBBBPY+ossskjNHAA///yzefXVV82HH35o/ezTp4/luuCCC5rxxhvP9lNNoIvjfffdZ/7880+jvANaQaGi1ROyZ7755rOMomX48OHmqaeesh8tv/zydo/9yJEjzQMPPGA/W3jhhc1HH31kbfr999/NzDPPbOaZZx7rCwUCEMgXAQR6vuKFtRDIPQEEeu5DiAMQgECTBOoJ9JtvvtmcfPLJtpfLLrvM9O3b1/78zTffmOOOO84888wznSyYYYYZzNFHH12q+8cff5itt97aCsjyssEGG5hDDz3UiubtttuuojcSjo8//njpOwl4tf/00093qi9hf/zxx1vB7srhhx9uRegSSyxhZJuSpbmy4YYbmkMOOcT+87XXXjOq+8UXX3RqV5nPZefUU09dl3hUoMt2idRoURunnHKKfQnhitjss88+FftWnRNPPNGsssoqnfpWX2JR3ocqisGFF15oevfuXVWg6/tLL73UtisO4qGiFx0qSna3ySabdOhXwnuHHXawn7lVFYqJs085C8qTDqquti3stttuZsIJJ6zLkAoQgIAfBBDofsQBKyBQGAII9MKEGkchAIEqBGoJdB25JiH29ttv26tdRnLNlmopvBOya6yxhpl++unNsGHDjGaMXdEs7DTTTGMuueQSc9FFF9mPF110UTuzqzYfe+wxc+SRR5p11lnHfP311+bWW2811113nRWbmgFecskl7TWaeZa4U9GsrpbBO7Gvvueee27z8ccfW7GoIgF82223Gc1AqziB7uzSbLhs0Iz9sccea2affXY747vxxhvbKhLVKyyzhpmwa3fz4SfvmhdfGfsiQLPAl19+eWlWutqgigp01ZHolQ86es0dv6bPb7zxxtLstOIgX+S77BO3N998s5QDQPXvvffeDjPp0ZcnslmrDOS7fNELCfl1xRVX2NUMlWbQNeOtlw4q5Xv+mxHoak8vQ8RYcZXd7gVC1rkF+I8AAhBIRgCBnowXtSEAgSYJINCbBMjlEIBA7glEBbqWN+tYNS131pJ1LW93InzgwIFm5513tv4OGjTIClUV/R2dCVaCNwloFQlOCeDtt9/ezk5rZlVizS271mea0ZZ4daXeHnSJeM0mqxxxxBFm3XXXLV2rWXaXWE5/O1EfFejKDK/rosnutMx7xx13tDbKnosvvtiM+H4iM+LXMbbttz9/tLTM371QqBX4qEDXCwcJZVfuuece+1JCRUvBL7jgArvEX0WCWbPe8847b6m+eMlelahP3377bWnZv15mnHXWWR3Eu1Y46GWGth2olAt0if9tttnGficxretdXPRZMwJ9zz33NNtuu23Jh59++sna/sorr9jP9PJEL3QoEICA/wQQ6P7HCAshEBQBBHpQ4cQZCECgAQJxjllToritttrK7u2WeHf70LVc2S11jnbtBLxmcyVItXT6wQcftFWuueaamnuR6wl09732Rd9www0lcev6l+iU+Iye9x0V6A899JCZfPLJO5CKLtmWONcMdnkWd9eu9sUfdthhNUnXOwf9pJNOKs3264WDXgpUKtq3L5Gt5fUqWmruzlePrkpQdn3N7tcqUYEuMb7lllvaZejiqK0LOtYuWpoR6GeffXbJZtdm9IVApWXzDQxdLoEABNpAAIHeBsh0AQEI/EMAgc5ogAAEik4gKtAlqDXLrdlXt4e4XExFl4Jr5lxLscuLksa5mXclE9O/d9ppp1I1za5qiXyl/dy1BLpmupUwTUUz3rvuumunvs877zy7rFtFieBUnECPivbohZrRPeGEE+xHyy67rE1Kp9nzMX/+bT/rPnkXu99dy7QXWGCB0p7tamOnnkDXTLLsVykXs2+88Ya56qqrbII1xSFaZNsZZ5xhP3IvPSTuJfLrFSfQVV9iXIJZRSsctNKhvLRaoKv9ZZZZxjJkmXu9aPE9BPwhgED3JxZYAoFCEECgFyLMOAkBCNQgUGkPurKCr7XWWlZMSbBLALoZVu1DV7b3uEUZ1LWEW/vNtVQ7msysfIm62qwl0KOJyKIJzaK2XHvttebMM8+0H0koTzrppCWBrqXc5557bifTVV/XxSkSma79avXrCXQJbyeK3QsQZcSX+I4msBN7FfeyJNq3ZtO1Dz8q2mvZ7wR6eR0tqddKhPLEbWkI9KQ2x4kHdSAAgXQJINDT5UvrEIBAGQEEOkMCAhAoOoFqSeKiCcQ02+1EuRKr7b333hab9oK7rO6VOCo5mROZ+l593XTTTXYPuyvls6m1BLqOZ5MgVYnux472HV36rVlv2RDN4l5JoEdn3ZXkTnuxv/p4pBn529g96DPP+8+RaDoeTceK1Sr1BPonn3xSypaubO4rrriifQni9tavvPLKNqO7W2Fw8MEHGy3Njwp0bTlQor1qLx3K7YsKdCWUUzzd8XmVViOkIdCV5V0vG1xugqL/7uE/BPJAAIGehyhhIwQCIoBADyiYuAIBCDREoJpA14yu9p4/99xztl2XDE5L111itqOOOsoo6VrSogR0++23n1FCORUnpPWzE+jR/dbR9t0y6c0228zsv//+nbpWAjbte3f731WhnkCPJm5zCczK96An8bGeQH/22WctW5Wrr77a7pd3s8taQj9kyJAOCdsqCXTnp16AKGN7NOldJVujAt31qZcV2r+uopl7nSPvihPo2kbgluO77+ods1ZpD3p0nO2yyy4dtjwkYUtdCECgvQQQ6O3lTW8QKDwBBHrhhwAAIFB4ArWOWfvss8+MkqKpKJmYloFLCC633HJ2qbo7U1yz1LWKxL6Ky1aun5Uh3s3gatZbR3KpuGRsSowmoVdeNHuvWXzNAmtWOdr3Dz/8YDT7rKKM9O789noCPZp5Xi8c9OIhTYGulxNa8i8fJK71txPE8n+vvfbq4Layouu8+SgTZYd3+9Gr7SOPNlLpmDXFcKONNrJ73ZVPQOehO6GvlzB6GVNpz31U2Fc6B72SQFfbOnNdpdL3hf9FBAAEPCWAQPc0MJgFgVAJINBDjSx+QQACcQnUEuhqQxm+dRSYioSjBGR0xllLrLVcWsdmKYnbO++8Y84//3yz9dZbl7K96/gzzQpr1lhHi0kYKimbBLbK7bffbvr06WN/lmiXeFfR8u+ll17aLo3XmezTTjutPQpNx7aprLbaavYcbwlcLZ2WHe4or2i2+HoCXW0dd9xxpTPc5eOqy2xmxv17IjP6z9Hm299ftUevSZhGl+xXYxydQddssWbHtRd++PDhlqf2fKtEl+m7FxOa+ddstur/8ccfRsvv3b70aEI4nUW/wQYblBLJiYOWjmsvuY410xnrYuWW9FcS6LIhumUhuq9fLJVvQEUvAJZffnnb7t133106017fVRLoesmhJfryQbGTLW4MabWAZu3rzfjHHb/UgwAE0iWAQE+XL61DAAJlBBDoDAkIQKDoBOoJdAljLSf/9NNPLSq3BDx6dJk+l0iOJoDT2d+a5VWJir1y3tH97fouKsCjdaNL3k877bSSyFUdidpoxvPtttuutIRc38cR6EqMp+ucn7qu24QTmREjfy+ZoaPJJDzrlahAd3XL+ehFxTnnnFNaARB96aFrJMajtrh25LvEssrQoUOtPVHu5f0oo73OVa8m0NVO9Bg8nbs+1VRTmddff93yqFcqCfRqPsu2iy66qO6RcPX65HsIQKB9BBDo7WNNTxCAgDEGgc4wgAAEik6gnkAXnxdffNEMGDDAonJZw7VsXbOpWrYcFceaYdZybR2lNuecc9prJD7//e9/26zj0aIZYM2qa6Y1WsrFarRfV091NFMf7VsZyTXLr6Rr0eL2a9fLwK5Zac2UK5FdVPRKLGsmX4nZJF7rFSfQtXx82LBhdpbaFfFRO/pTPosczUCv+hK0SqInoaxl8coHoFUDxx9/fKk9tS/RriXz0aKXFnqxst5661m+Wlauvedayq58AtHy7bff2qR18jmawE0z6Dqz3WWRl+3qXxy1MkDFrX6IZtgvf2GierpGe+krHa1XjyffQwAC2RFAoGfHnp4hUEgCCPRChh2nIQCBFhPQ7PPXX39tevXqVTqOrVIXv/zyi/nxxx/tVzo/vdbe9dGjRxvtgVcdibpqddWm9p736NHDKMN6K4pePrzy3Kfmh+G/mGmm6m3mWWTscWdxi3ho//Ycc8xhk72NGDHCSARPPvnknV5GlLepFQvyW3XlU7SIcZcuXTp9rjraXqA+x4wZY3lJ3LeiiMV3331nlEF/xhln7JBHINp+VKDrZcBiiy1m7ZH/vXv3Zkl7K4JBGxDIgAACPQPodAmBIhNAoBc5+vgOAQhAoDqBZpLEFZFruUBXQjsKBCCQfwII9PzHEA8gkCsCCPRchQtjIQABCLSNAAI9GWoEejJe1IZAXggg0PMSKeyEQCAEEOiBBBI3IAABCLSYAAI9GVAEejJe1IZAXggg0PMSKeyEQCAEEOiBBBI3IAABCLSYAAI9GVDtuz/ooIPsRcosr/33FAhAIP8EEOj5jyEeQCBXBBDouQoXxkIAAhBoGwEEettQ0xEEIOAxAQS6x8HBNAiESACBHmJU8QkCEIBA8wQQ6M0zpAUIQCD/BBDo+Y8hHkAgVwQQ6LkKF8ZCAAIQaBsBBHrbUNMRBCDgMQEEusfBwTQIhEgAgR5iVPEJAhCAQPMEEOjNM6QFCEAg/wQQ6PmPIR5AIFcEEOi5ChfGQgACEGgbAQR621DTEQQg4DEBBLrHwcE0CIRIAIEeYlTxCQIQgEDzBBDozTOkBQhAIP8EEOj5jyEeQCBXBBDouQoXxkIAAhBoGwEEettQ0xEEIOAxAQS6x8HBNAiESACBHmJU8QkCEIBA8wQQ6M0zpAUIQCD/BBDo+Y8hHkAgVwQQ6LkKF8ZCAAIQaBsBBHrbUNMRBCDgMQEEusfBwTQIhEgAgR5iVPEJAhCAQPMEEOjNM6QFCEAg/wQQ6PmPIR5AIFcEEOi5ChfGQgACEGgbgTQE+tChQ0v2R3/Wh+X/juNov379OlXTZ5U+j9MedSAAAQiUE0CgMyYgAIG2EkCgtxU3nUEAAhDIDYFGBLoT2dX+brfz5WId8d7uCNAfBPJPAIGe/xjiAQRyRQCBnqtwYSwEIACBthGII9AHDhxo7Uk6+11t5jvqXHmden3o+3p1XPsDBgywP7q/2waVjiAAgdwRQKDnLmQYDIF8E0Cg5zt+WA8BCEAgLQL1BLrEsBPo5TY4cV1pBjste8vbjQr28hn98roI9nZFhX4gkD8CCPT8xQyLIZBrAgj0XIcP4yEAAQikRqCeQFfHQ4YMsf1HBXlqBrWoYWez+7uSWGdmvUWwaQYCARBAoAcQRFyAQJ4IINDzFC1shQAEINA+AnEEevusSa+naoJdIh2hnh53WoZAXggg0PMSKeyEQCAEEOiBBBI3IAABCLSYQFEEehSbxHr5zDpCvcUDi+YgkDMCCPScBQxzIZB3Agj0vEcQ+yEAAQikQ6CIAt2RlEgvTzqHUE9nnNEqBHwngED3PULYB4HACCDQAwso7kAAAhBoEYEiC/SoUI/OqCPSWzS4aAYCOSKAQM9RsDAVAiEQQKCHEEV8gAAEINB6Agj0f5hGl74rId7gwYNbD5wWIQABLwkg0L0MC0ZBIFwCCPRwY4tnEIAABJohgEDvSA+R3sxo4loI5JcAAj2/scNyCOSSAAI9l2HDaAhAAAKpE0Cgd0YcPfudmfTUhyAdQMALAgh0L8KAERAoDgEEenFijacQgAAEkhBAoFemFRXp7ElPMqKoC4F8EkCg5zNuWA2B3BJAoOc2dBgOAQhAIFUCCPTqeKPL3V944YVU40DjEIBAtgQQ6Nnyp3cIFI4AAr1wIcdhCEAAArEIINBrYxo4cKA9ik0J47TcnQIBCIRJAIEeZlzxCgLeEkCgexsaDIMABCCQKQEEejyBzl70TIcpnUMgdQII9NQR0wEEIBAlgEBnPEAAAhCAQCUCCPTa4yK6F51ZdH6HIBAuAQR6uLHFMwh4SQCB7mVYMAoCEIBA5gQQ6PVD0L9/f1uJfej1WVEDAnklgEDPa+SwGwI5JYBAz2ngMBsCEIBAygQQ6PUBI9DrM6IGBPJOAIGe9whiPwRyRgCBnrOAYS4EIACBNhFAoNcHjUCvz4gaEMg7AQR63iOI/RDIGQEEes4ChrkQgAAE2kQAgV4bNEettWkg0g0EMiaAQM84AHQPgaIRQKAXLeL4CwEIQCAeAQR6bU5u9nzAgAFGfygQgECYBBDoYcYVryDw/9o7D3AriruNjwUQAzZUir2gEbtgxR41MWrsBWONChHLl6ixJfaKxhI72KKxG3vBEiX2EnuJXRGxYexGFEW/5x2+Od/ec0/Ze+/unpnZ3zwPD5d798z8/793LrvvTvOWAAbdW2kIDAIQgEBLCWDQ6+Nn9LylXZPGIVAoAQx6obhpDAIQwKDTByAAAQhAoBYBDHrtfpE8Xo3Rc353IBA/AQx6/BqTIQS8IoBB90oOgoEABCDgDQEMenspkuZ88ODBRuefUyAAgbgJYNDj1pfsIOAdAQy6d5IQEAQgAAEvCGDQ28qAOfeiWxIEBAongEEvHDkNQqDcBDDo5daf7CEAAQjUI5C1QZfBnW666cwKK6wQHPTkmnNGzoOTj4Ah0CUCGPQu4ePDEIBARwlg0DtKjOshAAEIlINAFgZdplzm9ssvvzSvvvqqOeyww8ymm24aDEAXv/5WwZwHIx2BQiAzAhj0zFBSEQQgkIYABj0NJa6BAAQgUD4CnTXo1aY2Se7SSy81gwYN8h5mrRzYEM572QgQArkQwKDngpVKIQCBegQw6PQNCEAAAhCoRSCtQXejyxopd1/37t3bjponi6a3P/7443aau6+lljFn1NxXtYgLAsUQwKAXw5lWIACB/yOAQacrQAACEIBARw26jGzyTxqCs8wyi7n33nvTXFroNfVG/GXMNWquvykQgEB5CWDQy6s9mUOgJQQw6C3BTqMQgAAEvCdQPYJevZ68owkss8wy5qKLLuroxzK/vtnLBYx55sipEAJBE8CgBy0fwUMgPAIY9PA0I2IIQAACRRCoNcU9uZt5R2PYZJNNzBFHHNHRj3Xp+uT0e1Xk/l1dKaa8S5j5MASiJoBBj1pekoOAfwQw6P5pQkQQgAAEfCBQbw16V0x69XTxWtPHOzql3JnupPmuZ8QdV7WR/OMDb2KAAAT8JIBB91MXooJAtAQw6NFKS2IQgAAEukSg0SZxMsAjRozoUv1FfdgZfq0nV+noC4Ci4qQdCEDATwIYdD91ISoIREsAgx6ttCQGAQhAoEsE0uzinnY0XTu3n3feeTaeWqPbHR39rpWYM97Vf3cJAh+GAARKTwCDXvouAAAIFEsAg14sb1qDAAQgEAqBNAZduaQx6b7u4B6KFsQJAQi0jgAGvXXsaRkCpSSAQS+l7CQNAQhAoCmBtAbdVaQp7/XWfvuyg3vTpLkAAhCAQBUBDDpdAgIQKJQABr1Q3DQGAQhAIBgCHTXoSqzeaHordnAPBjSBQgACXhPAoHstD8FBID4CGPT4NCUjCEAAAlkQ6IxBr2fS99tvP7P99ttnERZ1QAACECiUAAa9UNw0BgEIYNDpAxCAAAQgUItAZw26qys5mn7ppZeaQYMGARoCEIBAcAQw6MFJRsAQCJsABj1s/YgeAhCAQF4EumrQFdcrr7xiLr74YnPiiSfmFSb1QgACEMiVAAY9V7xUDgEIVBPAoNMnIAABCECgFoEsDDpkIQABCIROAIMeuoLED4HACGDQAxOMcCEAAQgURACDXhBomoEABLwmgEH3Wh6Cg0B8BDDo8WlKRhCAAASyIIBBz4IidUAAAqETwKCHriDxQyAwAhj0wAQjXAhAAAIFEcCgFwSaZiAAAa8JYNC9lofgIBAfAQx6fJqSEQQgAIEsCGDQs6BIHRCAQOgEMOihK0j8EAiMAAY9MMEIFwIQgEBBBDDoBYGmGQhAwGsCGHSv5SE4CMRHAIMen6ZkBAEIQCALAhj0LChSBwQgEDoBDHroChI/BAIjgEEPTDDChQAEIFAQAQx6QaBpBgIQ8JoABt1reQgOAvERwKDHpykZQQACEMiCAAY9C4rUAQEIhE4Agx66gsQPgcAIYNADE4xwIQABCBREAINeEGiagQAEvCaAQfdaHoKDQHwEMOjxaUpGEIAABLIggEHPgiJ1QAACoRPAoIeuIPFDIDACGPTABCNcCEAAAgURwKAXBJpmIAABrwlg0L2Wh+AgEB8BDHp8mpIRBCAAgSwIYNCzoEgdEIBA6AQw6KErSPwQCIwABj0wwQgXAhCAQEEEMOgFgaYZCEDAawIYdK/lITgIxEcAgx6fpmQEAQhAIAsCGPQsKFIHBCAQOgEMeugKEj8EAiOAQQ9MMMKFAAQgUBABDHpBoGkGAhDwmgAG3Wt5CA4C8RHAoMenKRlBAAIQyIIABj0LitQBAQiETgCDHrqCxA+BwAhg0AMTjHAhAAEIFEQAg14QaJqBAAS8JoBB91oegoNAfAQw6PFpSkYQgAAEsiCAQc+CInVAAAKhE8Cgh64g8UMgMAIY9MAEI1wIQAACBRHAoBcEmmYgAAGvCWDQvZaH4CAQHwEMenyakhEEIACBLAhg0LOgSB0QgEDoBDDooStI/BAIjAAGPTDBCBcCEIBAQQQw6AWBphkIQMBrAhh0r+UhOAjERwCDHp+mZAQBCEAgCwIY9CwoUgcEIBA6AQx66AoSPwQCI4BBD0wwwoUABCBQEAEMekGgaQYCEPCaAAbda3kIDgLxEcCgx6cpGUEAAhDIggAGPQuK1AEBCIROAIMeuoLED4HACGDQAxOMcCEAAQgURACDXhBomoEABLwmgEH3Wh6Cg0B8BDDo8WlKRhCAAASyIIBBz4IidUAAAqETwKCHriDxQyAwAhj0wAQjXAhAAAIFEcCgFwSaZiAAAa8JYNC9lofgIBAfAQx6fJqSEQQgAIEsCGDQs6BIHRCAQOgEMOihK0j8EAiMAAY9MMEIFwIQgEBBBDDoBYGmGQhAwGsCGHSv5SE4CMRHAIMen6ZkBAEIQCALAhj0LChSBwQgEDoBDHroChI/BAIjgEEPTDDChQAEIFAQAQx6QaBpBgIQ8JoABt1reQgOAvERwKDHpykZQQACEMiCAAY9C4rUAQEIhE4Agx66gsQPgcAIYNADE4xwIQABCBREAINeEGiagQAEvCaAQfdaHoKDQHwEMOjxaUpGEIAABLIggEHPgiJ1QAACoRPAoIeuIPFDIDACGPTABCNcCEAAAgURwKAXBJpmIAABrwlg0L2Wh+AgEB8BDHp8mpIRBCAAgSwIYNCzoEgdEIBA6AQw6KErSPwQCIwABj0wwQgXAhCAQEEEMOgFgaYZCEDAawIYdK/lITgIxEcAgx6fpmQEgbwJfPfdd+b77783PXr0MNNPP33ezZWi/qeeesp88MEHZs455zQrrbSSFznXM+hvv/22efHFF81MM81k1l133dSx3n///earr74yCy64oBk0aFDqz+V14bfffmvuueceW/2QIUPM3HPPnVdTudT7zTffmNdff9289957ZsCAAWahhRYyP/nJT+q21VndcgmeSiEQEAEMekBiESoEYiCAQY9BRXKAQP4ELrroIvPXv/7VfP31120am2OOOcwKK6xgfvnLX5o111wz/0AibeFPf/qTueOOO8xqq61mzjjjDC+yrGfQb7jhBnPcccfZGJ944onUsW6xxRZmwoQJZueddzb77LNP6s/ldeEnn3xiNthgA1v96aefblZfffW8msq83ueee84ccMABRjm48oc//MFsu+22ZtKkSea3v/2t/fY555xj+vXrZ7/urG6ZB0+FEAiMAAY9MMEIFwKhE8Cgh64g8UOgGAJnnnmmueSSSxo2tvnmm5tDDz3UTDfddMUEFVErGPTixQzVoH/22WfmV7/6VeVlmV4sTJ061Rx55JGmT58+5vbbbzeHH364Baq/dS0Gvfj+RYvxEMCgx6MlmUAgCAIY9CBkIkgItJxA0qAff/zxZsYZZzSff/65efLJJ+3IryunnnoqI+mdUAuD3gloXfxIqAZ9zJgxRn9Urr32Wju1PVk+/fRT+6Lshx9+MPpdlWnHoHexs/DxUhPAoJdafpKHQPEEMOjFM6dFCIRIIGnQq6c1P/roo2bvvfe2aWmq+9FHHx1iii2NGYNePP5QDfp+++1ntJ5fI+eamp+2MMU9LSmug0BbAhh0egQEIFAoAQx6obhpDALBEmhk0JWU1vLK8Gjzr0svvbRNnh999JH517/+ZV599VW7qZw2CVt66aXbjfxpXe348ePN2muvbbp162YeeOAB88ILL5hevXqZRRdd1Ky88sp2Eyy1o5cE+lnPnj3NEkssYdZaa62aU+s1iqgN2NT2O++8Y+aZZx5blzYF0ywAlY8//tjce++99utll13WLLbYYu10evnll83zzz9v4990000rn9WF2qhLsevv2Wabzean+rU+P21JY9C1tviZZ54xr7zyivnxxx9tHssss4yZd9556zajDcT+/e9/mzfffNNoarQ+s+SSS5rFF1+8zWe0QZ04vfHGG3Yjt759+5r+cyxmFpl/Wct14PK9Ktd31ugl16DLXD799NOWvYupFnc1Wis29R8xbrScQpq99tpr5q233rKxK2fp69ZkNzLo0lLcVA6MU8cAACAASURBVJZffnkz33zzmccff9zGoj40ePDgdsxvvvlm+z1poj6gon4lngsvvLDt04899ph5//33bX2uH6bdaFH6TJw40Zx11ln2d0B7Puh3RWXjjTe2ffOWW26xfcMV/V5qMz+VNLpNnjzZ5qk+phkyCyywgBk4cKBlUF20WeS4cePs79Z///vfCpef/vSnLHNJ+4vPdUEQwKAHIRNBQiAeAhj0eLQkEwjkSaCZQZdZ0AZyMtFnn322DUVG4dZbbzVHHXVUzdB22mknM2LECLsbvMqf//xnc9VVV1kDLGPlDJL7sEyONsH6y1/+0m6zulVXXdWOJs4wwwyVtmRitC734Ycfbte+DN6xxx5rTcWUKVPMeuutZ+ust0nbnnvuaV8yyKxceeWVtj7ton3eeeeZyy67rF39M888s93Ey63/baZNM4N+5513mj/+8Y81q9HmYFtvvXWbHfVlnvSi5Nxzz635GfESR5k6bUpX/VLFfWjQ4suZ/Ucea5YdOm2jMZU0Rq9Wo86g12Ox/fbb25kY3bt3r1zSKDaZZPWZ3r17t6lSU7xPOukkc/fdd9dsShuo7b777tbk1tok7sMPP7Q81R/mn39+uzniLLPMYvbff39z3333mXXWWcecfPLJbepWX19xxRXt95Lrvl3OelmT3NDNfVif0e9Hmh3kjznmGHPTTTfVzEnGX31fLy2SZezYsWauueZKpZteQKkfvvvuu+3a0AsVTZt3cWoH/B133NG++KkuylnXUiAQCwEMeixKkgcEAiGAQQ9EKMKEQIsJNDLoGiU88MADbYTDhw+3f1Q0mufMuYyOjuTSiOcjjzxiNLqpssMOO5jf/e539mtn0F2qMkIayVX9Gj1OFjcy6EYt9TOZApkDFW2aNWzYsIqB0NR7jbRrhP66666z18hsyGzqBUFyXa822UoaJo1abrbZZvYzmr6vulRk/vUCQkVGa7nllrOmTqbImbG0a/IbGfR//OMf5uCDD7bt6IXCJptsYo21DKheZFTnrn/ren1ORew10qo8NetA/LfZZpuKZhdffLF9qeJ25NeLhwcffLCCe5NfDDNHHLt/5d9ZGHTNtFhjjTWsrnr54E4HqF4i0Sw2veTZd999K7Gpnq222qrSX6SLRn/1fZlY8TrxxBPtC5laBl25y7yrf+oly+WXX25Hu1W6YtD1eb1gUrsaUdeyEGdu9dJH7TQbSRd3zTpQ/3T1abTa9UV9Xv0zOfqf1qBrloFeSqgob71Y0ksJcdB0ehVpJj30IuCCCy6wL6dU9FJOfV/X6gVG8gVFRRi+gEDABDDoAYtH6BAIkQAGPUTViBkCxRNIGvQjjjjCTi3XlGlNuXabxOnBXqZ81llnNZrWvuWWW1pj9Itf/MI+tLuRUZlnbV7lRgNlmDWVNmnQTznlFDttXUXTbn/+859XTJym+K6yyir2Z0mTpVF8GWKV66+/3rahcthhh9lReVdkOLSOV0V/a+RWo6YbbbSR/Z4Mn4yfK868Kz+ZYhldjco7Y6iXEzK8rnzxxRd2ZoDMoEyv+DQzX/UMugyjXjrIyMrgyRjJOKnoZ3vttZd59tlnbTs33nijNVfJ2GTmDznkkDaj0pq+LN5u6rMMozTQ7AT3PeWwx257mjfeesW2pWnPLoeuGnSZVGnj6tM0d71QkPlUEW8d3adSL7aRI0dWXvIkY0v20+QLG9Wl5Q56QaEp6NV9R7MvNHtCsxTcyHsyDl3fFYOuvqlRdzfD4/vvv7czPjRjRCX54qfSkep8ob6sUe499tjD9rPqktQ/jUEXl912280u4dDLnPPPP7+ysZzqTr5oc+Z71113tder36kNl5erQ/8HUCAQCwEMeixKkgcEAiGAQQ9EKMKEQIsJNDtmTQ/qusatbda0YBlpFRliGcdkkfFy62c1dXfDDTesGHSNClZPG3fmXQZC5jtZZFK0m3zyZxo9l0GWqb366qvbrYmVAdcU+mRbMtoarVc9Mqwa7dfLBMWmFwFJQyRjrBFZjdDWmkaeNEkyOP3792+oYD2DrnX4v//97+1nZfA0qyBZkhv0ubO8HQ8x18uBavZpupKm/Y8++zJzyeXn2MtVz5xzzmm/7qpBr3UOenKWQrONBhWbjK07L97FpmnXQ4cOtTGm2UCtegRdLy6clrVGgbti0GvlnHzxVGvafD2dsjbo2j/hN7/5jW1O5rzWenP3+6KjFPUSQy993IsMjf5X72mQpo9xDQRCIYBBD0Up4oRAJAQw6JEISRoQyJlA0qBr/bY2hXJTdGUANU1Zo+quOMOpf2vEtFZxU7DdtHhnwmsZdNd+LYMuU3XhhRfaaema/qsRwZVWWsk2qZFBrR+vLrWm7GvjOa1PVtFUXuWZNNrJqe9uzb2mnGvqfHXRqLAbET7nnHMq8dSTqZ5Bv+KKKyqzAmTWk4xVV/JFhxvJd7Ftt912dh18miKzqCO7pEn12n99Xi9M3HTqPAy62nAvPar1TxubNrjTLAAVrUHXkopGJWnQ9VLATR1XP9LShepZD1kbdMXmXgrpRdI111yTRio7GyTLEfSknpq1os3sqot+DzQbRpvs6XdNM2e0FMAVvYAQ+zRr6VMlyUUQ8IgABt0jMQgFAmUggEEvg8rkCIGuE6hlaC+55BI7aq7ipoq7ljTlu9YGUrUicZ/trEF3U9CdQU8aL430aap9dUkaX42aa9q4NvrStRMmTLB/67NupFBr3t2U+WT9achqAzat321U6hl0TdlXrCrVx9u5+tzGYFrPr5FOt/GZNo9zhrVR29JJLyaSm5jpxUNys7BkDnkZdK0N//vf/94m147Eph3FlbNKmlHdRjoWMYKuONPoW61d1gY9GUOz/pxcRqL15lo+4vYP0Gerl5M0q4+fQyAEAhj0EFQiRghERACDHpGYpAKBHAnUMujaKfzXv/51xYhrw7YBAwbYKGQWtWmUjKlGMxsVTY/X+vSsDLpG99369eoXBy6O5CZXGh106+NlEGUUVZSP24X9oosuqqxd/vLLLytTzbV+XX/qFY3Camp4Z9ega5mAlguoaBf56mPFpIF2ZFfR1HYZcjdyXL2WvlaMmi6uI7pkVjUTQsZUn1e8D93zgvmfg3axHyvCoKttjWK7WRKNYtPyBS1jSMamje3choNuBkSjfldt0LXWXzvAy+iLhV5E9OnTp1JFHiPo2kRRSyD0O3DXXXel+g3O2qAnf7e1L0TyJITqgHTMYXLXfM3g0MwLd3KDrtfvg9vjIVVCXAQBzwlg0D0XiPAgEBsBDHpsipIPBPIhUG8Xd21QpmnkKsl1v9r0SgZXxkPT3xudV+0izsqgq75m07ydGXSj7i6G5JRxTTvWCG6tKffu3HdtwqZN87pa6o2gyzBpjb6KDFz12epvv/12ZYaAW8vfkdj++c9/VqbBa023Nkpz5eF7XzT7HrhzYQbdbTymlyvaJLBRbNqpXFP4kwZdMx/cLv7SRNqkNeia4q5d+bU0QXsOqGhzQx3F54oz6DrebfTo0W2qbnbMWq016KrAre2uVWe92LM26Hopot8HFb2UcLvWd6RPv/fee3YTPXeqQPKlV0fq4VoI+EgAg+6jKsQEgYgJYNAjFpfUIJAhgUbHrB133HH2wV7FHWGl9bRu5FyjhG6H9EYhZWnQNZKqEVWNhGpddfJsbY2Srr/++jYUrY93I+YuNm3Gpo3lXKm1w7ZbO6xr3C70XcHtXmgoXk25n3HGGW11L774opG5U6neLV7fS+qi89l1ZJczkmkMV1InjRwnR0fvGfuEOeiwaWvytZxhySWXtF8nDZ02a1t00UVTpe7OBK9lVjXbQrMuVHQW+i677GLXZLs+VB2bdguXoU/Gpp3RNfrvzi+XhrXWU7tg652DnpxFkXxpkZyCr+ndGk12JbmZX61z0Gvl/NRTT1WOJKw+Lq4R0M4a9Hq6JWcjpH3hpBcSKskXb8nd3jVDRUevUSAQAwEMegwqkgMEAiKAQQ9ILEKFQAsJNDLon3/+uR2tlDHSCK8Mjo4i0xRkjWqqyLRoRFJGWaPUGhnWlO3TTjut8pCfpUFPGji1qyO3ZH5lyrROWSP/KrXWKmvU3B2bVsvg63PJkWut19aIrQyJpobryDZNidfUdu38nqZo92w3KqtN89T+bLPNZj+qqeoakVQsYqQN8LQRnnYvdyOfyV3Ak6PLmiGgkWGN0Grq8jvvvGPb0ewA7dxdfVyczhBXDnoxsO8+vzOff/GpjcG9eNHX2jHfHe+ldmWodWxbs+IMutrWWuWlllrKyFSrvhNOOMGuea93XJxeTiRj0872bs18Mrbk+njtsK/PLbjggpaX+oTWW+vljY5xq2fQda1eEGizPPHTCxhtzpd8YaCXCVreoWPpdK68+pcrtQy6ZmFoDwNN39fUfb08ki5u/XZyl/xmHDtr0BvpptkX7thDvSxQ/tqXQbEqP/VPvaxwMzh0MoP2fpD24qw89KLObfyoI//mnXfeZqnwcwgEQQCDHoRMBAmBeAhg0OPRkkwgkCeBRgZd7SZH59wGazI42nwsuYmUTGby3zJMmo6ukqVBV33VI+EyWzpP3BWZEBmMWkU7v+sFgtthvtY1Mm4ylslSnZ+m9yfXMdfTKDmKqWuSU55rbZSWbEemSTtrJ6cma9d1HbtWLzZ9XlPmNQKafJGi7/fq1asNJ9WhvQRk0vTiRbuqS+MkSx0512jtsupwBt3FVM1K30/2Bx2b1tHYZK71AkYj3PWKW4pRz6Drc0k93Oi2XixpKnyy/9bKpZZBb5Szji3T8WVpS2cNeiPddO69fh/cCzXFUq2PXki4I//EWLMaahXtg+A260ubE9dBwGcCGHSf1SE2CERIAIMeoaikBIEcCDQz6JryOnLkSGtqVdyxXDJxMsrVD/MaUZTZkdGT6VORodTndLyZNvlKFneUmqZwayp3ssic6ufV68l1jV4caKO1pJnUiLdGpX/2s5/VJeV2BB87dqyZa6656l6nUdlRo0bZDfGSJkzTwTUKXn1ueSNpNCqptdcaSV555ZXbbLyltdEaKa7mqPXmGiV2o+3J+nUUll56JGPTz2W2ZbY0vV+mWmeQa0Rbubiia4bv9Afz/vuTzKi/HGS/rc3AFlpoIfu1jjTT9HONyqqkNegyudpETDMMkkZXo7AHH3xwu5H4erFpzf5//vMfq2N1bOqLGg3WCG9Sd10nPdS+zvpOGnT1kVVWWaWNPMk+75YxaHaCliMkj6JTnTKubkPB5JIO91LCnUWfzFm/AzKyOrqsI8XVqVkMtWZoPP744/Z3UUVnlc8+++yV6hvp9s0339iXMNI5GadG/ddYYw27BMH9Luj3SpsXVp/UoNj00kuj7xQIxEIAgx6LkuQBgUAIYNADEYowIRA4galTp1ojqLXV/fv3b7qredbpaud1rT3XaHZy7XC9dhTv+PHjzSKLLJIqFJkb5SejrKntnS0yl4pTpXpDOH1PI8Tvv/++5Siz1Gx3eH1GI9GKTdOx9ZnkevxknB999JERJ01N1jUTX5tsJn811Xw75Rvzk7m/tOa5uj1dr13z+/Xr1zRlmUONzvft29ceaffBBx/YEXzF1Gz0vTo215i4i0et2HSNRobVjkyqtE/Dq2ki/1evzL/Maz2eqie57l7GVZ8RL8c4TVt5XNNIN2mTNk7V89lnn9kQpWsjFnnkQZ0QKIIABr0IyrQBAQhUCGDQ6QwQgAAEIFCLgDPo+tnA5XsBqRMEGm2M14nq+AgEINACAhj0FkCnSQiUmQAGvczqkzsEIACB+gQw6F3vHRj0rjOkBgi0mgAGvdUK0D4ESkYAg14ywUkXAhCAQEoCGPSUoBpchkHvOkNqgECrCWDQW60A7UOgZAQw6CUTnHQhAAEIpCSAQU8JqsFl2lBOa+R1DKE2RaRAAALhEcCgh6cZEUMgaAIY9KDlI3gIQAACuRHAoOeGloohAIGACGDQAxKLUCEQAwEMegwqkgMEIACB7Alg0LNnSo0QgEB4BDDo4WlGxBAImgAGPWj5CB4CEIBAbgQw6LmhpWIIQCAgAhj0gMQiVAjEQACDHoOK5AABCEAgewIY9OyZUiMEIBAeAQx6eJoRMQSCJoBBD1o+gocABCCQGwEMem5oqRgCEAiIAAY9ILEIFQIxEMCgx6AiOUAAAhDIngAGPXum1AgBCIRHAIMenmZEDIGgCWDQg5aP4CEAAQjkRgCDnhtaKoYABAIigEEPSCxChUAMBDDoMahIDhCAAASyJ4BBz54pNUIAAuERwKCHpxkRQyBoAhj0oOUjeAhAAAK5EcCg54aWiiEAgYAIYNADEotQIRADAQx6DCqSAwQgAIHsCWDQs2dKjRCAQHgEMOjhaUbEEAiaAAY9aPkIHgIQgEBuBPI26E8++WS72Ku/p38PHjy4YY7Jnze7NjdYVAwBCERLAIMerbQkBgE/CWDQ/dSFqCAAAQi0mkBXDLoz2vX+zjs3GfVq4455z5s69UMgTgIY9Dh1JSsIeEsAg+6tNAQGAQhAoKUE0hh0GXD3R8HWGhVPk0Q981z9/Xr1d6Td4cOH25Dc32ni4xoIQKC8BDDo5dWezCHQEgIY9JZgp1EIQAAC3hNoZtBlikeMGNEwD2ewa41o5wUg+cLAvTRoZOAx7HkpQb0QiIMABj0OHckCAsEQwKAHIxWBQgACECiUQDODrmCcQS/SgHcFwpgxY+zH3d/VdcmsM7LeFcJ8FgLxEcCgx6cpGUHAawIYdK/lITgIQAACLSOQxqC3LLiMGq5n2BlVzwgw1UAgAgIY9AhEJAUIhEQAgx6SWsQKAQhAoDgCZTDoSZqNzDqj6sX1O1qCgG8EMOi+KUI8EIicAAY9coFJDwIQgEAnCZTNoDtMbg17cho8U9872Yn4GAQiIIBBj0BEUoBASAQw6CGpRawQgAAEiiNQVoNePaqOUS+uz9ESBHwkgEH3URVigkDEBDDoEYtLahCAAAS6QACDPg2eDDomvQsdiY9CIHACGPTABSR8CIRGAIMemmLECwEIQKAYAhj0tpyTRp0p78X0QVqBgA8EMOg+qEAMECgRAQx6icQmVQhAAAIdIIBBbw8Lk96BDsSlEIiEAAY9EiFJAwKhEMCgh6IUcUIAAhAolgAGvTbvpEkfPXq00RnwFAhAIF4CGPR4tSUzCHhJAIPupSwEBQEIQKDlBDDo9SVwJl3mXCadAgEIxEsAgx6vtmQGAS8JYNC9lIWgIAABCLScAAa9sQRDhgyxFzCK3vKuSgAQyJUABj1XvFQOAQhUE8Cg0ycgAAEIQKAWAQx6434xYsQIozPTGUXn9wcCcRPAoMetL9lBwDsCGHTvJCEgCEAAAl4QwKA3lkHmXCZd5YknnvBCM4KAAASyJ4BBz54pNUIAAg0IYNDpHhCAAAQgUIsABr15v3DT3DHozVlxBQRCJYBBD1U54oZAoAQw6IEKR9gQgAAEciaAQW8OGIPenBFXQCB0Ahj00BUkfggERgCDHphghAsBCECgIAIY9OagMejNGXEFBEIngEEPXUHih0BgBDDogQlGuBCAAAQKIoBBbwyaNegFdUSagUCLCWDQWywAzUOgbAQw6GVTnHwhAAEIpCOAQW/MyZ2FPnz4cKM/FAhAIE4CGPQ4dSUrCHhLAIPurTQEBgEIQKClBDDo9fE7c64rMOgt7aY0DoHcCWDQc0dMAxCAQJIABp3+AAEIQAACtQhg0Ov3C3cGOuac3x0IxE8Agx6/xmQIAa8IYNC9koNgIAABCHhDAINeWwpnzvVTjlfzprsSCARyI4BBzw0tFUMAArUIYNDpFxCAAAQgwAh6uj6QNOejR482gwcPTvdBroIABIIlgEEPVjoCh0CYBDDoYepG1BCAAATyJpDHCPq7775r5plnnrxDz7x+7diudef6WwVznjliKoSAtwQw6N5KQ2AQiJMABj1OXckKAhCAQFcJZGXQk+b2yCOPNBtvvHFXQyv088lRc8x5oehpDAJeEMCgeyEDQUCgPAQw6OXRmkwhAAEIdIRAZw26G2VOjji7dkMaeU7u1K74NZ1dm8Ixrb0jvYhrIRA+AQx6+BqSAQSCIoBBD0ougoUABCBQGIGOGPRGpjwZ8EMPPWR69OhRWA4dbciN9utzLieMeUcpcj0E4iKAQY9LT7KBgPcEMOjeS0SAEIAABFpCoJlBr2VmGwU688wzm/vvv78luTRrtHqNubueY9SakePnEIifAAY9fo3JEAJeEcCgeyUHwUAAAhDwhkAtg17PyKYJer755jM33HBDmktzv6bRiD8j5rnjpwEIBEUAgx6UXAQLgfAJYNDD15AMIAABCORBoNqgV6/J7mib66+/vjnhhBM6+rFMrpchT/6pVSnGPBPUVAKB6Ahg0KOTlIQg4DcBDLrf+hAdBCAAgVYRqDfFvbNGXSPoG264YZt0qjdc68wGbG40XBU7E+4aSf6smqNri43fWtXDaBcCYRDAoIehE1FCIBoCGPRopCQRCEAAApkSaLQGvbMmPdMAO1iZDHnyTwc/zuUQgEBJCWDQSyo8aUOgVQQw6K0iT7sQgAAE/CaQdpO4RqPUyQx/85vfmBlnnLGyO7r7WdrPN6PlRsTr/d3s8/wcAhCAQC0CGHT6BQQgUCgBDHqhuGkMAhCAQDAEmhl0l0ia0fSO7OCexrB3Zip8MOAJFAIQ8IoABt0rOQgGAvETwKDHrzEZQgACEOgMgbQGXXU3M+k+7eDeGRZ8BgIQKC8BDHp5tSdzCLSEAAa9JdhpFAIQgID3BDpi0F0yI0aMaDeFXT9r5Q7u3oMmQAhAwGsCGHSv5SE4CMRHAIMen6ZkBAEIQCALAp0x6Gq31mj6AQccYLbbbrsswqIOCEAAAoUSwKAXipvGIAABDDp9AAIQgAAEahHorEGvZdJHjx5td1CnQAACEAiNAAY9NMWIFwKBE8CgBy4g4UMAAhDIiUBXDLoLady4ceaUU04x1113nenRo0dOkVItBCAAgfwIYNDzY0vNEIBADQIYdLoFBCAAAQjUIpCFQYcsBCAAgdAJYNBDV5D4IRAYAQx6YIIRLgQgAIGCCGDQCwJNMxCAgNcEMOhey0NwEIiPAAY9Pk3JCAIQgEAWBDDoWVCkDghAIHQCGPTQFSR+CARGAIMemGCECwEIQKAgAhj0gkDTDAQg4DUBDLrX8hAcBOIjgEGPT1MyggAEIJAFAQx6FhSpAwIQCJ0ABj10BYkfAoERwKAHJhjhQgACECiIAAa9INA0AwEIeE0Ag+61PAQHgfgIYNDj05SMIAABCGRBAIOeBUXqgAAEQieAQQ9dQeKHQGAEMOiBCUa4EIAABAoigEEvCDTNQAACXhPAoHstD8FBID4CGPT4NCUjCEAAAlkQwKBnQZE6IACB0Alg0ENXkPghEBgBDHpgghEuBCAAgYIIYNALAk0zEICA1wQw6F7LQ3AQiI8ABj0+TckIAhCAQBYEMOhZUKQOCEAgdAIY9NAVJH4IBEYAgx6YYIQLAQhAoCACGPSCQNMMBCDgNQEMutfyEBwE4iOAQY9PUzKCAAQgkAUBDHoWFKkDAhAInQAGPXQFiR8CgRHAoAcmGOFCAAIQKIgABr0g0DQDAQh4TQCD7rU8BAeB+Ahg0OPTlIwgAAEIZEEAg54FReqAAARCJ4BBD11B4odAYAQw6IEJRrgQgAAECiKAQS8INM1AAAJeE8Cgey0PwUEgPgIY9Pg0JSMIQAACWRDAoGdBkTogAIHQCWDQQ1eQ+CEQGAEMemCCES4EIACBgghg0AsCTTMQgIDXBDDoXstDcBCIjwAGPT5NyQgCEIBAFgQw6FlQpA4IQCB0Ahj00BUkfggERgCDHphghAsBCECgIAIY9IJA0wwEIOA1AQy61/IQHATiI4BBj09TMoIABCCQBQEMehYUqQMCEAidAAY9dAWJHwKBEcCgByYY4UIAAhAoiAAGvSDQNAMBCHhNAIPutTwEB4H4CGDQ49OUjCAAAQhkQQCDngVF6oAABEIngEEPXUHih0BgBDDogQlGuBCAAAQKIoBBLwg0zUAAAl4TwKB7LQ/BQSA+Ahj0+DQlIwhAAAJZEMCgZ0GROiAAgdAJYNBDV5D4IRAYAQx6YIIRLgQgAIGCCGDQCwJNMxCAgNcEMOhey0NwEIiPAAY9Pk3JCAIQgEAWBDDoWVCkDghAIHQCGPTQFSR+CARGAIMemGCECwEIQKAgAhj0gkDTDAQg4DUBDLrX8hAcBOIjgEGPT1MyggAEIJAFAQx6FhSpAwIQCJ0ABj10BYkfAoERwKAHJhjhQgACECiIAAa9INA0AwEIeE0Ag+61PAQHgfgIYNDj05SMIAABCGRBAIOeBUXqgAAEQieAQQ9dQeKHQGAEMOiBCUa4EIAABAoigEEvCDTNQAACXhPAoHstD8FBID4CGPT4NCUjCEAAAlkQwKBnQZE6IACB0Alg0ENXkPghEBgBDHpgghEuBCAAgYIIYNALAk0zEICA1wQw6F7LQ3AQiI8ABj0+TckIAhCAQBYEMOhZUKQOCEAgdAIY9NAVJH4IBEYAgx6YYIQLAQhAoCACGPSCQNMMBCDgNQEMutfyEBwE4iOAQY9PUzKCAAQgkAUBDHoWFKkDAhAInQAGPXQFiR8CgRHAoAcmGOFCAAIQKIgABr0g0DQDAQh4TQCD7rU8BAeB+Ahg0OPTlIwgAAEIdIXAN998Y15//XXzwlPjzay9+pp5+s1vllmtb1eq5LMQgAAEgiWAQQ9WOgKHQJgEMOhh6kbUEICA/wROPvlkM2nSJDNq1Cgz/fTT1wz4H//4hzn11FPtz2677TYz3XTT5ZqY4vntb39r2zjnnHNMv3792rT33HPPmQMOOMB88sknle/vMmxfs/f+O2UW12mnnWbuvvtus9BCC5mzzz67Zr0vv/yy2W+//ezPxOenP/1pZu1TEQQgAIGOEMCgd4QW10IAAl0mgEHvl51InQAAIABJREFUMkIqgAAEIFCTwJ/+9Cdzxx13mH322cfsvPPONa+5+eabzdFHH21/9vjjj9c18mkQy1TfeeedplevXmaTTTap+ZHbb7/dHH744fZn+vtXv/pV5brPPvvM/vvrr7+23xuywqpmyrffmz13PcSsuPb8aUJIdY3jMv/885vrr7++5mfEYuTIkfZnF198sVl66aVT1c1FEIAABLImgEHPmij1QQACDQlg0OkgEIAABPIh4Iyoav/rX/9qllpqqXYNZWnQhw0bZl577TWz/fbbV0afqxv89NNPzaGHHmp++OEHc/zxx5s+ffpULhkzZozRH5Vrr73WdPu+n5n81VT774HL98oMEgY9M5RUBAEIFEAAg14AZJqAAAT+nwAGnd4AAQhAIB8CSYM+99xzm6uvvtr07t27TWNFG/RGmWpK+f33329WX311c/rpp5u8NonDoOfT36gVAhDIhwAGPR+u1AoBCNQhgEGna0AAAhDIh0DSoKuFX/ziF+bYY4/tkEHXiPgLL7xgN22bbbbZzCKLLGKGDBliZplllko9mtr+4IMPmrPOOsuuHdd08M0339z+vFu3bmbDDTe0X99yyy3mxx9/rHxugw02MDPNNJN56qmnzMSJEyufX3PNNc3aa69tPp30nVl1hfXNO+++Zf7749v2cxtttJGZYYYZ2gF7/vnnzVtvvWWn16+77roNgXbVoI8fP96+SHj//fdtewMHDjSrrLJKGyYuAHHTunrHb8EFF7T85phjjjYxKnblIB7iojb+9a9/mTfeeMPMNddcZtttt7VtUSAAgfIRwKCXT3MyhkBLCWDQW4qfxiEAgYgJVBt0pXrEEUe0WR9ebwT9+++/N+eee6655JJL2hGSuZTRX2mllezPZOB32WWXmiRnnnlma2ZVZEyTZezYsdZ8HnPMMeamm26q+fnLRt9j3hz/ijn8hGnrwTWyrhH26uKm16+11lrmlFNOyc2gJ9fQVzdy4403mnnnndd+WzvRn3feeeayyy5rF4uYaCO85Pr7G264wRx33HH2Wm3qd9BBB1U+N8888xj9vN5GfxF3YVKDAASMMRh0ugEEIFAoAQx6obhpDAIQKBEBZ9BXW201s8wyy1jDqHLdddeZBRZYwH5dz6CfdNJJ5pprrrHXDB482KyxxhpGm7jpe24TN02Z14j6hx9+aDdbu/LKK+3PtOP50KFD7WdnnXVWuyZdRZvRaST53//+t/23M+gyn08//bSR+VVZeOGFbR1ffznV7LHDQdaYHnTMTmbChAlmvfXWMyeeeGIbFd9++22z5ZZb2u8p7rxG0D///HP7ckM5ymRvttlmNjYXtzbIc7vgH3nkkebWW2+1Ma244opmueWWs59Tzm6Heu0Or9kCKkmDrn/LlGskXayUs5uRUKLuS6oQgMD/EcCg0xUgAIFCCWDQC8VNYxCAQIkIJA26jhYbPny4efbZZ+2UbI2Md+/evaZB17RqTalW2Xjjje1u62709r333jPbbbedNZsyl+6INl2bZpO4hx9+2Oy7775tDLqTZNNNNzXvvvuu2WOPPcyIESParEF/6tXbjI6NU9ERabPPPntFyYsuusge2SbTrJ/16NGjocqdneL+6KOPmr333tvWndyBfvLkyebFF1+szBBI5njggQeabbbZphLPF198YXPT0gHNRNAu+2KbNOh6QXHBBRfUnDJfou5LqhCAAAadPgABCLSCAAa9FdRpEwIQKAOBpEE/44wzrPmVCVZxO63XGkHXtZdeemlNE61vygzLFKuMGzeusvFcngZ9zgW/M+uvv75ts9r0brHFFnZ0XX9rh/hmpbMGPfni4pe//KVdLlBrPfxee+1lHnvsMTtyrmUC1SVp4LUuv3///m0Muvhr1gMFAhCAgAgwgk4/gAAECiWAQS8UN41BAAIlIlBt0JX6bbfdZo2litZza7p19Tnobjd1bfamM8AbGcwrrrjCLLbYYvaSPA26jlk75JBD7Ai5Rpjd9HtNmdeIvoqOaFthhRWaKtxZg66KnfnW15qGv/vuu9uZBMn14fq3ZhhomvoSSyzRLp6PP/7YTulX0csOreVPjqAnX3o0TYYLIACB6Alg0KOXmAQh4BcBDLpfehANBCAQD4FaBl3ZOaOrKeE77rijGT16tE368ccft0ZTU7LffPNNs84661SmlSepvPTSS/ZzKsl11HkbdMU3cuS0zeL+9re/WfPrzk7XMXJa851mI7WuGPT//ve/dnr7fffdV0GikfKjjjrKKAa98NDa8bRFMxUGDRrUxqA/8cQTaT/OdRCAQAkIYNBLIDIpQsAnAhh0n9QgFghAICYC9Qy61kFvtdVWlc3KXM7OoO+00052c7LqNebuOh2LpvXsKjL32kROJW+D/sMPP9g18ZMmTbKj5vvvv7/dqC25bj2Nfo6LRrjr7R6fnIauWQSaTZAsWsuvY+XcSLhedlx++eX2KDq92FDRMgK3QV6tuPQyYc4552y3Bh2DnkZFroFAeQhg0MujNZlCwAsCGHQvZCAICEAgQgL1DLpS1Rnbe+65Z5usnUHXCLF2Jp9//vnt7uzVRaZWR6OpuDXUSYOuEXitE69VOrtJnKa4q1x44YV2XbcM8Zlnnml22203+31NedfU9zRFG+bJTKvo/HadPV5dtCO9O67tqquuMosuumi7a/TCQDvZu+u0+Z1ebmgEXSPp2vHdLSdoFldyijsGvRktfg6BchHAoJdLb7KFQMsJYNBbLgEBQAACkRJoZNCVcnIzOP3bGXSd3a316SoysosvvngbQjvssIN5+eWXrUnWemm3UZobedc55e7z1Wi7atDff//9yjnu2gVdRlhrwWudN15P1uQLhn322cfsvPPObS7VGebaxV4j8yra8M3lKFNePY3eGXK3KZxeTtx77732s8kj7Rp1Mwx6pL+EpAWBDAhg0DOASBUQgEB6Ahj09Ky4EgIQgEBHCDQz6FOmTLHmVEd+JQ261llvuOGGdqMzHcmmEeIBAwYYXS9TrxFllerd1LUOWyPqKqNGjbJnp3/11Vf2c/369bPf76pBVx3JjdpqxdGMUdLk69pdd93VbLTRRvZYM+3UrpF5d1a7dr0/7LDDKlXqJYQ2ddN0fr0geOaZZ+yxcCru2uS57JpGr1F0nYMuY68z47UDvqa2u8/psxj0ZqrxcwiUlwAGvbzakzkEWkIAg94S7DQKAQiUgEAzgy4E2gzOndPtRtD1/bvuuqvNkWUaLZdhd2XZZZc15513nunWrVvle88//7w1u9UlOeU9C4M+duzYNqb5zjvvNH369OmQopq6f/zxxzf8jMy1ZhD06jVtev2rr77acE25NqlzLyI0cn7CCSe0qb+aYTJuDHqH5ONiCJSKAAa9VHKTLARaTwCD3noNiAACEIiTgFtLXm+zN5e11m+fdNJJlSnu7vsaRT7xxBMro8n6vkymprhr7XetM8C1dl3tJstaa61VWaed3IldR6bNPvvslUvdeeYjRoywo8sTX5tsJn811f7crUHX1++8847ZfPPN7fcbTadvpqrWemsqvqbrVxdtgqc8la8r2pxOm+JVbywnI68N68Q5WfTCQjMJkvWrviWXXNK+FHGbyekzyfPoWYPeTDl+DoFyEcCgl0tvsoVAywlg0FsuAQFAAAIlJ/Djjz9aE1nrzG6h0RR1mVNtpqap2c3Kd999Z0109+7d7dFj+rszpZ5B//bbb83QoUNtlRoF78ixZrXi0MyA9957z84Q0Ai421m9XsxTp041H330kVEcmhavndunm266uilqTfvEiRPtdWn4dYYVn4EABOIlgEGPV1syg4CXBDDoXspCUBCAAARaTqCeQU9uYldvF/aWB08AEIAABDIigEHPCCTVQAAC6Qhg0NNx4ioIQAACZSOQNOhzzP+tGTNmjN01Xju3q+iYOHfMWtnYkC8EIFAeAhj08mhNphDwggAG3QsZCAICEICAdwSSBv27HhPsGeOuaI261qpTIAABCMROAIMeu8LkBwHPCGDQPROEcCAAAQh4QiBp0Hv1+9JccMEFZsiQIWaFFVYwffv29SRKwoAABCCQLwEMer58qR0CEKgigEGnS0AAAhCAQC0C9dagQwsCEIBAmQhg0MukNrlCwAMCGHQPRCAECEAAAh4SwKB7KAohQQAChRPAoBeOnAYhUG4CGPRy60/2EIAABOoRwKDTNyAAAQgYg0GnF0AAAoUSwKAXipvGIAABCARDAIMejFQECgEI5EgAg54jXKqGAATaE8Cg0ysgAAEIQKAWAQw6/QICEIAAI+j0AQhAoGACGPSCgdMcBCAAgUAIYNADEYowIQCBXAkwgp4rXiqHAASqCWDQ6RMQgAAEIMAIOn0AAhCAQG0CGHR6BgQgUCgBDHqhuGkMAhCAQDAEGEEPRioChQAEciSAQc8RLlVDAALtCWDQ6RUQgAAEIMAIOn0AAhCAACPo9AEIQMADAhh0D0QgBAhAAAIeEmAE3UNRCAkCECicACPohSOnQQiUmwAGvdz6kz0EIACBegRaYdCffPLJDgkyePDgDl3PxRCAAAQ6SgCD3lFiXA8BCHSJAAa9S/j4MAQgAIFoCWRh0J3hrv5b0DpqxtOAdoY9+TcmPg05roEABOoRwKDTNyAAgUIJYNALxU1jEIAABIIhkMagJ022vq5lxDubcLWxzsLQDx8+3Ibj/u5sbHwOAhAoDwEMenm0JlMIeEEAg+6FDAQBAQhAwDsCzQy6DPOIESOaxp002vq63oh2V0a6643QNzP1GPam8nEBBEpPAINe+i4AAAgUSwCDXixvWoMABCAQCoFmBl15DBkyxKZTb0p5V0x3lpySo/tjxoypWTVmPUvi1AWBeAhg0OPRkkwgEAQBDHoQMhEkBCAAgcIJpDHohQeVYYPOqNcy7DLrTIPPEDZVQSBgAhj0gMUjdAiESACDHqJqxAwBCEAgfwKxG/QkQTfCXm3WMer59zNagIDvBDDovitEfBCIjAAGPTJBSQcCEIBARgTKZNCTyGTSMeoZdSKqgUAEBDDoEYhIChAIiQAGPSS1iBUCEIBAcQTKatAdYZn05Np1RtOL63u0BAGfCGDQfVKDWCBQAgIY9BKITIoQgAAEOkGg7AY9adSTI+oY9U50Jj4CgYAJYNADFo/QIRAiAQx6iKoRMwQgAIH8CWDQ/5+xRtLdiLq+i0nPv//RAgR8IYBB90UJ4oBASQhg0EsiNGlCAAIQ6CABDHp7YMn16Zj0DnYoLodAoAQw6IEKR9gQCJUABj1U5YgbAhCAQL4EMOi1+SZN+ujRoytnwOerBrVDAAKtIoBBbxV52oVASQlg0EsqPGlDAAIQaEIAg14f0IgRI+wGcoMHDzYy6RQIQCBeAhj0eLUlMwh4SQCD7qUsBAUBCECg5QQw6PUlkDmXSVdhFL3lXZUAIJArAQx6rnipHAIQqCaAQadPQAACEIBALQIY9Mb9glF0fm8gUA4CGPRy6EyWEPCGAAbdGykIBAIQgIBXBDDojeVIjqI/8cQTXmlHMBCAQHYEMOjZsaQmCEAgBQEMegpIXAIBCECghAQw6M1FHzJkiL2Iae7NWXEFBEIlgEEPVTnihkCgBDDogQpH2BCAAARyJoBBbw7YGXRG0Juz4goIhEoAgx6qcsQNgUAJYNADFY6wIQABCORMAIPeHDAGvTkjroBA6AQw6KErSPwQCIwABj0wwQgXAhCAQEEEMOiNQbMGvaCOSDMQaDEBDHqLBaB5CJSNAAa9bIqTLwQgAIF0BDDojTmNGTPG6A9noafrT1wFgVAJYNBDVY64IRAoAQx6oMIRNgQgAIGcCWDQGwN209uHDx9u9IcCAQjESQCDHqeuZAUBbwlg0L2VhsAgAAEItJQABr0+fkbPW9o1aRwChRLAoBeKm8YgAAEMOn0AAhCAAARqEcCg1+4Xzpzrp4ye87sDgfgJYNDj15gMIeAVAQy6V3IQDAQgAAFvCGDQ20uBOfemexIIBAojgEEvDDUNQQACIoBBpx9AAAIQgAAj6M37AOa8OSOugECMBDDoMapKThDwmAAG3WNxCA0CEIBACwlkOYKuI8lkcNdbbz2z9dZbtzCrjjedPE5Nn2Zae8cZ8gkIhEwAgx6yesQOgQAJYNADFI2QIQABCBRAoCsGXaZWRabcfa1/n3baaWaNNdYoIPquN+FeKrj4dZyazLn+pkAAAuUhgEEvj9ZkCgEvCGDQvZCBICAAAQh4R6CjBt0ZWiWSNOXJxMaNG2d69+7tXa7JgKqNuX7GqLnXkhEcBHIlgEHPFS+VQwAC1QQw6PQJCEAAAhCoRSCNQXdm9ssvvzSvvvpqQ5Ddu3c3Dz/8sJewlUfyjwuSUXMv5SIoCBRKAINeKG4agwAEMOj0AQhAAAIQ6IhBrzXCnIZg3759zW233Zbm0kKuqTcNX41jzAuRgEYgEAQBDHoQMhEkBOIhgEGPR0sygQAEIJAlgeoR9OrN0jraltaeaw16q0q9UXIXD6a8VcrQLgT8JoBB91sfooNAdAQw6NFJSkIQgAAEMiFQa4p78qixjjay3HLLmZVWWqnNJmtZbriWXPfuzLiLsd6aeNc+m791VE2uh0B5CGDQy6M1mULACwIYdC9kIAgIQAAC3hFotAa9K0a9UaKdMez1zHetdlR/8o930AkIAhDwjgAG3TtJCAgCcRPAoMetL9lBAAIQ6CyBZpvEddSkL7vssmbGGWesu8N7Z+Os/lzS5Dszrms6Y/6ziol6IACBcAlg0MPVjsghECQBDHqQshE0BCAAgdwJNDPoCiDthnGNdnCvHgFvNiJez2hjwHPvEjQAgVISwKCXUnaShkDrCGDQW8eeliEAAQj4TCCNQXfxNxtN920Hd5+5ExsEIOAXAQy6X3oQDQSiJ4BBj15iEoQABCDQKQIdMehqoJFJb/UO7p0CwIcgAAEIGGMw6HQDCECgUAIY9EJx0xgEIACBYAh01KA3Gk3feeedzT777BNM7gQKAQhAwBHAoNMXIACBQglg0AvFTWMQgAAEgiHQWYOuBKtH03X+uUbRKRCAAARCI4BBD00x4oVA4AQw6IELSPgQgAAEciLQFYOukMaOHWvOOuss8+GHH5px48aZ3r175xQp1UIAAhDIjwAGPT+21AwBCNQggEGnW0AAAhCAQC0CXTXors4pU6YY7eJOgQAEIBAiAQx6iKoRMwQCJoBBD1g8QocABCCQI4GsDHqOIVI1BCAAgdwJYNBzR0wDEIBAkgAGnf4AAQhAAAK1CGDQ6RcQgAAE2MWdPgABCBRMAINeMHCagwAEIBAIAQx6IEIRJgQgkCsBRtBzxUvlEIBANQEMOn0CAhCAAAQYQacPQAACEKhNAINOz4AABAolgEEvFDeNQQACEAiGACPowUhFoBCAQI4EMOg5wqVqCECgPQEMOr0CAhCAAAQYQacPQAACEGAEnT4AAQh4QACD7oEIhAABCEDAQwKMoHsoCiFBAAKFE2AEvXDkNAiBchPAoJdbf7KHAAQgUI8ABp2+AQEIQIBd3OkDEIBAwQQw6AUDpzkIQAACgRDAoAciFGFCAAK5EmAEPVe8VA4BCFQTwKDTJyAAAQhAoBYBDDr9AgIQgAAj6PQBCECgYAIY9IKB0xwEIACBQAhg0AMRijAhAIFcCTCCniteKocABBhBpw9AAAIQgEAaAhj0NJS4BgIQiJ0ABj12hckPAp4RYATdM0EIBwIQgIAnBDDonghBGBCAQEsJYNBbip/GIVA+Ahj08mlOxhCAAATSEMCgp6HENRCAQOwEMOixK0x+EPCMAAbdM0EIBwIQgIAnBDDonghBGBCAQEsJYNBbip/GIVA+Ahj08mlOxhCAAATSEMCgp6HENRCAQOwEMOixK0x+EPCMAAbdM0EIBwIQgIAnBDDonghBGBCAQEsJYNBbip/GIVA+Ahj08mlOxhCAAATSEMCgp6HENRCAQOwEMOixK0x+EPCMAAbdM0EIBwIQgIAnBDDonghBGBCAQEsJYNBbip/GIVA+Ahj08mlOxhCAAATSEMCgp6HENRCAQOwEMOixK0x+EPCMAAbdM0EIBwIQgIAnBDDonghBGBCAQEsJYNBbip/GIVA+Ahj08mlOxhCAAATSEMCgp6HENRCAQOwEMOixK0x+EPCMAAbdM0EIBwIQgIAnBDDonghBGBCAQEsJYNBbip/GIVA+Ahj08mlOxhCAAATSEMCgp6HENRCAQOwEMOixK0x+EPCMAAbdM0EIBwIQgIAnBDDonghBGBCAQEsJYNBbip/GIVA+Ahj08mlOxhCAAATSEMCgp6HENRCAQOwEMOixK0x+EPCMAAbdM0EIBwIQgIAnBDDonghBGBCAQEsJYNBbip/GIVA+Ahj08mlOxhCAAATSEMCgp6HENRCAQOwEMOixK0x+EPCMAAbdM0EIBwIQgIAnBDDonghBGBCAQEsJYNBbip/GIVA+Ahj08mlOxhCAAATSEMCgp6HENRCAQOwEMOixK0x+EPCMAAbdM0EIBwIQgIAnBDDonghBGBCAQEsJYNBbip/GIVA+Ahj08mlOxhCAAATSEMCgp6HENRCAQOwEMOixK0x+EPCMAAbdM0EIBwIQgIAnBDDonghBGBCAQEsJYNBbip/GsyQw+aup5uP3pxj9TYEABLpOYPa+3c300xszR7/uXa+MGiDQQgLcH1oIn6ajJMD9IUpZScoTAhh0T4QgjK4RkDH/5IMppttMM5gZe8xg/6ZAAAKdJ/DdN1PN999ONfpbD2JzDsCkd54mn2wlAe4PraRP2zES4P4Qo6rk5BMBDLpPahBLpwjImOsBrOes3e0fCgQgkB2ByZ9PMfrTp393RtKzw0pNBRHg/lAQaJopJQHuD6WUnaQLIIBBLwAyTeRL4KN3p5j/fjHV9J67Z74NUTsESkrgy0mTzQwzGDPfYvyOlbQLBJv2f96bYr76nPtDsAISuPcEuD94LxEBBkgAgx6gaITcloA2HWP0nF4BgfwIaKr7Fx9ONgOX75VfI9QMgRwIcH/IASpVQiBBgPsD3QEC2RPAoGfPlBoLJsADWMHAaa50BNwD2LwDe5qevdjfoXQdIOCEuT8ELB6hB0GA+0MQMhFkYAQw6IEJRrjtCfAARq+AQL4EeADLly+150eA+0N+bKkZAiLA/YF+AIHsCWDQs2dKjQUT4AGsYOA0VzoCPICVTvJoEub+EI2UJOIpAe4PngpDWEETwKAHLR/BiwAPYPQDCORLgAewfPlSe34EuD/kx5aaIcAIOn0AAvkQwKDnw5VaCyTAA1iBsGmqlAQw6KWUPYqkuT9EISNJeEyA+4PH4hBasAQw6MFKR+COAA9g9AUI5EuAB7B8+VJ7fgS4P+THlpohwAg6fQAC+RDAoOfDlVoLJMADWIGwaaqUBDDopZQ9iqS5P0QhI0l4TID7g8fiEFqwBDDowUpH4Iyg0wcgUAwBHsCK4Uwr2RPAoGfPlBohkCTA/YH+AIHsCWDQs2dKjQUT4AGsYOA0VzoCPICVTvJoEub+EI2UJOIpAe4PngpDWEETwKAHLR/BiwAPYPQDCORLgAewfPlSe34EuD/kx5aaISAC3B/oBxDIngAGPXum1FgwAR7ACgZOc6UjwANY6SSPJmHuD9FISSKeEuD+4KkwhBU0AQx60PIRPCPo9AEI5E+AB7D8GdNCPgQw6PlwpVYIOALcH+gLEMieAAY9e6bUWDABHsAKBk5zpSPAA1jpJI8mYe4P0UhJIp4S4P7gqTCEFTQBDHrQ8hE8I+j0AQjkT4AHsPwZ00I+BDDo+XClVggwgk4fgEB+BDDo+bGl5oII8ABWEGiaKS0BDHpppQ8+ce4PwUtIAp4T4P7guUCEFyQBDHqQshF0kgAPYPQHCORLgAewfPlSe34EuD/kx5aaISAC3B/oBxDIngAGPXum1FgwAR7ACgZOc6UjwANY6SSPJmHuD9FISSKeEuD+4KkwhBU0AQx60PIRvAjwAEY/gEC+BHgAy5cvtedHgPtDfmypGQKMoNMHIJAPAQx6PlyptUACPIAVCJumSkkAg15K2aNImvtDFDKShMcEuD94LA6hBUsAgx6sdATuCPAARl+AQL4EeADLly+150eA+0N+bKkZAoyg0wcgkA8BDHo+XKm1QAI8gBUIm6ZKSQCDXkrZo0ia+0MUMpKExwS4P3gsDqEFSwCDHqx0BM4IOn0AAsUQ4AGsGM60kj0BDHr2TKkRAkkC3B/oDxDIngAGPXum1FgwAR7ACgZOc6UjwANY6SSPJmHuD9FISSKeEuD+4KkwhBU0AQx60PIRvAjwAEY/gEC+BHgAy5cvtedHgPtDfmypGQIiwP2BfgCB7Alg0LNnSo0FE+ABrGDgNFc6AjyAlU7yaBLm/hCNlCTiKQHuD54KQ1hBE8CgBy0fwTOCTh+AQP4EeADLnzEt5EMAg54PV2qFgCPA/YG+AIHsCWDQs2dKjQUT4AGsYOA0VzoCPICVTvJoEub+EI2UJOIpAe4PngpDWEETwKAHLR/BM4JOH4BA/gR4AMufMS3kQwCDng9XaoUAI+j0AQjkRwCDnh9bai6IAA9gBYGmmdISwKCXVvrgE+f+ELyEJOA5Ae4PngtEeEESwKAHKRtBJwnwAEZ/gEC+BHgAy5cvtedHgPtDfmypGQIiwP2BfgCB7Alg0LNnSo0FE+ABrGDgNFc6AjyAlU7yaBLm/hCNlCTiKQHuD54KQ1hBE8CgBy0fwYsAD2D0AwjkS4AHsHz5Unt+BLg/5MeWmiHACDp9AAL5EMCg58OVWgskwANYgbBpqpQEMOillD2KpLk/RCEjSXhMgPuDx+IQWrAEMOjBSkfgjgAPYPQFCORLgAewfPlSe34EuD/kx5aaIcAIOn0AAvkQwKDnw5VaCyRQtgewzz771Hz66cdm9tn7mNlmm70d6Uceud9MnDjBzD13P7PWWusVqETzpr766kt5mZk1AAAYYUlEQVQzduxN9kLFphh9KD/++KOZbrrpfAjFyxgw6F7KQlApCJTt/pACCZdAIFMC3B8yxUllELAEMOh0hOAJhP4A9t57E83mm//M6nDddXebeeedv50mb731ujn99BPMo48+aN5449XKz5dZZgXzi19sYn79693MPPPMZ78/YsSvzXXXXWHWW29Dc9VVt3ul79tvv2kGD17ExnTLLfeZVVdds2l8Bx+8j7nqqkuMzL0riyyymFl66eXMkksua3beeYSZY44+Teupd8G4cXeZXXfdysZy+eU3m+mnn77TdcX6QR7AYlU2/rxCvz+EptDee+9i7r//HrP66uuYc865tBL+IYfsa3Svu+iia80MM8xQM62bbrrWHHbYfvZnzz47oeFL00suGW1OOeVYe+1zz71Tqa/e90PjGFK83B9CUotYQyGAQQ9FKeKsSyD0B7BrrvmbGTlyJ5vfX/5yofn1r3/TJldnIJMGtRrGHXc8YoYMWcV+OzaD7vKp1wHmnHNuc+qpo80vf7lZp35L/ud/djOXX36R/eyjj75sFl108U7VE/OHeACLWd24cwv9/hCaOhtttLp57LGHzLrr/txcc80dlfDd/+OHH36i2Xffg2qmdcUVF5t99512/5s0aWrDl6Unn3y0GTXqCHvtRx/9UDHzJ510lDnppCPt9//znx9DwxdkvNwfgpSNoD0ngEH3XCDCa04g9Aewjz/+yOy++3bmhx9+MOeff2Wbad93332bGTZs4wqEkSP3M2ussa4ZMGA+o889/PB95pFHHjA33TSu3YNQLCPo7sGuV6/e5rTTzrejL5pR8MwzT5hbbrmukvfpp19gdthht+YdpuqKJ5541Mikr7jiqkZ1UNoT4AGMXhEqgdDvD6Fxb2bQlc+ddz5qBg9euV1qGPTQ1J4WL/eHMHUjar8JYND91ofoUhCI9QHs+++/N0OHLlmZ0v63v91oNtxw06ZEYh1B17T2xx57pU3+Dzxwr9ljj2HmP/+ZZGTg//Wv18xcc/VtyogLOkaAB7CO8eJqfwjEen/wh3DbSNIY9AED5jUPPPC8mXXW2dp8GIPuq6qN4+L+EKZuRO03AQy63/oQXQoCIT+AXXnlX402KHNl8823NT17zmz/edllF5rf/W53+/XBBx9tDjjgsBQ00k1x11rAxx570Dz//DO2/UGDlrYjyAsuOG19uCsvvfSCefrpf5mePXuazTffrl37//jHWDNp0gdmgQUWMkOHrt3m599++415+OH7jUaoNdq/wAIL23Xjm222rr0u7Rp098KhlkFXPVq3uNtu29g6d9nlt+bPfz7Xfv3qqy/Ztl3sr732spGhV079+g0wW245zMbnigz+r361lc3n1luvt99eeeWhdp17dXnuuads3VqvrvX/3bp1s5eI5UMP/dM8++yT5u233zLzzbeAGTjwp3a6Z/fuPVLp5+NFPID5qAoxpSEQ8v0hTX6+XZPGoCvmLbfc3owefXmb8DHovqmZLh7uD+k4cRUEOkIAg94RWlzrJYGQH8DmnLPtzuEvvPCuNY8q7kFHX7/yyiTTp89cqfg3G0G//vorzfDh29es64QTzjC77bZXZe3f+eefabS5j0qt9XxbbbWB+ec/7zbbbLNjmw2BPvjgPbPjjptZc1+vZGXQtTRgjTWWNq+88m+TNPF/+9v55ve/H26b18ZEv/nN1pVQ9LJAywk22OD/p1m6z+rFwuKLz203pau3TECb+snsL7nkMua++5619b7//rt2qvy9997ZLmXVfeaZF5uVVlotlYa+XcQDmG+KEE9aAiHfH9Lm6NN1aQ26Ytb/icOG7VIJH4Puk5LpY+H+kJ4VV0IgLQEMelpSXOctgZAfwGTo/v3v5ytGNmnQF1xwFmsSNa1d09vTlkYGPTnaLJOqhyOt6b7xxqvNiy8+Z5vQhms77TTN2HbGoH/66Sdm1VWXsNPOVTR6PGTIquadd8YbzRhwJSuDrvo000AzDlTee+8bO1qdNOj6vvLVDAWtXd90063Nmmv+zIwadaR58MFxdnfhpLnXJkPabEjl+ecnmv7956nEPX78G2bIkEXtv7VLsV5OTJ78tVl99aWNdqlX2XrrHczCCw807747oRKXvq+did1u+2n19OE6HsB8UIEYOkMg5PtDZ/Jt9WeaGXS99NT94MQTD7ehJjfmxKC3Wr3Otc/9oXPc+BQEGhHAoNM/gicQ+gPYPffcYbbddkOrgzPoMrkDB047OmzPPX9vjjnm1NQ61TPoMpErr7y4NaOLLz7I3HrrA2b22eew9epnGg3X7rvaFf3JJ98wP/lJr04ZdB2Tc+65p9l6zz77ErPtttN2qFdJjt5nadB13M4JJ0xbAvDIIy/ZaeVJg658b7vtwZrnxh977KH2CLukQX/33XfMsstOO+7uyCNPMnvv/YdKDm6XYE2Jf/nlD81MM/U0rg5dlNxRX//Wi4+11po2Tb56pkFqUVt8IQ9gLRaA5jtNIPT7Q6cTb9EH0xj0yy672Wy66dr2fqNZSHfd9Zjp0WMmg0FvkWhdbJb7QxcB8nEI1CCAQadbBE8g9AewWgY9aeqOPvoUo93b05Z6Bv2uu24122+/ia3mkkuuNxtttHmbKnWc29Zb/9x+78orbzXrr79Rhw26prYvtdS00WaNzmsKY7J05hz0ZmvQVf+ZZ55kjjpq2tE92ihuoYUWbWPQdR68Rm5qlVoGXdfpbHTtEi/jrlGe6aabzmjjPuWn2QF/+MPh5qCDjjLfffed6d+/u6360EOPNfvt98d2zbg2tDlS8szetJq2+joewFqtAO13lkDo94fO5t2qz6Ux6Pr/OHkvcC+hMeitUq1r7XJ/6Bo/Pg2BWgQw6PSL4AmE/gBWy6BrlHuZZeaz2hx44BHmwAOnneuaptQz6BrV1ui2yoQJX5mZZ/5Jm+q++OJzs/DC03bVHTXqLLsWvaNT3O+77x9myy3Xt3VoVGSFFVZq00ZeBv3gg/cxF1xwlm2r1hT3N974tN2OwS6wegZdU9/dhnZuVDyplYy2DLc2o1tttUG2Op1FX2sK+zPPaNO4adPfJ0782o66h1R4AAtJLWJNEgj9/hCammkNuvK6+upLzV577WxT1Evhjz6axDnooQnOMWsBKkbIIRDAoIegEjE2JBD6A1gtgz516lTTt++MNm+tZz733L+l7gX1DPqf/vR7c955p9t6am34pu+7TetGjtzfHH30nzts0C+88Gxz0EF72zZee+3jyhR6F3xeBn277X5ptKN8coQ6OcW9Xr6Kq55B147sq6zyU3vMndsdfvfdtzU33niN3dFem8yp3HbbDWbnnbdIrc9HH/1gR+NDKhj0kNQiVgx66/pARwy6onT/p2rJ0F57HWBGjTrCBj9p0tTKZqW1sknuE5L8/90tQWp0n2sdnThb5v4Qp65k1VoCGPTW8qf1DAjEaNCFRevFZQ61Jlyjtd27T5tG3azUM+jHHHOI+ctfTrQfr2USp0yZYgYMmHYUmKZuawp3R0fQzz77z+aII6at19b6bMWeLHkY9IkTJ5jlllvANrPGGuuaG264x37dVYOuOi6++Fzzhz+MtPU9+eSbZvDghe3Xt9/+UGVH9rvvvs0MG7ax/f75519lj6urV3r06BHkOe08gDX7rePnvhII/f7gK9d6cXXUoFdvKurqbWbQ3V4nMvbjx39RCQeDXnyP4f5QPHNajJ8ABj1+jaPPMPQHsFoj6BLt0EP/x4wZc4bV7/TTLzA77LBbKi3rGfTkueovvfRBO6P4+uuv2BFjlfPOu8xstdWv2xj0WlOzq49ZS44mJ02sCzwPg56cGeB2Vc/KoCen/WujOR3ltswyK5h7732yokUyp+pjg1IJFsBFPIAFIBIh1iQQ+v0hNFk7atCVn46s1NGVydLMoO+zz672VBD9v/zQQy9i0FvYUbg/tBA+TUdLAIMerbTlSSz0B7B6Bl3nai+99LxWSI0SaNfzpZdevo2w2rRMO5Dvuuuepk+fOe3PdHTb5ZdfZD+jaebdunWz33/qqccr536feOKZZvfdp01Fd+Xoow82Z5wxyv5TZ3trd90bbrja7LHHdvZ71113t1lrrfUq10+YMN6sueYy9ig4tzu5DOzQoUvaazbZZEtz8cV/b9NGlgZdU9A1I0BT1FUU7733PmWPjVPJYgRd9egceM0kcEXLDbTswBUtR1hkkdktB20od//9z9odiWMqPIDFpGa5cgn9/hCaWp0x6MpRm3xqs09XZNB/+OEHc9xxfzTff/+dGTZsVzNo0NL2x8nlR9rMVOvXXWEEvfgew/2heOa0GD8BDHr8GkefYegPYPUMuoQ78sgDzVlnnVzR8IQTzjCrrbaW3fDspZeeN+ecc6odfdBZ6ZdeeoNd23zyyUdX1vFpg7nddtu7Yt7dWm2Zd12vs8D1EHTddVeYPffc0baj3d21y7vKiy8+a9Zaazn7tc4zP+KIk+wRZo899qDRxmwy5CrJ48N23HEzM3bsTfb7WrutGOaeu5/5/PPP7FFobjO3jh6zpunyxx9/upEhHj/+TaMN6R599IEKm5tuGmeGDl278u+sDPrLL79oVl99KVuvuL3yyqR2Bvzaay+r8NNu8dJJO8kr1hdeeMZoeYHWV66zzgZB/j7yABakbAStvTCe/sr0nLW7/UPJn0BnDfq3335jXyDrBBMVN4KuzVK1aerKKw+1x43q+M+///1yc9ppx9vrqmctYdDz17i6Be4PxTOnxfgJYNDj1zj6DEN/AGtk0LUu/PDD96+Y2npi/vznm5gLLrjK9Ow5c5tzt3W9TKvMq4oM9aabrmOPCXNFplOjvyoywWPHPmTNpSvO1DfqSEmD/uabr5l11x1cqdMZW9eGq6ejBr1e+8svv6I544yLzBJLTDPRrmRl0FWfpl/qRYh209cLh1rFLS2oxVXf0wi/ZiaEWHgAC1E1YhaB0O8PoanYWYOuPJMvQ51BT54+Us1C96unn37L3vdcwaAX32O4PxTPnBbjJ4BBj1/j6DMM/QHs/vvvMVtsMW3quEZn+/SZq51mOo5m9Oi/mOeee6rNzzSl+uCDj7K7iifLHXfcbP74x9/bo73WXnt98/e/31X58aRJH9iNz7RePFlUh6a+u6ny7mcff/wfux5eo+yuaDTjkEOOMWeffYqZtkla2zPPdR76/vv/1tx55y2Vz+hFgK5z08VrrVGv1VlHjtzJXHPN/+9ir4eypZZa1iy22BJmueWGmC22GGZmnHHajvfJkjxTt9Eu7m434Oq1jMm63Nr6F1541/TrN6Dm75SmXV511SV2loBGfFxRvNq8bt99D2y3RCGUX04ewEJRijirCYR+fwhN0XoG3f0/rpfJl19+c9203EkgzqBrhtcppxxbmRXmPqiZXqeccl67jUgx6MX3GO4PxTOnxfgJYNDj1zj6DMv0APbNN5PtKPiMM3YziywysOF52jKMGinXtPfq3dTVKTT9euLEt21d/fvP0/BIG10/efLXdmq5rp1tttlT9avvvvvOvPXW62aWWWY1ffv2D+54MZek1vq/9trL7Ubp60HQzsQy6fPNt4DNPfTCA1joCpY3/jLdH2JQWfctvYhedtnBbdLRFHjdf2aaqaeZd975K3uNxJBz6DlwfwhdQeL3kQAG3UdViKlDBHgA6xAuLoZAhwnwANZhZHzAEwLcHzwRgjCiJcD9IVppSayFBDDoLYRP09kQ4AEsG47UAoF6BHgAo2+ESoD7Q6jKEXcoBLg/hKIUcYZEAIMeklrEWpMAD2B0DAjkS4AHsHz5Unt+BLg/5MeWmiEgAtwf6AcQyJ4ABj17ptRYMAEewAoGTnOlI8ADWOkkjyZh7g/RSEkinhLg/uCpMIQVNAEMetDyEbwI8ABGP4BAvgR4AMuXL7XnR4D7Q35sqRkCjKDTByCQDwEMej5cqbVAAjyAFQibpkpJAINeStmjSJr7QxQykoTHBLg/eCwOoQVLAIMerHQE7gjwAEZfgEC+BHgAy5cvtedHgPtDfmypGQKMoNMHIJAPAQx6PlyptUACPIAVCJumSkkAg15K2aNImvtDFDKShMcEuD94LA6hBUsAgx6sdATOCDp9AALFEOABrBjOtJI9AQx69kypEQJJAtwf6A8QyJ4ABj17ptRYMAEewAoGTnOlI8ADWOkkjyZh7g/RSEkinhLg/uCpMIQVNAEMetDyEbwI8ABGP4BAvgR4AMuXL7XnR4D7Q35sqRkCIsD9gX4AgewJYNCzZ0qNBRPgAaxg4DRXOgI8gJVO8mgS5v4QjZQk4ikB7g+eCkNYQRPAoActH8Ezgk4fgED+BHgAy58xLeRDAIOeD1dqhYAjwP2BvgCB7Alg0LNnSo0FE+ABrGDgNFc6AjyAlU7yaBLm/hCNlCTiKQHuD54KQ1hBE8CgBy0fwTOCTh+AQP4EeADLnzEt5EMAg54PV2qFACPo9AEI5EcAg54fW2ouiAAPYAWBppnSEsCgl1b64BPn/hC8hCTgOQHuD54LRHhBEsCgBykbQScJ8ABGf4BAvgR4AMuXL7XnR4D7Q35sqRkCIsD9gX4AgewJYNCzZ0qNBRPgAaxg4DRXOgI8gJVO8mgS5v4QjZQk4ikB7g+eCkNYQRPAoActH8GLAA9g9AMI5EuAB7B8+VJ7fgS4P+THlpohwAg6fQAC+RDAoOfDlVoLJMADWIGwaaqUBDDopZQ9iqS5P0QhI0l4TID7g8fiEFqwBDDowUpH4I4AD2D0BQjkS4AHsHz5Unt+BLg/5MeWmiHACDp9AAL5EMCg58OVWgskwANYgbBpqpQEMOillD2KpLk/RCEjSXhMgPuDx+IQWrAEMOjBSkfgjKDTByBQDAEewIrhTCvZE8CgZ8+UGiGQJMD9gf4AgewJYNCzZ0qNBRPgAaxg4DRXOgI8gJVO8mgS5v4QjZQk4ikB7g+eCkNYQRPAoActH8GLAA9g9AMI5EuAB7B8+VJ7fgS4P+THlpohIALcH+gHEMieAAY9e6bUWDABHsAKBk5zpSPAA1jpJI8mYe4P0UhJIp4S4P7gqTCEFTQBDHrQ8hE8I+j0AQjkT4AHsPwZ00I+BDDo+XClVgg4Atwf6AsQyJ4ABj17ptRYMAEewAoGTnOlI8ADWOkkjyZh7g/RSEkinhLg/uCpMIQVNAEMetDyETwj6PQBCORPgAew/BnTQj4EMOj5cKVWCDCCTh+AQH4EMOj5saXmggjwAFYQaJopLQEMemmlDz5x7g/BS0gCnhPg/uC5QIQXJAEMepCyEXSSAA9g9AcI5EuAB7B8+VJ7fgS4P+THlpohIALcH+gHEMieAAY9e6bUWDABHsAKBk5zpSPAA1jpJI8mYe4P0UhJIp4S4P7gqTCEFTQBDHrQ8hG8CPAARj+AQL4EeADLly+150eA+0N+bKkZAoyg0wcgkA8BDHo+XKm1QALvvDrZTJ1qTO+5exbYKk1BoDwEJn8+xejPwOV7lSdpMo2CAPeHKGQkCY8JcH/wWBxCC5YABj1Y6QjcEZj42jSD3msuDDq9AgJ5EPhkwldm9r7dzZwDuudRPXVCIDcC3B9yQ0vFELAEvpw02cwwgzHzLcYzGF0CAlkRwKBnRZJ6WkZg8ldTjR7Cus00A6PoLVOBhmMloIev776ZauYd2NP07DVDrGmSV6QEuD9EKixpeUGA+4MXMhBEhAQw6BGKWsaU3EOYcpdRp0AAAl0nIGOuMs+iPc3Mvfm96jpRamgFAe4PraBOm7ET4P4Qu8Lk10oCGPRW0qftzAl88sEU8+OPxuiBjAIBCHSNQJ/+06a0M3LeNY582g8C3B/80IEo4iDA/SEOHcnCTwIYdD91ISoIQAACEIAABCAAAQhAAAIQKBkBDHrJBCddCEAAAhCAAAQgAAEIQAACEPCTAAbdT12ICgIQgAAEIAABCEAAAhCAAARKRgCDXjLBSRcCEIAABCAAAQhAAAIQgAAE/CSAQfdTF6KCAAQgAAEIQAACEIAABCAAgZIRwKCXTHDShQAEIAABCEAAAhCAAAQgAAE/CWDQ/dSFqCAAAQhAAAIQgAAEIAABCECgZAQw6CUTnHQhAAEIQAACEIAABCAAAQhAwE8CGHQ/dSEqCEAAAhCAAAQgAAEIQAACECgZAQx6yQQnXQhAAAIQgAAEIAABCEAAAhDwkwAG3U9diAoCEIAABCAAAQhAAAIQgAAESkYAg14ywUkXAhCAAAQgAAEIQAACEIAABPwkgEH3UxeiggAEIAABCEAAAhCAAAQgAIGSEcCgl0xw0oUABCAAAQhAAAIQgAAEIAABPwlg0P3UhaggAAEIQAACEIAABCAAAQhAoGQE/hdT+ijTVC2f1gAAAABJRU5ErkJggg==;" vertex="1" parent="1">
          <mxGeometry x="410" y="50" width="400" height="308.4" as="geometry" />
        </mxCell>
        <mxCell id="WfmTKSGuRJZ3hl7WZfGl-4" value="ios Restore" style="text;strokeColor=none;align=center;fillColor=none;html=1;verticalAlign=middle;whiteSpace=wrap;rounded=0;" vertex="1" parent="1">
          <mxGeometry x="580" y="370" width="60" height="30" as="geometry" />
        </mxCell>
        <mxCell id="WfmTKSGuRJZ3hl7WZfGl-5" value="" style="shape=image;verticalLabelPosition=bottom;labelBackgroundColor=default;verticalAlign=top;aspect=fixed;imageAspect=0;image=data:image/png,iVBORw0KGgoAAAANSUhEUgAAA+gAAAMDCAYAAAAxID+lAAAgAElEQVR4XuydBZQdRdqGCwiBQAiWQAgS3JcAwRd3d3cP7hBkcZfFCRrc3Rb/YXENWdwlBHcPBPvPW9m623PnWt9bPbeq+6lzcpjc6a7+6vkqwzxdNtZff/31l6FAAAIQgAAEIAABCEAAAhCAAAQg0FYCYyHobeXPwyEAAQhAAAIQgAAEIAABCEAAApYAgk5HgAAEIAABCEAAAhCAAAQgAAEIBEAAQQ8gCYQAAQhAAAIQgAAEIAABCEAAAhBA0OkDEIAABCAAAQhAAAIQgAAEIACBAAgg6AEkgRAgAAEIQAACEIAABCAAAQhAAAIIOn0AAhCAAAQgAAEIQAACEIAABCAQAAEEPYAkEAIEIAABCEAAAhCAAAQgAAEIQABBpw9AAAIQgAAEIAABCEAAAhCAAAQCIICgB5AEQoAABCAAAQhAAAIQgAAEIAABCCDo9AEIQAACEIAABCAAAQhAAAIQgEAABBD0AJJACBCAAAQgAAEIQAACEIAABCAAAQSdPgABCEAAAhCAAAQgAAEIQAACEAiAAIIeQBIIAQIQgAAEIAABCEAAAhCAAAQggKDTByDgkcCoH/+wtbn/eqyaqiAAgToEevQcx+gPBQJZE+BnfdaEqR8ClQnwc56eUQQCCHoRskwbMyegX9a+/Hi0+eWnMYJOgQAE2kdg8qm6m8n6dm9fADw5twS++mS0+frT0bltHw2DQCwEJp2yu+ndj5/zseSLONMRQNDT8eJqCHQioF/W9EubSq8pe0AIAhBoE4HffvnDjPpuzL/FaWbpwWh6m/KQ18c6OR93/HFMj4kRg7zmmXaFT8D9rB9/wnHMtLPye1f4GSPCtAQQ9LTEuB4CZQTeGv6j/WSy6XrCBgIQCIDAD5+PMvoFbpb5+DcZQDpyEYJ7ESsxR85zkVIaETmB33/9w3z/2SjDSHrkiST8igQQdDoGBFogwC9tLcDjVghkRMD94sZU94wAF7DaD98aZfcW4UVsAZNPk4MlwMvYYFNDYC0SQNBbBMjtxSbgBJ1f2ordD2h9eAT0i1u3bmOmulMg0CoBzZRi9LxVitwPAb8E3MtYljT55Upt7SeAoLc/B0QQMQFGVSJOHqHnmgCCnuv0dnnjEPQuR84DIVCXAIJeFxEXREoAQY80cYQdBgEEPYw8EAUEygkg6PQJnwQQdJ80qQsCfggg6H44Ukt4BBD08HJCRBERQNAjShahFooAgl6odGfeWAQ9c8Q8AAKpCSDoqZFxQyQEEPRIEkWYYRJA0MPMC1FBAEGnD/gkgKD7pEldEPBDAEH3w5FawiOAoIeXEyKKiACCHlGyCLVQBBD0QqU788Yi6Jkj5gEQSE0AQU+NjBsiIYCgR5IowgyTAIIeZl6ICgIIOn3AJwEE3SdN6oKAHwIIuh+O1BIeAQQ9vJwQUUQEEPSIkkWohSKAoBcq3Zk3FkHPHDEPgEBqAgh6amTcEAkBBD2SRBFmmAQQ9DDzQlQQQNDpAz4JIOg+aVIXBPwQQND9cKSW8Agg6OHlhIgiIoCgR5QsQi0UAQS9UOnOvLEIeuaIeQAEUhNA0FMj44ZICCDokSSKMMMkgKCHmReiggCCTh/wSQBB90mTuiDghwCC7ocjtYRHAEEPLydEFBEBBD2iZBFqoQgg6IVKd+aNRdAzR8wDIJCaAIKeGhk3REIAQY8kUYQZJgEEPcy8EBUEEHT6gE8CCLpPmtQFAT8EEHQ/HKklPAIIeng5IaKICCDoESWLUAtFAEEvVLozbyyCnjliHgCB1AQQ9NTIuCESAgh6JIkizDAJIOhh5oWoIICg0wd8EkDQfdKkLgj4IYCg++FILeERQNDDywkRRUQAQY8oWYRaKAIIeqHSnXljEfTMEfMACKQmgKCnRsYNkRBA0CNJFGGGSQBBDzMvRAUBBJ0+4JMAgu6TJnVBwA8BBN0PR2oJjwCCHl5OiCgiAgh6RMki1EIRQNALle7MG4ugZ46YB0AgNQEEPTUyboiEAIIeSaIIM0wCCHqYeSEqCCDo9AGfBBB0nzSpCwJ+CCDofjhSS3gEEPTwckJEERFA0CNKFqEWigCCXqh0Z95YBD1zxDwAAqkJIOipkXFDJAQQ9EgSRZhhEkDQw8wLUUEAQacP+CSAoPukSV0Q8EMAQffDkVrCI4Cgh5cTIoqIAIIeUbIItVAEEPRCpTvzxiLomSPmARBITQBBT42MGyIhgKBHkijCDJMAgh5mXogKAgg6fcAnAQTdJ03qgoAfAgi6H47UEh4BBD28nBBRRAQQ9IiSRaiFIoCgFyrdmTcWQc8cMQ+AQGoCCHpqZNwQCQEEPZJEEWaYBBD0MPNCVBBA0OkDPgkg6D5pUhcE/BBA0P1wpJbwCCDo4eWEiCIigKBHlCxCLRQBBL1Q6c68sQh65oh5AARSE0DQUyPjhkgIIOiRJIowwySAoIeZF6KCAIJOH/BJAEH3SZO6IOCHAILuhyO1hEcAQQ8vJ0QUEQEEPaJkEWqhCCDohUp35o1F0DNHzAMgkJoAgp4aGTdEQgBBjyRRhBkmAQQ9zLwQFQQQdPqATwIIuk+a1AUBPwQQdD8cqSU8Agh6eDkhoogIIOgRJYtQC0UAQS9UujNvLIKeOWIeAIHUBBD01Mi4IRICCHokiSLMMAkg6GHmhagggKDTB3wSQNB90qQuCPghgKD74Ugt4RFA0MPLCRFFRABBjyhZhFooAgh6odKdeWMR9MwR8wAIpCaAoKdGxg2REEDQI0kUYYZJAEEPMy9EBQEEnT7gkwCC7pMmdUHADwEE3Q9HagmPAIIeXk6IKCICCHpEySLUQhFA0AuV7swbi6BnjpgHQCA1AQQ9NTJuiIQAgh5JoggzTAIIeph5ISoIIOj0AZ8EEHSfNKkLAn4IIOh+OFJLeAQQ9PByQkQREUDQI0oWoRaKAIJeqHRn3lgEPXPEPAACqQkg6KmRcUMkBBD0SBJFmGESQNDDzAtRQQBBpw/4JFBkQf/zzz/NyJHvm99++8306TOlmXjiSTqhHTHiXfPvf99vxhprLLPuupuYnj0n8onfW11PPfWoeeONV02vXhObddbZuKl6xUPt1B9Kewkg6O3lz9OzI4CgZ8eWmgtAAEEPI8nLLjvQfPnl52ahhRYzF110XSmoc845xdx00zXmttseMhNN1KtqsNtvv5F55pknzIABA80VV9xas1Gff/6pWX75Be0122yzs9l774NL1//jH3ub22+/0f79+effM926dQsDUAGjQNALmPQMm5wnQR89+lez7rormJdf/o8577wrzcorr1mR3DXXXGp/nj355CPmxx9/KF2z8MJ/NyussJrZeOOtTN++/ezn99xzu9l887Xs1w888KyZd94FMsxG81UfdNAe5sILz7IVfPnlXw1V9NBD95lttlm/AwPdON98C5q55prHDBy4sNl4463NuOOO21B91S464ogDzNlnn2z23/8wM3jwkS3VVZSbEfSiZLp47UTQi5dzWuyRAILuEWYLVc0++5RW0P/+96WtjLty2GH7miFDTjUbbLC5OffcK6o+YZ11ljOPPvqgWWCBRcw99zxZM5JPP/3YzD331PaaPfYYbA477ITS9bvssqW5/voxz/n0098Q9BZy2uqtCHqrBLk/SSBPgq5R5NVXX9I2b621NjBDh17fIdm//vqLGTx4N3PllUNrdoK77nrcvhRVybOgJ9tWDYhEfciQK6ywN1P00qRfv/FLt/L/j8YoIuiNceKq+Agg6PHljIgDIoCgh5GMeoKuKIcMudxsuOEWFQNG0MPIo88oEHSfNKkrT4L+yy+jzKqrLm5efPF5c+GF15p11tmolODff//drLXW0ubppx+3n2mqukbKNWo+4YQ9zWeffWLuuus28+67b5mnnnq9NM27KIK+9tobmoUXXtx8++035o03XjGPPfZv+3LYlZtvfsAsueRyTf2DOeCAXc3FFw8xO++8tzn66FObqqNoNyHoRct4cdqLoBcn17Q0AwIIegZQm6iyEUFXtc8886aZccZZOj0BQW8CeuC3IOiBJyiy8PIk6A69RsrHG+9/o7b6/LrrLje77rqVvaR37ynsjKTZZpuzU7bK7y2KoF922c1mtdXWKfHQ1P9jjjnYXHTR2faz/v1nNI8//rIZf/weTfVwvTxp9t6mHhj5TQh65Akk/KoEEHQ6BwRaIICgtwDP462NCvo888xv7rnnCdO9+3gdno6ge0xGIFUh6IEkIidh5EXQtZmbNjlzZeqppy39PJQczjvv9KUR4ccff6WinFdKaaOC/scffxjF8NprL9uXA7PPPpdRDOUbro0a9bPRciKV6aabwYwzzjgdHqsp4R99NNJ+Ns00/Suu/9ZsAG0I9+abr5rJJ+9j5phjbnPqqcemXoOebFu5oLugdttta3PttZfZv2r9uNaRq/z0049G+5aoTD/9TLadX331hd3zZOyxxzazzjqHmWCCCc3PP/9Uat9kk/W2G/GJleJXmWyyyUvr/cv5v/XW63YDvx49epgZZpi5w7eV0zfffM28886bZsopp7IvqPXfvGxwh6Dn5AcszehEAEGnU0CgBQIIegvwPN7aqKDrkbvssq856qhTOjwdQfeYjECqQtADSUROwsiLoE8/fa8Om51pbw7t0aGi/TO0j4bKGmusZy65ZMyGl42URgT9gQfuNtqQM7nhnOrWqPPQodd12Fju5puvMTvuuKl99JNPvmZmmWX2DmG89NJws8wy89vPLr/8FrPqqmt3+P4tt1xn9t57h07P0qwANyW90U3iGhH0Dz5438w//ww2Bs040MsNleS9WrN/1lknmbvvvq0U6wEHHG7eeectc9NNV5c+23zz7czpp19kvvrqSzPbbH3s59X2Rxkx4j0zcOCM9pqtt97JnHLKufZryf35559htA9LedFyhVNOOc++sIi9IOixZ5D4qxFA0OkbEGiBAILeAjyPtzYi6NrM7aijDrRPvfbau8zyy69SigBB95iMQKpC0ANJRE7CyIugu5+VLi3nnHOZ2WijMVKun49nnnmi/VpT27XpZqOlnqCfd97pRqdcuCIp1+hycv32VVfdblZaaQ17yY03XmV22mnMi4N6gn7ppTeZ1Vdft1T3SScdaU466YgOoWstffmLAZ+CroetsMJCZvjwZ+1zP/lktB3VT3JJvhxwwb344khz/PGHGu2Y78omm2xtzjrrEvvX3XffpvS9ShxOOeVoc8IJY0brH3nkRTPnnH+zMyQ23XR1oxcirlR69r/+9ZjdWyDmgqDHnD1ir0UAQad/QKAFAgh6C/A83tqIoGtX3LXXXtZoB2P9svb002/YqX4qCLrHZARSFYIeSCJyEkZeBF1TwzVt2o0+JwV9iy3WLo3uvvLKx6Wfj42ksJagjxw5wsw33/S2GoniTTfdZ+aaa4D9e/IIs379pjHPPfe2nXLfrKBr6viqq46RTv2c1ywAbdqm6eQ6p32DDVYqNce3oA8atFlpJFwb6M0882wdBF0P3nbbXcwxx5xq/vrrL/Pqqy/Zo9o0Ff+330abOeboa18iJAX9+eefMSuuuLCNWUd6HnLIsaX4NUourh9//GGHE0wuvfQ8s99+O9vrVNdRR/3TTDrpZFbcxdXNkphpplnNww//J+o17wh6I/86uSZGAgh6jFkj5mAIIOhhpKIRQdcvY/pFcYkl/mZ/CVp66RXMddfdbdc2Iuhh5NFnFAi6T5rUlRdBVybfe+9ts+CCYzbLTAr6wgvPZtcqq3z++R9WahsttQR97713NFdccaGtqtIu5zoK003FdvE0I+gS0JVWWqQ0iv3EE6/aNd7JcuCBu5c2dPMt6Icdtp8ZMuSf9nFudDrJRTJ+771PVeXq/j+WFHTV5Ubm9XLj5Zc/Kh3f+fDDD5j11lvBPu+KK241q6yylvnmm6/NLLNMbj/TWfVXX31Hp/Xm2tBOHFTuvPMRs8giSzSa5uCuQ9CDSwkBeSKAoHsCSTXFJICgh5H3RgV9zC+I/1vbeMQRJ5nddtsfQQ8jjV6jQNC94ix8ZUUQ9HnmmdaOxmrk+f33v0+V81qC7sRfI7aauVRetInanHOOmc3k9ghpRtDff/8ds8ACYzZJS67HTj7voIP2yGSTOD0juVHcsGHvmv79Z+gwgq5p65LvaqWaoN9ww5Vm553HHBGql8rLLbey/dqN2GvmwfPPv2fF/dFHH7T/P1M5/vgzOyzlcs/V5nqaTaZy6qnnmy233DFVrkO6GEEPKRvE4pMAgu6TJnUVjgCCHkbK0wi6ItYvO/qlR+W++542Rx99kP3FptpGPMlWamfhueee2n60xx6Djda2u6Kpg9poSUVT6vULE6U9BBD09nDP61OLIOhuJpFy+N5735mJJurVcDqrCbqmb/ftO66tZ621NjBDh15fsc7evceyn2sUWKPBzQi61lxvvPGqth49R88rL1kK+uqrL2mXUKlUWoNeb813NUHXTuz6nmZ+rbPOxubCC68xX3/9lZl11t72WZrCvssu+/y33eeYwYN3azhvmjKvqfOxFgQ91swRdz0CCHo9QnwfAjUIIOhhdI+0gv7dd9/aqe4aLdJmRT179jSvvPJiQ4L+4YcfmHnn7W8bXr4mEEEPoz8oCgQ9nFzkIZIiCLrWLWv9ssrDD79g5pprnoZTV03Q9bN2ppkmtfW43ckrVep+hruXpM0IenLqtnZMX2ihxbpM0LW2f9ZZ+1iJ1v9Thg17xz673uZ5yQCrCbqu0Vnrp59+vL38rbe+Mrfccq054IBdS3/XGnOVQw/dx5x77mn2ax0rqiPcapU99xxsp8LHWhD0WDNH3PUIIOj1CPF9CNQggKCH0T3SCrqi1kiHRjySpZERdG3ss+SSY35xPfbY082gQXuWqkDQw+gPigJBDycXeYikCIJ+9tknmyOOOMCma/fdDzCHHz5mR/dGSjUR1brwKaYYc4Z5taPbkqPsboS4GUFPHhNX6eg1xZDVCPpVV11s9txzO9tO7USvHelVfAl68jg1HaV2ySXn2pfK22yzszn55CGlFEnOJekq99//jN2ELs8FQc9zdovdNgS92Pmn9S0SQNBbBOjp9mYEXY8+9thDzGmnHVeKohFBf/LJR8waayxl79FUQ/1C6QqC7imhHqpB0D1ApIoSgSIIenINtxr+6qufmCmm6NtQL0iK6D33PGlnI7my1FIDrExqDbp2Nx9rrDHT2V1Jnmm+336HmgMPPMqOEO+wwyb2kuS6a3fPiy8+b5ZddqD9qztmLbmD+/77H2YGDz6yU+xZCLpGzZdaal4zYsS79nnJ0Xtfgq56k7vsu4Y9+uhLHc4z1674bqd6ibsEPs8FQc9zdovdNgS92Pmn9S0SQNBbBOjp9mYFffTo0WbllRc1+mVPxQm6Rn20HvPnn3+y0zK32mpQKVKdOauzZ1XKfxFF0D0l1EM1CLoHiFRRIlAEQVdj999/Fzs6q6LR1yuvvK3TcWvaZEwbommDsRlmGLMp2yOP/J9Zd93l7dcSbIm2Kzr/XOegq1Q6Xz151reT8aefftysttri9p6ddtrLHHPMmGnbKjpebOut1ysdCecEPbmDua6r9ILBt6BrZFtnjuvoOpXyWQI+BT25a7uetcQSy5pbbvm/Dv9Kda68/n+oos3+tHncZJON2dU9WUaN+tn06DFBp89j+wBBjy1jxNsoAQS9UVJcB4EKBBD0MLpFs4Ku6N9++w2zyCKz24YkR9A1OiNx1y85Rx55splxxlns8T1HHXWgvVbrDJ999q0OR+Yg6GH0B0WBoIeTizxEUhRBl3wPGDBdKWU62mu33fYrnVuu0e5TTz3WrrWWwGvjs+7du5u33nrdLLromCPNdI82H9tgg83sGdufffaJmWuufiVpvOyym82iiy5p69CxZG5ttY770rFfKl999aWZbbY+pXsOPfR4s9pq65g333zNXHHFRXaE3RUn6Pr7iScebk4++ahSHBpFXnDBRW0c9957h9l1161K9zVzzJpiGDhwYSPBHTbsafPgg/d2YHX33Y+XXlroGz4FXS+OdTyeG6nXNHpNpy8vF188pLQ+Xf+fOvHEs+3/2zRz4fXXXzH//OfR/z0T/b7o/2ki6NGnkAZUIYCg0zUg0AIBBL0FeB5vbUXQFcbll19g9tlnUAdBv+OOm8w226xfNcrk+cHuIgTdY1JbrApBbxEgt3cgUBRBV6M1HX3LLdcpiWC1rrDZZtuaE044qzQSu9Zay5jHH/936fKLL77BrLnmmJ+hV199idljj22r9ipJvUaD55hj7tI1ehl65pn118EnBf2HH743isPNiqrVjZsR9FosjjzyFDPJJGM2xHPFp6CrTrcRXvJotfKYJPLbbbeh0f/DapV6u8rH8CMAQY8hS8TYDAEEvRlq3AOB/xJA0MPoCq0K+l9//WU233wt89VXX9hp665o459DDtnLjvS4ohGJk046p3QWbZLAXnttb668cqj9iGPW2ts3EPT28s/b0/Mk6B988L6Zf/4ZbIoqvWjU599++405/PD9zL333mk0bTpZNHJ+8MHHmGWWWbHD5xr1Hjx4V3PrrWOOUivfo0MzkLTzuP6bLOutt6k57rgzzOSTjzk2zBUtQTrjjBPsqLgrEtONNtrSjqYvv/yYDdCSgq6///rrL3bXc420J392L7vsSnbGk45jS3PWe/L4NhfHbLPNaV8mzDrrnGaJJZaxMwIqleS9DzzwrJl33gWq/tNw59DrrHSdmV6pKC8zzzyZnfKvqf/Viv6fpqNExUGnlbiidit/Oide0/HFI+aCoMecPWKvRQBBp39AoAUCCHoL8AK79fvvvzOff/6pmXnm2TpEph2GR45834waNcrMMMNMuVi3Fxj6TMJB0DPBWthK8yToaZP4xRef2aVAffpMaaaffibTrVu3mlVo+ve7775t+vbt10m6daPE+5133rRHgE07bf+6kuh+Bks6tdSo0aLrR44cYXSO+HTTTW+nueehaJp6//4zNPz/Ikm9/h825ZRTNbzpXyycEPRYMkWcaQkg6GmJcT0EEgQQdLoDBMIkgKCHmZdYoyqyoMeaM+LOPwEEPf85LmoLEfSiZp52eyGAoHvBSCUQ8E4AQfeOtNAVIuiFTj+ND5QAgh5oYgirZQIIessIqaDIBBD0ImeftodMAEEPOTvxxYagx5czIs4/AQQ9/zkuagsR9KJmnnZ7IYCge8FIJRDwTgBB94600BUi6IVOP40PlACCHmhiCKtlAgh6ywipoMgEEPQiZ5+2h0wAQQ85O/HFhqDHlzMizj8BBD3/OS5qCxH0omaednshgKB7wUglEPBOAEH3jrTQFSLohU4/jQ+UAIIeaGIIq2UCCHrLCKmgyAQQ9CJnn7aHTABBDzk78cWGoMeXMyLOPwEEPf85LmoLEfSiZp52eyGAoHvBSCUQ8E4AQfeOtNAVIuiFTj+ND5QAgh5oYgirZQIIessIqaDIBBD0ImeftodMAEEPOTvxxYagx5czIs4/AQQ9/zkuagsR9KJmnnZ7IYCge8FIJRDwTgBB94600BUi6IVOP40PlACCHmhiCKtlAgh6ywipoMgEEPQiZ5+2h0wAQQ85O/HFhqDHlzMizj8BBD3/OS5qCxH0omaednshgKB7wUglEPBOAEH3jrTQFSLohU4/jQ+UAIIeaGIIq2UCCHrLCKmgyAQQ9CJnn7aHTABBDzk78cWGoMeXMyLOPwEEPf85LmoLEfSiZp52eyGAoHvBSCUQ8E4AQfeOtNAVIuiFTj+ND5QAgh5oYgirZQIIessIqaDIBBD0ImeftodMAEEPOTvxxYagx5czIs4/AQQ9/zkuagsR9KJmnnZ7IYCge8FIJRDwTgBB94600BUi6IVOP40PlACCHmhiCKtlAgh6ywipoMgEEPQiZ5+2h0wAQQ85O/HFhqDHlzMizj8BBD3/OS5qCxH0omaednshgKB7wUglEPBOAEH3jrTQFSLohU4/jQ+UAIIeaGIIq2UCCHrLCKmgyAQQ9CJnn7aHTABBDzk78cWGoMeXMyLOPwEEPf85LmoLEfSiZp52eyGAoHvBSCUQ8E4AQfeOtNAVIuiFTj+ND5QAgh5oYgirZQIIessIqaDIBBD0ImeftodMAEEPOTvxxYagx5czIs4/AQQ9/zkuagsR9KJmnnZ7IYCge8FIJRDwTgBB94600BUi6IVOP40PlACCHmhiCKtlAgh6ywipoMgEEPQiZ5+2h0wAQQ85O/HFhqDHlzMizj8BBD3/OS5qCxH0omaednshgKB7wUglEPBOAEH3jrTQFSLohU4/jQ+UAIIeaGIIq2UCCHrLCKmgyAQQ9CJnn7aHTABBDzk78cWGoMeXMyLOPwEEPf85LmoLEfSiZp52eyGAoHvBSCUQ8E4AQfeOtNAVIuiFTj+ND5QAgh5oYgirZQIIessIqaDIBBD0ImeftodMAEEPOTvxxYagx5czIs4/AQQ9/zkuagsR9KJmnnZ7IYCge8FIJRDwTgBB94600BUi6IVOP40PlACCHmhiCKtlAgh6ywipoMgEEPQiZ5+2h0wAQQ85O/HFhqDHlzMizj8BBD3/OS5qCxH0omaednshgKB7wUglEPBOAEH3jrTQFSLohU4/jQ+UAIIeaGIIq2UCCHrLCKmgyAQQ9CJnn7aHTABBDzk78cWGoMeXMyLOPwEEPf85LmoLEfSiZp52eyGAoHvBSCUQ8E4AQfeOtNAVIuiFTj+ND5QAgh5oYgirZQIIessIqaDIBBD0ImeftodMAEEPOTvxxYagx5czIs4/AQQ9/zkuagsR9KJmnnZ7IYCge8FIJRDwTgBB94600BUi6IVOP40PlACCHmhiCKtlAgh6ywipoMgEEPQiZ5+2h0wAQQ85O/HFhqDHlzMizj8BBD3/OS5qCxH0omaednshgKB7wUglEPBOAEH3jrTQFSLohU4/jQ+UAIIeaGIIq2UCCHrLCGKnjVUAACAASURBVKmgyAS+/nS0+eqT0Way6XoWGQNth0BwBL7+4Ecz+VTdzWR9uwcXGwHFR0CCPu7445iJpugRX/BEDIGcEhj13WijP9PM0sP06DlOTltJs4pIAEEvYtZpszcCo378w2gUvdeUPUy38fifgzewVASBFgi4X9oQ9BYgcmsHAvo5//vvBkGnX0AgIALuZ/0s8zFIElBaCMUDAQTdA0SqKDaBkW+OMr/89AeSXuxuQOsDIeCmPCocfmkLJCk5CMO9jO0xcXejPxQIQKC9BJyca5aUXsZSIJAnAgh6nrJJW9pCwP3ipoe7X9w0FZICAQh0LQH9wvbbL3/YhzJ63rXsi/A0LWfSsiZ+1hch27QxVAL6Ga8XsfqvprVrejsFAnkjgKDnLaO0p20Ekr+8tS0IHgyBghPQL2ySc9YjFrwjZNR8CfrPP/xh9GKWAgEItIfA+BOOYybsNQ57jLQHP0/tAgIIehdA5hHFI8Avb/HlXGtMXeGNfHz5s6OabBIUZ+IijZqf8/ElTi/SXd7cy7z4WlHsiPk5X+z8F6X1CHpRMk07IQCBmgS0S7MrrF2ms0AAAhDIHwF38op7ocfL2PzlmBZBIA8EEPQ8ZJE2QAACLRNA0FtGSAUQgAAEgiaAoAedHoKDAAT+SwBBpytAAAIQMMYg6HQDCEAAAvkmgKDnO7+0DgJ5IYCg5yWTtAMCEGiJAILeEj5uhgAEIBA8AQQ9+BQRIAQgYIxB0OkGEIAABBhBpw9AAAIQyD0BBD33KaaBEMgFAQQ9F2mkERCAQKsEGEFvlSD3QwACEAibAIIedn6IDgIQGEMAQacnQAACEGAEnT4AAQhAIPcEEPTcp5gGQiAXBBD0XKSRRkAAAq0SYAS9VYLcDwEIQCBsAgh62PkhOghAgBF0+gAEIACBEgEEnc4AAQhAIN8EEPR855fWQSAvBBhBz0smaQcEINASAQS9JXzcDAEIQCB4Agh68CkiQAhAgDXo9AEIQAACYwgg6PQECEAAAvkmgKDnO7+0DgJ5IcAIel4ySTsgAIGWCCDoLeHjZghAAALBE0DQg08RAUIAAoyg0wcgAAEIMIJOH4AABCBQBAIIehGyTBshED8BRtDjzyEtgAAEPBBgBN0DRKqAAAQgEDABBD3g5BAaBCBQIoCg0xkgAAEIsAadPgABCEAg9wQQ9NynmAZCIBcEEPRcpJFGQAACrRJgBL1VgtwPAQhAIGwCCHrY+SE6CEBgDAEEnZ4AAQhAgBF0+gAEIACB3BNA0HOfYhoIgVwQQNBzkUYaAQEItEqAEfRWCXI/BCAAgbAJIOhh54foIAABRtDpAxCAAARKBBB0OgMEIACBfBNA0POdX1oHgbwQYAQ9L5mkHRCAQEsEEPSW8HEzBCAAgeAJIOjBp4gAIQAB1qDTByAAAQiMIYCg0xMgAAEI5JsAgp7v/NI6COSFACPoeckk7YAABFoigKC3hI+bIQABCARPAEEPPkUECAEIMIJOH4AABCDACDp9AAIQgEARCCDoRcgybYRA/AQYQY8/h7QAAhDwQIARdA8QqQICEIBAwAQQ9ICTQ2gQgECJAIJOZ4AABCDAGnT6AAQgAIHcE0DQc59iGgiBXBBA0HORRhoBAQi0SoAR9FYJcj8EIACBsAkg6GHnh+ggAIExBBB0egIEIAABRtDpAxCAAARyTwBBz32KaSAEckEAQc9FGmkEBCDQKgFG0FslyP0QgAAEwiaAoIedH6KDAAQYQacPQAACECgRQNDpDBCAAATyTQBBz3d+aR0E8kKAEfS8ZJJ2QAACLRFA0FvCx80QgAAEgieAoAefIgKEAARYg04fgAAEIDCGAIJOT4AABCCQbwIIer7zS+sgkBcCjKDnJZO0AwIQaIkAgt4SPm6GAAQgEDwBBD34FBEgBCDACDp9AAIQgAAj6PQBCEAAAkUggKAXIcu0EQLxE2AEPf4c0gIIQMADAUbQPUCkCghAAAIBE0DQA04OoUEAAiUCCDqdAQKBEvjzzz/NJ598Yn7//Xcz2WSTmYkmmijQSNsflljdeuutNpC//e1vZpZZZkkdVFaC/sUXX5hHH33UxrPsssuaSSaZJHVsodzwzTffmDfeeMOoTdNOO62ZccYZTa9evaqG9+uvv5p//etf9vsDBw40/fv3D6UpxAEBCBSQAIJewKTTZAhESABBjzBphJxvAnfccYf5v//7P/P888+bn3/+udTYAQMGmMUXX9ysvvrqpk+fPvmGkLJ1f/zxh1l44YXtXdtvv73ZaaedUtaQ3SZxyuOOO+5o4xkyZIhZaKGFUscWwg233XabOfroozuEsscee5gtt9zSjB492uy6665W3o855hiz5JJL2uu+++47s9xyy9mv99lnH7PpppuG0BRigAAECkoAQS9o4mk2BCIjgKBHljDCzS8BSc6JJ55oJEK1ysUXX2zmmWeeYEH89NNP5sEHHzTdunUzq6yySpfEiaBni/mJJ54wknFX9LLohx9+MGeddZaZcsopzfDhw80OO+xgv7388subE044AUHPNiXUDgEINEEAQW8CGrdAAAJdTgBB73LkPBACnQlIMDXK+sILL9hvTjDBBHakfN555zU9evQwX375pXn44YfNBx98YG666SYz1lhjBYtRo6ca+d9ggw3M4MGDuyROBD1bzJtssol566237FKLc88918w000wdHqip7Nttt515/fXXzXHHHWdWXHFFBD3blFA7BCDQBAEEvQlo3AIBCHQ5AQS9y5HzQAh0JqB1uocffrj9hiTovPPOs+t7y4tG2bt37x40QgS9Y3pin+I+atQos8QSS9hGaYq6pqpXK+X9kynuQf9TJTgIFI4Agl64lNNgCERJAEGPMm0EnScCGn1cY401zNdff22bdf3111eU80pt1qZdP/74oxlvvPHMFFNMYS8ZOXKkee211+zmXbPOOqsV/mT5/vvvzdtvv21H5aeeemq72Vetjb4U1/vvv28+/fRT07NnTzPbbLPZac3lRVOev/32W7POOuvYby2zzDIdpkVPNdVUdtp7eUkbTyUO5SPoW2+9tR3x1SZ72phshhlmqPliQyP+j9z7qvnsi4/NOGOPYxZbdg4z/fTTm7HHHrtuV1MORowYYT7//PPSxmnKhyu1BF1xf/zxx/ZSzZTo3bu3/Vp1qV9oY8BKm8ppk7ZffvnFTDjhhKX8iqOEWEV5VX7ffPNNo2eoLdNMM40ZZ5xx6rbHXeBiU39y09sPPPBAu9Z//PHHL+2D8NFHHxlt0ueK+oZ7iZRG0H30g4Ybx4UQgEAhCSDohUw7jYZAdAQQ9OhSRsB5I3DXXXeZww47zDZLu3yfdNJJDTfx1FNPNVdffbW9XpvLaaMuTYN3JbkpmQRa1+u68rLWWmtZCZt44olL35JYnn/++WbYsGGdrtdO6YceemiHFwmaen/88cdXjV1r6yWOrqSNpxaUpKDrhYTkNbnBnu4dNGiQ2XbbbTtIquT4ggsuMHfeeWen6lXPP/7xj9KGZ+UXvPjii+aII47owNtdoxcuyoWEu5agJ/O31VZbmd13391Wseqqq1pJX3nlle2ma+Vl3333tUseNMtCL3RUhg4daqefqyif5XsZaNmEZmm4TdvqdTIJvp5fqaiuRx55xH7LzZhw1x111FE2fpVGBN1nP6jXJr4PAQgUmwCCXuz803oIxEIAQY8lU8SZWwLaaOuyyy6z7ZMQ6ziqRstpp51mrrrqKnv5dNNNZ2VR8iQ51d/denWNgm+++eZW+lyRgLpRe32mv994442l0fTTTz/dXHnllVVD0fW33367HU1VkfiffPLJHcRYsajommuuucZMPvnk9u/NxFOLSVLQq7VPny+44ILm7LPPLkm6JLPWlG3do7jLj2275JJLzDnnnNMhJM1gSPK9/PLLzZxzzllV0JO7oktyTznllNKIfaOCrhzffPPNNo6koLvAymPS57vssot9UVGv1BJ03fvcc8/ZKrTePNmPjjzySLPaaqvZ79UTdN/9oF6b+D4EIFBsAgh6sfNP6yEQCwEEPZZMEWduCbjRUDXwnnvuKU1zbqTBSUHX9Roh1eZymi4s+dHUbpWDDjrI3H///fZrCemGG25op5trpFkjyJJJFY38urXwmka93nrrmd12280svfTSVuAlZXoh8OSTT5bqKj86q5E16M3EU4tHUtA1qqyRbcmxPn/66aft351EHnDAAbb9KpqarWPCtCv+ogPWNH0m72s+/HiEef71e0sj02qPRrpd0fKBLbbYwv5VLyC0Y/kiiyxi5VrLDfTSQvXqhYhKpRH0//znP/Y4OBXJv+TavczQZ60K+kYbbWR23nlnuyTht99+szMEjj322FIbtOdBpWUKScZ//fWXnWb/6quvlo6JU1t11J+KezGjdefvvfee2WyzzeznaQTddz9o5N8M10AAAsUlgKAXN/e0HAIxEUDQY8oWseaSwLrrrluaJv3MM880tO7ZgUgKenKKdBKU6tSoqYo7t7oc5P77728eeugh+7Hke9xxx7VfS+7c1+4erUdff/317V8lkprSnCz1BL2VeKp1gHq7uH/44Ydm7bXXtrdLhO+7776SYLo2vjX8x1L1Mw2YwE7vltTrxYSud2WbbbYxL730kv3rFVdcYeaYY46a/bJc0LUWfOONN7YzDVS3Xo707du3Qx2tCvpjjz1Wap+r+NZbby1Nl9dLieSxabUa8Morrxj1LRW9qHBnnCfv0Tp1t/dAo4KeRT/I5Q8IGgUBCHgjgKB7Q0lFEIBAhgQQ9AzhUjUEGiHgZCy5rreR+3RNUtBvueUWu0lZedEIuf6oSAa18Vh5kZyfeeaZ9uPyTeo0kqpRY0mYNgTTpmU6SktFa9E13TtZ6gl6q/FUYlNP0HVPcsq+1u1rA71kefTe183Ij94zn3/xsekzzfh2eYBbz++EV1LtBFWb4GlKf72SFHTtL3DhhRfaDexUtLRhrrnm6lRFFoL++++/2z0O1IbFFluslO968Wcl6Fn0g3pt4fsQgECxCSDoxc4/rYdALAQQ9FgyRZy5JaCpyM8++6xtnzb+0s7cjZakoGsqd6VdupOj443Ue9FFF9nz11U0yilx1/nWlUpyDbT7fj1BbyWeavE3IugaBT/44INtFZqqvfzyy9uv9eJB68kfeOCBqnjuvfdeu37+jTfeKE3l3nPPPUtT3WtxTQp6+XWa2j5gwIAuEXQ9xJ1nrs36yjeRq9aGrAQ9i37QSP/mGghAoLgEEPTi5p6WQyAmAgh6TNki1lwS0M7nGq1VqbQhWa1GJwXdbdpVfr3WW7/77rv24/nmm68mQ62dVjzaXEzCqmO1XJHQar201hxrtF7Tv5sR9GbjqRV4I4KulyB6GaKi3dk15V3HsGn6tlufPtvMc5s5Z5vP9J2up9GouZvK7gRdL1C0Z4CK1nSvtNJKdftkLUEXv2uvvbbTEXBZjKAr0OTLoGr9pbxBWQl6Fv2gbjK4AAIQKDQBBL3Q6afxEIiGAIIeTaoINK8ENO3cTS9PszZYPBoRdG0K547EanSNe3Iqt6bea1Q9OSXcjX42I+jNxFMv940IenIE3R0/lxTWXbc7xCy+yAr2UbPM19NO9XdH3jlB14ZpypHK3nvvXRpNrxVfuaBL7BWvO1pPMWy33XYdqshK0HX8mpYpJI9nq8c2K0HPoh/UawvfhwAEik0AQS92/mk9BGIhgKDHkinizC2B5AZmaqSTwUYa3IigS0YvvvhiW51Ga2eeeea6VT/44INGu52rHH300WaVVVbpcE8jgq7d5LV7enlpJp56ATci6JrG7tbLa6d1bdDmdiTXBmcbrrpn6THVBF2742sdt0qjZ9YnBd1Jvdb1a+M+t7RBMyj69+9fer4Tae1E73bYTzJwO/9XO2at0iZxmiWgI9HSxK5rfQl6+QaFWfSDev2E70MAAsUmgKAXO/+0HgKxEEDQY8kUceaagNZE6wxyFUmZdsvu3bt3hzZ/9tlnVni1jtptBteIoD/xxBOlHbt1DrjEaKyxxupQtzYQ02duDftdd91VGuHVueE6RswVTXHXOdpal15pLbM7F3v22WeveI56M/HUS35S0DUa7aayu/sk1nph4M6HF+tPP/3UrLnmmvYStWeFRceMjKtI0HUuuV5oqIiHpv2ruHXc+rraGvIffvihtBlfpWPWdO+IESPsMXYqAwcONOedd14pL7vuuqs9Hk5FI/96meCKpt1rJ3mVNIKu2QCaFaAyePBgs8EGG9TDar/fiqAnZ2Kojeeff37pmVn0g4YaxEUQgEBhCSDohU09DYdAVAQQ9KjSRbB5JSD5Xm211UrNk5DpHG03rVybk0kGJTwSeH2t488aEXRVqrXkbhO0RRdd1I7e6ox0ndst4dMO5xpF3nrrrW0MyancGmXW/To3W1KpKdrDhw8vxfr444+b8cYbr/T3vfbay67fVtFZ35JgSf3nn39uFlpoIft52njq5T0p6GKnGJZYYgl7zrvaohcemtqtouUE2sVc6+1dPLpn8O4nm2mnntF89/035uHnri/Jue6RWEowVZKCrL9rpoEYqQ7x0T4Cks877rjDcqkm6LpXMxv0wkRF58/rHHoXoxs5127xOmNc/MVau5+7NfPVBF19R2u8J510UrsJnuq65557bN160aAj17p3714Pq/1+K4Ku+92mgfp60KBBtp+5l0+++0FDDeIiCECgsAQQ9MKmnoZDICoCCHpU6SLYPBPQ0Vv77bdfSSSrtVXCKykcf/zxGxZ0CZ1k2R0bVq1uNzVaU7C1S7lEs1KRjDpJLF83X21TNImhRqJV0sZTL+9JQa917aabbmq09tkVHXN21llnVbxFa+/1QkRFx8lJjN2Z8EmxrvY8rTFXrmoJul5c6Ex05UXPkziL7ZdffmnPYa9Xqgl6tfv0DL2sWGCBBepVXfp+q4Ku/Qs0O8AVvThwyyd894OGG8WFEIBAIQkg6IVMO42GQHQEEPToUkbAeSagqdgazZYoOwF27dXIuUa+k9PNGx1BVx2//vqr3eztuuuuK4mnPpcQanRYo7Rzzz13Ce93331njyO7//77S5/pWo2yb7TRRnYUXOenV9ooLjlF3t0sOVRdbrQ9bTy18u4EXVPuJbznnntuhzZqU7Tdd9/djqoni+6TbCenXvcYfwKz8ior2U3gbr75ZpsPlbvvvtv06dOndPuLL75op8FrhD5ZxEgvArSOXCPYyRF3tzld8nrNRthhhx3sR5ryftBBB9mvNWtC6/+TR9wtvPDCZqeddjJXXXWVnRFRTdDVV8rj0ii/prZPNdVUqf4JNSLoH3/8cWm5wJFHHtlhNoiWT4jxlVdeaXOSbGMz/TJV8FwMAQhAIEEAQac7QAACMRBA0GPIEjEWkoAE/f3337fnb08zzTQVzzhvFoymm3/zzTe23nrnruulgY4jk9j16tWrwyNVjwSsX79+nULR55ryrXXtEttaz0kTT7U2awbCJJNMUpJoLRtQ7JLY5BT8SvdrKvxj971hJurZy0w6SW8z6/wTlS5THRrRluRXKhoF1zTyscce205D14sIn8XxVzt69OhRtWote9CLCRW3xEAbEOoe5U7xtbPoZYhmCmhqvV6kVCo++kE728izIQCBsAkg6GHnh+ggAIExBBB0egIEIAABY8xbw38scdAmcbGVckHXEggKBCAAAQj8jwCCTm+AAARiIICgx5AlYoQABDIngKBnjpgHQAACEGgrAQS9rfh5OAQg0CABBL1BUFwGAQjkmwCCnu/80joIQAACCDp9AAIQiIEAgh5DlogRAhDInEDsgn7FFVeYM844w3Jyu/FnDo0HQAACEIiIAIIeUbIIFQIFJoCgFzj5NB0CEPgfgdgFXee6a8M6Fdaf07MhAAEIdCaAoNMrIACBGAgg6DFkiRghAIHMCcQu6JkD4gEQgAAEIieAoEeeQMKHQEEIIOgFSTTNhAAEahNA0OkhEIAABPJNAEHPd35pHQTyQgBBz0smaQcEINASAQS9JXzcDAEIQCB4Agh68CkiQAhAgHPQ6QMQgAAExhBA0OkJEIAABPJNAEHPd35pHQTyQoAR9LxkknZAAAItEUDQW8LHzRCAAASCJ4CgB58iAoQABBhBpw9AAAIQYASdPgABCECgCAQQ9CJkmTZCIH4CjKDHn0NaAAEIeCDACLoHiFQBAQhAIGACCHrAySE0CECgRABBpzNAAAIQYA06fQACEIBA7gkg6LlPMQ2EQC4IIOi5SCONgAAEWiXACHqrBLkfAhCAQNgEEPSw80N0EIDAGAIIOj0BAhCAQBeNoA8bNiw164EDB6a+hxsgAAEIQKAzAQSdXgEBCMRAAEGPIUvECAEIZE4g7Qh6Urb1dSX5bkbIazVUsp4Udvc1Ep959+ABEIBADggg6DlIIk2AQAEIIOgFSDJNhAAE6hOoJOhOsMsF3Ld414+usSt23HFHe2G5yDd2N1dBAAIQyDcBBD3f+aV1EMgLAQQ9L5mkHRCAQEsEkoK+yQ5Lp6qr0qi2E+XyihoZ7a43Gl9txL7Ss9zznLynahgXQwACEMgRAQQ9R8mkKRDIMQEEPcfJpWkQgEDjBJKCfsp5+3aYsl4u4KFNLU8K+wUXXFC10ZJ0Rtcb7xNcCQEI5IsAgp6vfNIaCOSVAIKe18zSLghAIBWBpKB//+cbpXsbGfFO9aAuutiJeqXRdifpjKp3UTJ4DAQgEAQBBD2INBAEBCBQhwCCTheBAAQg0EW7uLcTtIS90ui6JB1Rb2dmeDYEINBVBBD0riLNcyAAgVYIIOit0ONeCEAgNwTS7uIea8OdpJfLOqIea0aJGwIQaJQAgt4oKa6DAATaSQBBbyd9ng0BCARDoCiCngReaVQdUQ+mSxIIBCDgmQCC7hko1UEAApkQQNAzwUqlEIBAbASKKOguR+WijqTH1nuJFwIQaIQAgt4IJa6BAATaTQBBb3cGeD4EIBAEgSILuhIgSU9uKIekB9EtCQICEPBIAEH3CJOqIACBzAgg6JmhpWIIQCAmAkUX9Eqj6Uh6TD2YWCEAgXoEEPR6hPg+BCAQAgEEPYQsEAMEINB2Agj6/1KQnPKuI9nOP//8tueHACAAAQi0SgBBb5Ug90MAAl1BAEHvCso8AwIQCJ4Agt4xRUlJl6DHeh588B2PACEAgS4jgKB3GWoeBAEItEAAQW8BHrdCAAL5IYCgd87loEGD7Lp0RtHz089pCQSKTABBL3L2aTsE4iGAoMeTKyKFAAQyJICgd4YrOZekq7AePcPOR9UQgECXEEDQuwQzD4EABFokgKC3CJDbIQCBfBBA0Cvn0U11ZxQ9H/2cVkCgyAQQ9CJnn7ZDIB4CCHo8uSJSCEAgQwIIemW4yVH05557LsMMUDUEIACBbAkg6NnypXYIQMAPAQTdD0dqgQAEIieAoFdP4AILLGC/yWZxkXdywodAwQkg6AXvADQfApEQQNAjSRRhQgAC2RJA0KvzdZvFsQ492z5I7RCAQLYEEPRs+VI7BCDghwCC7ocjtUAAApETQNDrj6Aj6JF3csKHQMEJIOgF7wA0HwKREEDQI0kUYUIAAtkSQNDrCzpT3LPtg9QOAQhkSwBBz5YvtUMAAn4IIOh+OFILBCAQOQEEvXIC3S7u+i6bxEXeyQkfAgUngKAXvAPQfAhEQgBBjyRRhAkBCGRLAEGvzNdtEMf09mz7H7VDAALZE0DQs2fMEyAAgdYJIOitM6QGCEAgBwQQ9M5JTI6eM709B52cJkCg4AQQ9IJ3AJoPgUgIIOiRJIowIQCBbAkg6B35Js8/Z/Q8275H7RCAQNcQQNC7hjNPgQAEWiOAoLfGj7shAIGcEEDQ/5fIpJzrU9ae56ST0wwIFJwAgl7wDkDzIRAJAQQ9kkQRJgQgkC0BBH0M3+S0dv2dqe3Z9jtqhwAEuo4Agt51rHkSBCDQPAEEvXl23AkBCOSIQKuC/vHHH5t+/fpFTSQp5wMHDjSa2q7/UiAAAQjkgQCCnocs0gYI5J8Agp7/HNNCCECgAQJpBV3TwFUktfr6wAMPNOuvv34DTwrvEsXv2qHoJOUaOadAAAIQyBMBBD1P2aQtEMgvAQQ9v7mlZRCAQAoCjQi6E1lV6wTdPWLo0KFmwIABKZ7Y/kvLxRw5b39OiAACEMiOAIKeHVtqhgAE/BFA0P2xpCYIQCBiAtUE3UnsDz/8YN58882qLXzqqadMt27doiBQTcyZ0h5F+ggSAhBokgCC3iQ4boMABLqUAILepbh5GAQgECqBpKB//+cbHaZ814t53HHHNU8++WS9y9r6/Wqj/6w1b2taeDgEINCFBBD0LoTNoyAAgaYJIOhNo+NGCEAgLwQkrx++NcrcdMel5tU3/pO6Wf379zc33XRT6vuyvkHtSv5JPg8xz5o+9UMAAqERQNBDywjxQAAClQgg6PQLCECg0ATKz/xuBsbKK69sjjnmmGZu9XZPctM6VVq+Rl6fuR3ZmcruDTsVQQACERFA0CNKFqFCoMAEEPQCJ5+mQwACYwi0KukLLbSQ2W677TrgzOJ4Mifd5f+tJuRIOT0cAhCAwP8IIOj0BghAIAYCCHoMWSJGCEAgcwJag64p7jfefmkmz2pF2CuNhlcLMjlKnhT0TBpFpRCAAAQiIoCgR5QsQoVAgQkg6AVOPk2HAAT+R8BtEpelpPvk7URc/01+7fMZ1AUBCEAgTwQQ9Dxlk7ZAIL8EEPT85paWQQACKQiUH7M2aNCgiuu4y6ustIN7+Yh3vb/XG11Pfr/etSmazKUQgAAECkUAQS9UumksBKIlgKBHmzoChwAEfBKodA76BRdcYI9bq1VC3cHdJxvqggAEIJAHAgh6HrJIGyCQfwIIev5zTAshAIEGCFQSdN1WT9JD2MG9geZxCQQgAIHCE0DQC98FAACBKAgg6FGkiSAhAIGsCVQTdPfcaqK+6667mm22mO8UIgAAIABJREFU2Sbr8KgfAhCAAARaJICgtwiQ2yEAgS4hgKB3CWYeAgEIhE6gnqAr/kqSPnToUDNgwIDQm0d8EIAABApPAEEvfBcAAASiIICgR5EmgoQABLIm0IigK4byM9Ofeuop061bt6zDo34IQAACEGiRAILeIkBuhwAEuoQAgt4lmHkIBCAQOoFGBd214+WXXzY33HCDOfLII0NvGvFBAAIQgIAxBkGnG0AAAjEQQNBjyBIxQgACmRNIK+iZB8QDIAABCEDAKwEE3StOKoMABDIigKBnBJZqIQCBuAgg6HHli2ghAAEIpCWAoKclxvUQgEA7CCDo7aDOMyEAgeAIIOjBpYSAIAABCHglgKB7xUllEIBARgQQ9IzAUi0EIBAXAQQ9rnwRLQQgAIG0BBD0tMS4HgIQaAcBBL0d1HkmBCAQHAEEPbiUEBAEIAABrwQQdK84qQwCEMiIAIKeEViqhQAE4iKAoMeVL6KFAAQgkJYAgp6WGNdDAALtIICgt4M6z4QABIIjgKAHlxICggAEIOCVAILuFSeVQQACGRFA0DMCS7UQgEBcBBD0uPJFtBCAAATSEkDQ0xLjeghAoB0EEPR2UOeZEIBAcAQQ9OBSQkAQgAAEvBJA0L3ipDIIQCAjAgh6RmCpFgIQiIsAgh5XvogWAhCAQFoCCHpaYlwPAQi0gwCC3g7qPBMCEAiOAIIeXEoICAIQgIBXAgi6V5xUBgEIZEQAQc8ILNVCAAJxEUDQ48oX0UIAAhBISwBBT0uM6yEAgXYQQNDbQZ1nQgACwRFA0INLCQFBAAIQ8EoAQfeKk8ogAIGMCCDoGYGlWghAIC4CCHpc+SJaCEAAAmkJIOhpiXE9BCDQDgIIejuo80wIQCA4Agh6cCkhIAhAAAJeCSDoXnFSGQQgkBEBBD0jsFQLAQjERQBBjytfRAsBCEAgLQEEPS0xrocABNpBAEFvB3WeCQEIBEcAQQ8uJQQEAQhAwCsBBN0rTiqDAAQyIoCgZwSWaiEAgbgIIOhx5YtoIQABCKQlgKCnJcb1EIBAOwgg6O2gzjMhAIHgCCDowaWEgCAAAQh4JYCge8VJZRCAQEYEEPSMwFItBCAQFwEEPa58ES0EIACBtAQQ9LTEuB4CEGgHAQS9HdR5JgQgEBwBBD24lBAQBCAAAa8EEHSvOKkMAhDIiACCnhFYqoUABOIigKDHlS+ihQAEIJCWAIKelhjXQwAC7SCAoLeDOs+EAASCI4CgB5cSAoIABCDglQCC7hUnlUEAAhkRQNAzAku1EIBAXAQQ9LjyRbQQgAAE0hJA0NMS43oIQKAdBBD0dlDnmRCAQHAEEPTgUkJAEIAABLwSQNC94qQyCEAgIwIIekZgqRYCEIiLAIIeV76IFgIQgEBaAgh6WmJcDwEItIMAgt4O6jwTAhAIjgCCHlxKCAgCEICAVwIIulecVAYBCGREAEHPCCzVQgACcRFA0OPKF9FCAAIQSEsAQU9LjOshAIF2EEDQ20GdZ0IAAsERQNCDSwkBQQACEPBKAEH3ipPKIACBjAgg6BmBpVoIQCAuAgh6XPkiWghAAAJpCSDoaYlxPQQg0A4CCHo7qPNMCEAgOAIIenApISAIQAACXgkg6F5xUhkEIJARAQQ9I7BUCwEIxEUAQY8rX0QLAQhAIC0BBD0tMa6HAATaQQBBbwd1ngkBCARHAEEPLiUEBAEIQMArAQTdK04qgwAEMiKAoGcElmohAIG4CCDoceWLaCEAAQikJYCgpyXG9RCAQDsIIOjtoM4zIQCB4Agg6MGlhIAgAAEIeCWAoHvFSWUQgEBGBBD0jMBSLQQgEBcBBD2ufBEtBCAAgbQEEPS0xLgeAhBoBwEEvR3UeSYEIBAcAQQ9uJQQEAQgAAGvBBB0rzipDAIQyIgAgp4RWKqFAATiIoCgx5UvooUABCCQlgCCnpYY10MAAu0ggKC3gzrPhAAEgiOAoAeXEgKCAAQg4JUAgu4VJ5VBAAIZEUDQMwJLtRCAQFwEEPS48kW0EIAABNISQNDTEuN6CECgHQQQ9HZQ55kQgEBwBBD04FJCQBCAAAS8EkDQveKkMghAICMCCHpGYKkWAhCIiwCCHle+qkX7wAMPmO+//97079/fDBw4MMhGDR8+3Lz33numZ8+eZsUVV2woxldffdW8/vrr9tq11lrLjDPOOA3d1xUXPfLII+bLL780ffv2NYsttlhXPDKTZ/zxxx/m3XffNW+99Zbp0aOHmX766W0/Gnvssas+76OPPjJPP/20/f7KK69sJphggkxio1I/BBB0PxypBQIQyJYAgp4tX2qHAAQiIYCg+03UJZdcYm644QZb6dVXX20mmWSSig8466yzzN13322/d/PNN5vxxx+/pUA22WQTK1hLLrmkOfXUU1uqK6ubTz75ZHPdddfZ6p977rmGHjN06FBz7rnn2msfe+yxljk19NAGLxo0aJAZNmyY+dvf/maU9xjLF198Yf7xj3/YdiTL448/bsYbbzwr7nvvvbd9MXLGGWeYaaed1l6mlxP77LOP/fryyy83c845Z4zNL0zMCHphUk1DIRA1AQQ96vQRPAQg4IsAgu6L5Jh6TjvtNHPVVVfZr++77z4z2WSTVXzAcccdZ8Vc5dFHH7Ujl60UBL0Ves3dG7ug//XXX2arrbYymqWgolHwOeaYw8w999xm9913t59dfPHFZsiQIfbrvfbay2y++eb2awS9uT7TrrsQ9HaR57kQgEAaAgh6GlpcCwEI5JYAgu43tQh6dZ6MoPvta63WphdDGh1X2XLLLY1eOGjUPFk0K2PXXXe1H11wwQV2+juC3ir5rr8fQe965jwRAhBITwBBT8+MOyAAgRwSQND9JhVBR9D99qjsatPSAS0hUKk120Nr1FWS6/8ZQc8uL1nUjKBnQZU6IQAB3wQQdN9EqQ8CEIiSAILuN22tCvrnn39ufv31V7uR2sQTT2xGjBhh1wFPOOGEZsYZZzR9+vQxY401VqegG53i/sMPP5h33nnH6DlaTzzDDDPUXNf9888/m/fff998+OGHVtB0vUZRa20gpuDcxmPaFE7r8GeeeWYrg62sQdeI77fffmvefPNNM+6449o6p5hiipoJ/Prrr238n376qWU622yzmSmnnLJu0v/880/z2WefWf4//fSTmWmmmSyvpKTWmuKu5+o+FW0ip3h/+eUXozXfKlNPPXUnhqNHj7bPVJlqqqlMt27d7NfN9olqjXSxqa9KtKebbjq7vlxFPDWK/ttvv1lmrqjPTTPNNKW/pxF0xf/222/b9utZqqfVPRfqJpALOhBA0OkQEIBADAQQ9BiyRIwQgEDmBBB0v4hbFXQnfVq7Lil89tlnOwQoST/22GPNLLPM0uHzeoIuWTz++OPNPffc06nBWoes53bv3r30vY8//thOab7zzjs7Xa/YtLGYNqSrVDQae8wxxxjJfbLoPsmhSjObxA0YMMC88MILnXioXWKVLM8//7w5//zzO21+pmu0qduhhx5qX3iUF63LvuOOO8wpp5zSKX6t0dZUcP0Rq2qCPnLkSLPZZpvZ+3XP9ddfbyX93nvvNYcccoh95I033liaLu5ieOONN+x9Knr+0ksvbb9utk9U69knnXSSjalSOfDAA836669vd9vfYIMNOlxy++23m379+tnPGhF0vdw44ogjzEsvvdTpUXvuuadRn3UvIfz+K6S2cgIIOn0CAhCIgQCCHkOWiBECEMicAILuF7EvQU9GlRRb97mmJy+44IKly2oJ+jfffGO23npro6OxXJHga32xK5LWiy66qDRCnBSwaoSuueaaTi8KJPX6kyyS1HJZb0bQXZ2VeJx55pkdjjo7/fTTzZVXXlk1uapDwpkcydWo/7777mt3i3fFHR/m4td9t9xyi53RUEnQf/zxRyvwH3zwga1Cswb0YkFFu/brxYBKPUGXRC+77LL2WvectH2iWuNrCfoBBxxgNtxwQztjYu211+5Qxa233loaRa8n6MrvTjvt1IGjWLsXNPqGjqbTyH2lGSF+/1VSG4JOH4AABGIggKDHkCVihAAEMieAoPtF7FPQJXOrrbaaHWXUGecSaB3dpqLR32uvvbY0TbqWoCeFbNNNNzUavdRU7VGjRpkjjzzS6Ax1lcMOO8ysueaa9mtN8ZZozjPPPGbjjTe2I6eaai9Jc6Ov5Ue6vfjii2bbbbe190ts9dyFFlrICpjOzN5tt91KsJsR9B133NFsscUWdsd7id4555xjbrvtNlunxFlfu93wNZV8vfXWs8/USLS+r2dqh/0nn3zS3qNjwsTDFU2/10Z2KrPPPrs56qijSqPsn3zyib1XbVabVMoFvVzwdf+qq65aqt+HoKfpE9V6tqavK9b999/fslBf0lFpKpqK76bxa0q6XmIojyqNCrpeZmgUXlPbxV396u9//7vtB/rs6KOPLuXg8MMPN2ussYbff4TU1okAgk6ngAAEYiCAoMeQJWKEAAQyJ4Cg+0XsS9Crna2tqeVumrpGiRdffHHbgGqCrqnqTro1kus2BXOtloStuOKKdoRbMqXp6a5I5CRsySJxX3nlla0gJ6/X5xqld0d26Sx4rVdPluSLgmYEvdI56JreftNNN9nH7LHHHvalQq34tR5d8qgieZZEq2iWwQorrGC/Vrsko270vFoPKRd0nW1/2WWX2cu32247s/POO3e4tVVBT9sn6vVsHZsmpppNodkQlYqm++sljkqjgq6lBRdeeKG9R+fDK+5kUV/T6Lz6kGaBuHPu68XL95sngKA3z447IQCBriOAoHcda54EAQgETABB95ucrAVdAuwkNCmk1QT9wQcfNJq2rHLCCSeY5ZdfvlODk8ef6fpevXp1uEbTtbWxnKbIaxRUQuymcDtpTk6J1sj1QQcdVPM5vgRdm8a5Ni2zzDKlEXD3cK0pf+2114zWhSt+bVinM+hVksL71FNPlUb43TTvej0jKehar62RYhWNsmsNeflGelkJerU+US/+rARdLye0V4A2nJOsVyqa/aCZG3oJounylGwJIOjZ8qV2CEDADwEE3Q9HaoEABCIngKD7TWDWgq6p7m5tclKEqwm6RnQ1squiKfHa+by8aPT0n//8p/1Y67Y1vVtFUutEqholbXw2+eSTmyeeeMKOYKs08iLAl6DreWuttZaVb+2M7qa86/NnnnnGaG3666+/XjF87Sh+88032+8lp7dfeumlZu65567bMSqtDddNCy+8sDn77LM7ra3OStCr9Yl6DchC0PVCZKmlluq050CtWLT8Ibk7fr24+X56Agh6embcAQEIdD0BBL3rmfNECEAgQAIIut+kZC3omkru1kAnR4yrCfqpp55aWreu6co6vqu8JKcxSywXWWQRozXX2t3dbeql6fELLLCA3b1co+ZuZ24n6FqX7tYqX3zxxXbtenlJjtT7FHQ3YpscjdXorHYkd0Wj7JrKraPMtMmb2pUU9CQn7VyvXdfrlWqCrvu0znqVVVbpUEVWgl6tT9SLPwtBT85oUD50rF2tohkNbt1/vXj5fvMEEPTm2XEnBCDQdQQQ9K5jzZMgAIGACSDofpOjEVu34ZZEUGdnVyqSR7c5W3Jtda2ztVWPNj9z4qcNzrTRmUo1QdemcpJPlUq7rutzrRPWSLmKRFubhmn9tDvirXyzs6SMO0G/6667SlO8k0eEJduelaC7EXS3xl5rnN0RcJJEba4366yzlkLR5mgPPfRQB0HXBnB6uaKi/M0555x1O0ZS0HW99gTYfvvt7fR/PVcvPnSWvStZCXq1PlGvAVkIevJlgfZHEBNK+wkg6O3PARFAAAL1CSDo9RlxBQQgUAACCLrfJOv4LE3xVqk21VsSs/rqq5d2uU5uzFZP0JPHWyXXSjtBX3TRRUtT2hVD8nqtvdaGcOXFCas+d0eMuc3n1llnndLZ3e6+SoKe3MF9hx12sDucl5csBD05vVuirl3Ok+vuK41kVxJ0tVvCqpJ2Dbo2lVPetXZf569rt3kVbc7n1qXr78rzwQcfbL9XfiycPtNU/M0339x+v9Ixa9U2iavWJ+r1bF+CXr4RnPZI0Lp4cdFsBM26oLSXAILeXv48HQIQaIwAgt4YJ66CAARyTgBB95vgYcOGleRUa6I1al2+G7h2OD/xxBPtg8uPKqsl6L///rs9ZsydX54cEXdSpDolbO6ZydHVgQMHdtq0S6O96667ro1Fo8AaPU7u/K5j03bZZZcOkDRCrvXsKho512ZgSVHW525kPXljq4L+6KOPlo5Rc/Umz113LyCSo/luyr67XlPc1SbJcHLN+pdffml3p1cRO4ll+WZ5erGio+l0BrpKtVzppYBbC3/eeefZpQEq2jhN0/FVkrMf9HfVrRcHDz/8sP1+o4Jeq0/U69mtCLrW97t+ofPONXPAFTHXOn4VXeOO3kvGo9MDkmfQ14uV77dGAEFvjR93QwACXUMAQe8azjwFAhAInACC7jdBEkCNgurMcBXJq87i1pFj3333nR3ddRuT6ftDhgwprSlPSp++1pFqOsNbu4FLyjUF2214ljwizF3rjl+TaGr9uNZcqySn3WtEXGI56aST2lHOwYMH25F8Fe24LYlPTlPWKKimv2tzOa3b1mipk/PkPe5rd7yW7tM0fo36jjfeeEZyrTOvXWlmDbpmHWy22WZmmmmmsWvkNWrtzmTXywVJoVgldzXXTADFMeWUU5oRI0aYY4891gwfPrwUx+OPP27jU9HLCbFyeRMbxa8RYNWp48B69+5dWjNdTdCVZ53tran2egmgGPWM8vXZ6hfaR+C9996zR5glZ1JUEvS0faJez25F0JPH1SnXEnEtvVA7k+egKwa9jNAu98qB+pqYq09J5CvtVVAvbr6fngCCnp4Zd0AAAl1PAEHveuY8EQIQCJAAgu4/KTrWSyPd9YpGvd3O5+7aWhuPuWu0RlxyI/l3JTm1Wp8lN0DT6LYEqtpu5rp+4403Nvvtt1+pvuTu7+Xt0AizJExFAqtRbJ2X/tNPP1n5r/UcV1czgl6NpzicccYZpRcS2kl8zz33tDvLVyoSSrf5XTIHOvddUl7v2C+9YBHfWrMdkqP4ySn/ybPSa/WPaoJe7Z5KfaJe/2tF0FV3eV/VrJDlllvOPlYvQZQD108qxaLd7t3eB/Vi5futEUDQW+PH3RCAQNcQQNC7hjNPgQAEAieAoGeTII3wSj7cqHbyKZIpydFiiy3W6eFJ6ZEEuvPGdaHEWKPIkvpK04O16Zw2hNMoZfmRYxrZ1wi5Ni5zcqo69QzJe/n56H/88YfRbuzJc6z1/JVWWsnsvffedhaA2wBMm5/16dPHtkXP0csDjQgn5Uxr43WGuqQ5zdnXikGzDDRNWmexuyngjofiFsvy6egaxdYeAPfff3+JscR86623NhtttJEdVS/fKE4XSu7FaOjQofbotmTR8XMaDdYzNaq+++67myeffLLDeeruetWjEXIdIaZy++23m379+hm9BNBIf5KrXjAor5ot4c64ryboaftErd7diKAnXzQop5q94IpmBEjKHePyPQ60vELH97nNEN19aoNmNmg2hEbVKdkTQNCzZ8wTIACB1gkg6K0zpAYIQCAHBBD0bJOoNcKfffaZ/TPRRBNZcS5fk56MoHxUVqPfkn0JsASzkaI15BrNdlPcy+/56quvjNZca4f5WrHoPq0V1ksCHYelGCTZrig21aMXDuVFgqq4f/31Vyumbhp5I/Enr9EzPvzwQzPHHHPYZyfjSc4gqFav46fj5colXi8ylB/FV6mIoZ7ds2dP23afm53pBYjyJE4S1lrFR59Iyz3N9crJyJEjLSP1k/Kituplh1hL8H1yTBNnka9F0IucfdoOgXgIIOjx5IpIIQCBDAkg6BnCbaLqeru4N1Elt0ROgD4ReQIDCB9BDyAJhAABCNQlgKDXRcQFEIBAEQgg6GFlGRkLKx8hREOfCCELcceAoMedP6KHQFEIIOhFyTTthAAEahJA0MPqIMhYWPkIIRr6RAhZiDsGBD3u/BE9BIpCAEEvSqZpJwQggKBH1Ae0AZw2UtPu6DrSjAIB+gR9oFUCCHqrBLkfAhDoCgIIeldQ5hkQgEDwBBhBDytF2khLf7QhWrMbq4XVIqJplQB9olWC3I+g0wcgAIEYCCDoMWSJGCEAgcwJIOiZI+YBEIAABNpKAEFvK34eDgEINEgAQW8QFJdBAAL5JoCg5zu/tA4CEIAAgk4fgAAEYiCAoMeQJWKEAAQyJ4CgZ46YB0AAAhBoKwEEva34eTgEINAgAQS9QVBcBgEI5JsAgp7v/NI6CEAAAgg6fQACEIiBAIIeQ5aIEQIQyJwAgp45Yh4AAQhAoK0EEPS24ufhEIBAgwQQ9AZBcRkEIJBvAgh6vvNL6yAAAQgg6PQBCEAgBgIIegxZIkYIQCBzAgh65oh5AAQgAIGGCCywwAKl63bccUejPz4Kgu6DInVAAAJZE0DQsyZM/RCAQBQEEPQo0kSQEIBAAQgkBd0114eoI+gF6Dw0EQI5IICg5yCJNAECEGidAILeOkNqgAAEIOCDQCVB9yHqCLqP7FAHBCCQNQEEPWvC1A8BCERBAEGPIk0ECQEIFIBALUFvRdQR9AJ0HpoIgRwQQNBzkESaAAEItE4AQW+dITVAAAIQ8EGgEUFvRtQRdB/ZoQ4IQCBrAgh61oSpHwIQiIIAgh5FmggSAhAoAIE0gp5G1BH0AnQemgiBHBBA0HOQRJoAAQi0TiAp6Kect2/rFVIDBCAAAQg0RWDYsGFN3aebam0mh6A3jZUbIQCBLiSAoHchbB4FAQiESyAp6JvssHS4gRIZBCAAAQjUJFBN0hF0Og4EIBADAQQ9hiwRIwQgkDmBpKA/9OzVmT+PB0AAAhCAQGUCF1xwQVNo6h3FhqA3hZWbIACBLiaAoHcxcB4HAQiESYA16GHmhaggAIHiEUi7Br2emDuCCHrx+hIthkCMBBD0GLNGzBCAgHcCCLp3pFQIAQhAoCkCjQp6o2KOoDeVBm6CAATaRABBbxN4HgsBCIRFAEEPKx9EAwEIFJdAPUFPK+YIenH7Ei2HQIwEEPQYs0bMEICAdwIIunekVAgBCECgKQLVBL1ZMUfQm0oDN0EAAm0igKC3CTyPhQAEwiKAoIeVD6KBAASKS6Bc0FsVcwS9uH2JlkMgRgIIeoxZI2YIQMA7AQTdO1IqhAAEINAUASfovsQcQW8qDdwEAQi0iQCC3ibwPBYCEAiLAIIeVj6IBgIQKC4BHbMmOfdd2MXdN1HqgwAEsiCAoGdBlTohAIHoCCDo0aWMgCEAAQikIoCgp8LFxRCAQJsIIOhtAs9jIQCBsAgg6GHlg2ggAAEI+CaAoPsmSn0QgEAWBBD0LKhSJwQgEB0BBD26lBEwBCAAgVQEEPRUuLgYAhBoEwEEvU3geSwEIBAWAQQ9rHwQDQQgAAHfBBB030SpDwIQyIIAgp4FVeqEAASiI4CgR5cyAoYABCCQigCCngoXF0MAAm0igKC3CTyPhQAEwiKAoIeVD6KBAAQg4JsAgu6bKPVBAAJZEEDQs6BKnRCAQHQEEPToUkbAEIAABFIRQNBT4eJiCECgTQQQ9DaB57EQgEBYBBD0sPJBNBCAAAR8E0DQfROlPghAIAsCCHoWVKkTAhCIjgCCHl3KCBgCEIBAKgIIeipcXAwBCLSJAILeJvA8FgIQCIsAgh5WPogGAhCAgG8CCLpvotQHAQhkQQBBz4IqdUIAAtERQNCjSxkBQwACEEhFAEFPhYuLIQCBNhFA0NsEnsdCAAJhEUDQw8oH0UAAAhDwTQBB902U+iAAgSwIIOhZUKVOCEAgOgIIenQpI2AIQAACqQgg6KlwcTEEINAmAgh6m8DzWAhAICwCCHpY+SAaCEAAAr4JIOi+iVIfBCCQBQEEPQuq1AkBCERHAEGPLmUEDAEIQCAVAQQ9FS4uhgAE2kQAQW8TeB4LAQiERQBBDysfRAMBCEDANwEE3TdR6oMABLIggKBnQZU6IQCB6Agg6NGljIAhAAEIpCKAoKfCxcUQgECbCCDobQLPYyEAgbAIIOhh5YNoIAABCPgmgKD7Jkp9EIBAFgQQ9CyoUicEIBAdAQQ9upQRMAQgAIFUBBD0VLi4GAIQaBMBBL1N4HksBCAQFgEEPax8EA0EIAAB3wQQdN9EqQ8CEMiCAIKeBVXqhAAEoiOAoEeXMgKGAAQgkIoAgp4KFxdDAAJtIoCgtwk8j4UABMIigKCHlQ+igQAEIOCbAILumyj1QQACWRBA0LOgSp0QgEB0BBD06FJGwBCAAARSEUDQU+HiYghAoE0EEPQ2geexEIBAWAQQ9LDyQTQQgAAEfBNA0H0TpT4IQCALAgh6FlSpEwIQiI4Agh5dyggYAhCAQCoCCHoqXFwMAQi0iQCC3ibwPBYCEAiLAIIeVj6IBgIQgIBvAgi6b6LUBwEIZEEAQc+CKnVCAALREci7oP/111/m119/Nb/99psZf/zxzbjjjhtdjvIc8EcffWSefvpp28SVV17ZTDDBBA0395dffjF33XWXvX7BBRc00047bd17v/jiC/Poo4/a65ZddlkzySST1L2nqy4IOba0DL755hvzxhtvGLVJeZlxxhlNr169qlajf6P/+te/7PcHDhxo+vfvn/aRXF+DAIJO94AABGIggKDHkCVihAAEMieQV0E/8sgjzR133NGJnwRwttlmMyuttJJZddVVUwlh5sko4AMeeeQRs88++9iWX3755WbOOedsmMJXX31l86hywAEHmA033LDuvc8//7zZcccd7XVDhgwxCy20UN17uuqCkGNLw+C2224zRx99dIdb9thjD7Plllua0aNHm1133dXK+zHHHGOWXHJJe913331nlltuOfu1+sOmm26a5pFcW4cAgk4XgQAEYiCAoMeQJWKEAAQyJ5BXQd93333Nww/zfd77AAAgAElEQVQ/XJOfRvXOOussM+WUU2bOmQdUJoCg/49LHgT9iSeeMJJxVwYMGGB++OGH0r+z4cOHmx122MF+e/nllzcnnHACgt4FPxwQ9C6AzCMgAIGWCSDoLSOkAghAIA8EiiDou+++u+nevbv5/vvvzSuvvGIkEa4ss8wy5uSTT85DKqNsA4KeL0HfZJNNzFtvvWUmm2wyc+6555qZZpqpQ7/UVPbtttvOvP766+a4444zK664IoLeBf9yEfQugMwjIACBlgkg6C0jpAIIQCAPBIog6M8991yHVEkONt9889Jn9913nxUKStcTQNDzI+ijRo0ySyyxhG2Qpqi7pQuVepWmuuulmStMcc/23x6Cni1faocABPwQQND9cKQWCEAgcgJFFHSlTGtktVZW5ZJLLjF/+9vfOmRSI33vvfee+eCDD0zv3r3tRlf671hjjdXhOm1Upo2wtAHWxBNPbP744w/z9ttvmxEjRphpppnGzDDDDKZHjx6le3Tta6+9ZsYee2y7cVa/fv1q9iBND37nnXfM559/bmNQfdrszpU///zTvPvuu/aven6fPn0q1vf++++b33//3Yw33nidNlNTHSNHjrTPUd16juIaZ5xxmu7d9eJ2FacRdEmcZkBIBMVWL1VWWWUVW1Wza9Bnn312O5r7448/2tFetV25qVZ+/vlnI5Yffvih5aN8TD/99DXvcXVp4zT1C5dL5V/5cKXWFHf1q48//theqv6kvqiiutRXJ5poooob3qm/qY9OOOGEpZdQmkkilipTTz21+fLLL82bb75p+67aIrZpcu9iUx9y09sPPPBAs/DCC9v+5PqkNgRUX3NFS0ucpKcRdMWvf2OKW/ErZ9U2oNMmkRrR17P1ta6fZZZZGspX050/wBsR9ACTQkgQgEAnAgg6nQICEICAMaaogn7qqaeaq6++2vaBCy64wMw///z2awnENddcY0477bRO/UPraQ8++OAO03adVOmX/mOPPdbstttuVpqSRSOJGlk87LDDzEsvvdThe+utt54daUyKmi746aefzPHHH2/uueeeTnFstdVWZtCgQVZuvv32W7uWV0UvGfSyobxI7NZcc037sZ530EEHlS7RdP8jjjjCfP311x1uk/z+4x//KG3i1eg/lkbjdvU1IuiSt0MPPbTD0gTdP8UUU5RYNyPokjWJW7JoE8GjjjrKLL300h0+F0P1kzvvvLMTinqsXnzxRctYL3vKyxprrGE3TZNw1xL0ZH9V/rVsQ0UbHaq/aQd8bbpWXtxeDHoZcP3119tvDx061E4/V1lrrbVKL6rcvWJw+OGHlzZtq5d7ibKeX6moLuVYRRvC6QWHK+Ks+FUaEXS99BGHSps/qh16OaCXVK4oZ+oXegGTLMrX9ttv39CmgvXaHsv3EfRYMkWcECg2AQS92Pmn9RCAwH8JFFHQNeInyXG/uN97771m8sknt3K+1157dRBB/TJfLq8SHMm6SlKqkoKTFJF6nW2nnXaywuCKRlq33nrrDvKoFwAaCXRFMn7RRRfZkc7kjvU33nijHQVNFl133nnn2Y+uvfZaM/PMM9uvL730UnP22WeXLnVHnCVjd7tv12uDvp82bt1TT9A1Ui2BTYp0pZw0I+iuTZXq007vbrf38jirsdCLHeUpWfTC5JxzzunwWfLFgr7hdq+vJujJXdEluaecckppBLhRQZ9uuunMzTffbONICroLrDwmfb7LLruYbbfdtm7qawm6bnZLTLTePPlvSf12tdVWs/XXE3Tdp2UpyZdf5XnT39X/3Wi6+m5yv4nk9XrBoZ8BRSkIelEyTTshEDcBBD3u/BE9BCDgiUCRBF0CrinGkiZ3fnZyJ+mbbrrJjlqraGRz7733tr/s6z6NZGsEXEWyIxnTqHe5oJ900klmqaWWsiPgl112mf3jio4Bk4xr5Fs7zB9yyCGl7z377LOl6fOqw412ai3vnnvuaUVcU7slNQ888IC9T/FoZFzTvp1sSKgkVq4o9tVXX92Kjc6XPv/88+23NKXZHWWlo800wqtRVhWN8mv03ElxJemv1P3Sxq066gm6ROrJJ5/slBPxVcwPPfSQ/V4zgq4NAnWfpmBrGrgEViO0rlx11VX2SD4VcdQxYfPMM4/ZeOON7RIALS249dZbS7mSPCfv11KGLbbYwt6vlx/asXyRRRaxcq0p9bfffrut1+2HUEnQ//Of/5Re3kj+JdfJs+JbFfSNNtrI7LzzzqZnz57mt99+szMENBPEFZ1NXu+UA00d1zT7V199tfRSQ21dfPHFbTVuSYbWnWvZyGabbWY/TyPomvVx//332/s040T/lrp162bzppkNesmhon+3Gv3XMW7uOXqZptMaxE3T8PW1/h26/l6pL+ftMwQ9bxmlPRDIJwEEPZ95pVUQgEBKAkUQdCdI5aPamuKskeWppprK7vC+7LLLWnoSC01xL19vLmmWhKpceOGFZr755usg6E6YXQok1DqnW8+VXEn4kuubk/J59913W1FMTkeXWEjIkkVCopFI1akRQW1wpyJ5lCDpM9Xl1hA/88wzJWH/5z//aV8eqGgn7RdeeMFenxx1dM9KCk4jI6nNxl1L0B977DE7o0FFIqop0cmi9dWtrkEvPwddPLWMQWWxxRYzZ555ZumREthxxx23QwwSbE3v1ghvMh+6aJtttiktabjiiivMHHPMUfNfZ7mgay24Xga4XEtC+/bt26GOVgVdjJN7GqhyvXRw0+XVr5LHptVqQPJFkV5UuDPOk/dIkNdZZx37UaOCnuzD1WZ07L///qWXNXqho9kmil1l/fXXN1oTX+SCoBc5+7QdAvEQQNDjyRWRQgACGRIoiqCXI9QImn6Bd5tUaQRbI4kq+mVfclZePvvsMzvypiKJW3fddWuuG9Z1Gh3VVPpFF13Ujtwly3XXXVc64s1Nj37wwQftqK6KRiHd+vLkfToWTveq6HqN8mtGgBvhl1S6+DUSrtF/TWHW2l2JuyTfjW6usMIKHUbck8+RxEs89UJAR2LVKs3GXUvQk1P3NbJbLqdfffWVfQGi0swI+pAhQ0y5oGs0WDML3HKC5MwG136tJdeGepphoJc4mnnh1pc74ZVUO0Ft9Ci/pKDrRZBeArk4NBNjrrnm6pSCLARdmwnqZZXaUP6SolYfyErQNUKuPyp6SaEN8cqLZlK4lyl6kaaXbu7lmK7Vix7NFih/wZLhj9agqkbQg0oHwUAAAlUIIOh0DQhAAAIF2SROoivZ0HTdYcOG2bxr0zFtLOVKcnS8kY7hRpVrbeylemoJuqaqu5E9J+gSMSfyyfXiyZh0rUbDVa688kqjncg1xViyrXY6oU6u69V0fTflNzm9vZG2LrjggqVNxapd32zctQTdzQrQTAe3437y+VkIuurXMgdJt4qb2aCvNfqr9eRuiUElFm4/g+QMBC1RcFPda/GutJ+Buz6570GyjiwEXfW788yrsa/UjqwEPTk63kh/1Z4L8847r/n3v/9t9ttvv9ItbnO4tddeu8MRb43UGfs1CHrsGSR+CBSDAIJejDzTSghAoA6BIoygu02qPvnkE7tGVUXrUW+55Ra7OZxKcpdsCW/yaLRKCLXmW6PQvgU9GYdGvDUSWF70uUaXVbTJm9Y1q0ge3S7uGtGWLJ544on2e26kXV9r/bt291aRgGl0vVbR6H+9zcKajbuWoC+wwAI2LB3XVb7Rmj7PStCTI7Zu/b36jnLuNjnT8gPFpxkYGjV3u/M7QU8y1ppuN9Jfi3MtQde+B3phkzw7XHVlJeiaTaLZAyru30+9H6ZZCbrWm7ujBLWspFbRkgO9YHF9Wjvoa1M9Lf9wRSw12q4lBEUpCHpRMk07IRA3AQQ97vwRPQQg4IlAkQRdyDTifPrpp1t6yanbOnLNbfDldtVuBLFvQU/GUWlXcMWU3BlcI/9us6vkOnBtqiW51BTp8jW4khW3Pjc5st5Ie6td02zctQTd7fqdPCIs+fysBD05gu6mrCeFNXk8mOJJzr5wgt4M43JBl9jrxAG3dEExaNlBsmQl6Jpdoin81dhX6gdZCbo2hXNHtWk9eq1z6qv1T+3mrnX1bhf45IaJrfT7WO5F0GPJFHFCoNgEEPRi55/WQwAC/yVQNEHX+lpNN3Zre9167aeeesqeYa6iaeeS2kaKb0FPCqvWfUtSy0tyym/5Jl/u3OvkPVqvPtNMM5U+Sq6PTu5i30h7q13TbNzJ+/TiQcfHuaLj1Z5++mn7V60xLl97nJWgu6n1GoXV2v7kmn1tcJbcfb+aoCc3HdR6bre5YC3Gyb7kXpxoTbyWU7jRbE2979+/f6kaJ9Laid/tZJ58husP1Y5Zq7RJnNt3QPU0Gruu9SXo5RvBaa+Aiy++2Dar2rKPRvqu+r2OznPHK2pX+EknnbSRW6O/BkGPPoU0AAKFIICgFyLNNBICEKhHoGiCLh6ajqwdtlUkYZIe7bjuZFjT3zWNfOKJJ+6ET7KW3PXat6AndyavNMqnzci0OZ1KJSlL7nita6qtH3cSqms0pXv++eev29ZafanZuJPxlp8HnxQznQvvXqC4OLIQ9ORmgW7mQXJmQvkxdopFU6gljioSeje92q3j1ufV1pD/8MMPpRcP1fqSjgZcb731bP3qEzp5wJ0wkHyJoR3otc7alWQ/TyPoyePyBg8ebDbYYIN6P0bs91sR9ORLo/J+r9Fvt5O8+rP6RfkJC3rxps/c6QWKR+ezawlL8trk8oXkZooNNTDiixD0iJNH6BAoEAEEvUDJpqkQgEB1AkUUdNHQ2uwbbrjBgnFHSenvbs221mZLTuaee277C77WwGrzKa1xTa6H9i3oikfi4EZDNWI7aNAgO9KnadOKyU3T1ZnmkplkUXy6x51hXu24q+QmZnohoY3MtOu4Rql1r84E1whjpSPYqvWmZuJ+//33S7MVJJcaLdbRaTpj/ptvvrEb+bnj8fS1dlhXbj788EMram7qczO7uOsFh6RfZ5tL5iSCyZFuN11dTN1u74pR+Z955pntenSN+js5F5dkTpKCrO8pRu1boDok3VrCoGfqZZDaW6svaQRZ7VXROd9uL4Ukc+0Wr40AdW75448/bl+8uDXz1QRdmxhqjbf6lzbBU7/Trv8qetGgI9fK171Xy38rgq461f9crtXn1Y979+5tH6dZLW5zPu2JoH4ywwwz2PPkxVnLVnS9XuS4oraJ6w477GB3wFdfEzu3437yZUre/x+BoOc9w7QPAvkggKDnI4+0AgIQaJFAUQVdU5A1QuoERmeU66xyiYA2VKtVkqOhWQi6YpOAuKm4lWLR+djJHaqT17g10cmj1SrVkVw3Xq29GqF1sw3qdbVm45aMud319Qy9JFluueXs45LHx9V6fjOCXqu+8uUFyV3qy+/TCw4nlpqiLzF2x3klxbra87TGfM0116wp6KNHj7Znoksu9TyJs0RfLxZ0Dnu9Uk3Qq92nZ+jljtuor179+n6rgq4XYJod4IpeHLgjB/XvdPvtty/JdbV43JR9HYOnY9WqFU1115+iFAS9KJmmnRCImwCCHnf+iB4CEPBEIK+Cnhxxq7YLtaYE6zxzFe3KLfHWml8draXd0d1Itb4vYdEonKYaa12u26gqOUpa6Vxtber1wgsvVDwHvdIxay6tEjKNxmp01b1E0PckWpL3Sueju3vd+mdtrqUR51rl5ZdftqPGyV2udb12stfO42qv2t5oaSbub7/91kq5RuxVyuVYO3Fr4za3b4DLh0ZI3fnYjQr68OHD7YjqUkstZddyl6/b1hRq1aXR2WTRZm2SbeXEFXERI60X14wDt/lg8mg2XVtpJ3F9LsFWfjQzQCPY9fqSi133Ki/aCFBFsyGOPvroDi90tPO9lgzoxZP6WTVB1yyC8txrlF8zNSqdIFCrHzQi6MnlAjqJYLXVVitVqWnqYqyNHPXCI9lGXaSjBCXx2lPBvRBxHDWTRLMHNONFRX3q0ksvtXlJXqvvaTd+yX69kxoa7fMxXIegx5AlYoQABBB0+gAEIACBHJ+D7iO5El0dr6Vptu44Nh/1pq1Da601UjrttNM2LMuakt+vX78O6+VrPVfyo9HZCSec0PTt27epnbLL608bt9b3a5p1nz59zCSTTNIpXO0ToKntktnytcWNMpUEamaCdieXYEu89Uy9cNHU+eQa5kp1KkZxUnyKM7m+Wf1FeXK76pffr5cX7lmahp7mxUcj7XP9VTJeSz71Iurcc8+1VWrEWUVcdY+kvJld0huJr9FrlBMx1tR65aRS0cszLYHQUWnqs9WKlieoH+pPr1697LT9bt26NRpKbq5D0HOTShoCgVwTQNBznV4aBwEINEogryPojbaf6yBQNALlgp7c9LBoLIrSXgS9KJmmnRCImwCCHnf+iB4CEPBEAEH3BJJqIBAJAQQ9kkR5DBNB9wiTqiAAgcwIIOiZoaViCEAgJgIIekzZIlYItE4AQW+dYWw1IOixZYx4IVBMAgh6MfNOq/+/vfMAs6so//BEajAUgQCilAAJVVoQBAWkCdKLCCiCgBC69KLSAkgV6RC6hCodlCaigDRJQEF6L9J7C0Xg//wm/7mcvXvv3XPvmXPvzJl3nidPsrvnzHzzfmc3+55pEIBAHQEEnUcCAmkRGDt2rDnuuONsp92u52kRSK+3CHp6OafHEIiRAIIeY9aIGQIQ8E4AQfeOlAohEDQBbZymDetUWH8edKq8BYege0NJRRCAQIkEEPQS4VI1BCAQDwEEPZ5cESkEIACBTggg6J1Q4x4IQKDbBBD0bhOnPQhAIEgCCHqQaSEoCEAAAt4IIOjeUFIRBCBQIgEEvUS4VA0BCMRDAEGPJ1dECgEIQKATAgh6J9S4BwIQ6DYBBL3bxGkPAhAIkgCCHmRaCAoCEICANwIIujeUVAQBCJRIAEEvES5VQwAC8RBA0OPJFZFCAAIQ6IQAgt4JNe6BAAS6TQBB7zZx2oMABIIkgKAHmRaCggAEIOCNAILuDSUVQQACJRJA0EuES9UQgEA8BBD0eHJFpBCAQLUJLLHEEmabbbaxf3wWBN0nTeqCAATKIoCgl0WWeiEAgagIIOhRpYtgIQCBChOQoLviU9QR9Ao/NHQNAhUigKBXKJl0BQIQ6JwAgt45O+6EAAQg4JNAVtB9ijqC7jNL1AUBCJRFAEEviyz1QgACURFA0KNKF8FCAAIVJtBI0H2IOoJe4YeGrkGgQgQQ9Aolk65AAAKdE0DQO2fHnRCAAAR8Emgl6EVEHUH3mSXqggAEyiKAoJdFlnohAIGoCCDoUaWLYCEAgQoTyCPonYg6gl7hh4auQaBCBBD0CiWTrkAAAp0TQNA7Z8edEIAABHwSaEfQ2xF1BN1nlqgLAhAoiwCCXhZZ6oUABKIikBX0Tbb+flSxEywEIAABCEwk0GrXdwSdpwQCEIiBAIIeQ5aIEQIQKJ0Agl46YhqAAAQgUDqBkSNHWknX3/UFQS8dPw1AAAIeCCDoHiBSBQQgED+BrKC/+/mj8XeIHkAAAhCIlMCoUaPajryVmLvKEPS2sXIDBCDQAwIIeg+g0yQEIBAeAdagh5cTIoIABNIk0M4a9DxijqCn+RzRawjESgBBjzVzxA0BCHglgKB7xUllEIAABDomkEfQ2xFzBL3jVHAjBCDQAwIIeg+g0yQEIBAeAQQ9vJwQEQQgkCaBVoLeiZgj6Gk+R/QaArESQNBjzRxxQwACXgkg6F5xUhkEIACBjgk0EvQiYo6gd5wKboQABHpAAEHvAXSahAAEwiOAoIeXEyKCAATSJJAVdB9ijqCn+RzRawjESgBBjzVzxA0BCHglgKB7xUllEIAABDomIEH3KeYIesep4EYIQKAHBBD0HkCnSQhAIDwCCHp4OSEiCEAgTQLjx49veI55URocs1aUIPdDAALdIICgd4MybUAAAsETQNCDTxEBQgACEChEAEEvhI+bIQCBLhFA0LsEmmYgAIGwCSDoYeeH6CAAAQgUJYCgFyXI/RCAQDcIIOjdoEwbEIBA8AQQ9OBTRIAQgAAEChFA0Avh42YIQKBLBBD0LoGmGQhAIGwCCHrY+SE6CEAAAkUJIOhFCXI/BCDQDQIIejco0wYEIBA8AQQ9+BQRIAQgAIFCBBD0Qvi4GQIQ6BIBBL1LoGkGAhAImwCCHnZ+iA4CEIBAUQIIelGC3A8BCHSDAILeDcq0AQEIBE8AQQ8+RQQIAQhAoBABBL0QPm6GAAS6RABB7xJomoEABMImgKCHnR+igwAEIFCUAIJelCD3QwAC3SCAoHeDMm1AAALBE0DQg08RAUIAAhAoRABBL4SPmyEAgS4RQNC7BJpmIACBsAkg6GHnh+ggAAEIFCWAoBclyP0QgEA3CCDo3aBMGxCAQPAEEPTgU0SAEIAABAoRQNAL4eNmCECgSwQQ9C6BphkIQCBsAgh62PkhOghAAAJFCSDoRQlyPwQg0A0CCHo3KNMGBCAQPAEEPfgUESAEIACBQgQQ9EL4uBkCEOgSAQS9S6BpBgIQCJsAgh52fogOAhCAQFECCHpRgtwPAQh0gwCC3g3KtAEBCARPAEEPPkUECAEIQKAQAQS9ED5uhgAEukQAQe8SaJqBAATCJoCgh50fooMABCBQlACCXpQg90MAAt0ggKB3gzJtQAACwRNA0INPEQFCAAIQKEQAQS+Ej5shAIEuEUDQuwSaZiAAgbAJIOhh54foIAABCBQlgKAXJcj9EIBANwgg6N2gTBsQgEDwBBD04FNEgBCAAAQKEUDQC+HjZghAoEsEEPQugaYZCEAgbAIIetj5IToIQAACRQkg6EUJcj8EINANAgh6NyjTBgQgEDwBBD34FBEgBCAAgUIEEPRC+LgZAhDoEgEEvUugaQYCEAibAIIedn6IDgIQgEBRAgh6UYLcDwEIdIMAgt4NyrQBAQgETwBBDz5FBAgBCECgEAEEvRA+boYABLpEAEHvEmiagQAEwiaAoIedH6KDAAQgUJQAgl6UIPdDAALdIICgd4MybUAAAsETQNCDTxEBQgACEChEAEEvhI+bIQCBLhFA0LsEmmYgAIGwCSDoYeeH6CAAAQgUJYCgFyXI/RCAQDcIIOjdoEwbQRD43//+Zz755BPzxRdfmKmmmsoMGjQoiLiqFsTHH39s/vznP9tujRw50swxxxxRdPH2Gx8zDzw0zphBg8xmW69jn5E85fPPPzdXXnmlvfRb3/qWGT58eJ7bunJNyLG1C+Cjjz4yjz32mHn22WfN0KFDzbBhw8zMM8/cspqbbrrJvPvuu/YZ1LNIgQAE0iaAoKedf3oPgVgIIOixZIo4OyLwxBNPmC233NJ8+OGH/e6faaaZzHLLLWfWWmsts+CCC3ZUPzf1J/DOO++YlVZayX5ht912Mz/5yU+iwHTROTeYo0/8tY313HPPNQsssECuuD/77DOz1FJL2Wt/8YtfmG233TbXfd24KOTY2un/Aw88YPbee2/z6quv1m5bZpllzPHHH28/1t/K2dZbb21GjRpVu2aTTTYxjz/+uP0+P+aYY9ppkmshAIEKEkDQK5hUugSBChJA0CuYVLr0JYFHHnnEbLrppgMiiUkkB+xMjy9A0BF0n4/gm2++aX7wgx/Uqpx99tnNkCFDzM9//nOz4oor2lkxknVX7r77bjPJJJPYDxF0n5mgLgjETwBBjz+H9AACKRBA0FPIcsJ9zAr60ksvbX+R1xRsjcRp+qt++Xfl/PPPN/POO2/CtPx0HUFH0P08SRNrcaPj+veRRx5pVlhhhX7LU4444ghzySWX2NkaetnmCoLuMxPUBYH4CSDo8eeQHkAgBQIIegpZTriPWUHffffd7YiaK5r+e8ghh5hrrrnGfmrjjTc2e+yxR8K0/HQdQUfQ/TxJE2vZYostjKa4zzXXXOaPf/xj06r14m2KKabo83UE3WcmqAsC8RNA0OPPIT2AQAoEEPQUspxwH1sJurC8+OKLZu2117aENMJ+wgkn9KOl0XatZdcmVZpe+81vftNMOeWUDa+TJHzjG98wX/nKV8xbb71lHnzwQXvd3HPPbWaZZZbayN+nn35q18a+8MIL9np9vVGdrhFt9qVrn3zySSshkhVtkJXd6E7r7NUfla9//evmq1/9ar8YNR34ueees5+fbrrpzIwzztjnGm2opb6+/vrrNq7ZZpvNTDPNNG09Qe0I+muvvWY5iK36pPbc9ORmjYrFK6+8YjcL++CDDyy7ZveJyTPPPGPZqV5tLDbnnHPa/NQXX2vQNfVafXrppZfs5mRqc/LJJ2/KUM/C888/b+PURoazzjqr3WiuXjYbVaD+iYPuVy7nmWeePvkaaA26YlSb4qF8q+h513M89dRT22ekvihnypeer+mnn95+WR/r8yqq5/333689R2KgP62e70Z9c7H99Kc/tXtIaK8I7Sehonyr6DmdMGFC7XbFq7hdySvo6u/TTz9tvzfEUfXr72YbSf73v/+13NVPfV8rX4MHD27r+4SLIQCB7hNA0LvPnBYhAIH2CSDo7TPjjogIDCTokuhVVlnF9ujb3/62OeWUU2q90y/gBx54oB29qy+//OUv7Wj8pJNOWvuSNqcaP368Oeqoo8xDDz1kzj777D636Zf43/3ud+Zvf/ub+f3vf9/na9qwTqP5iy++eL+27rjjDrPPPvv02+hOInTYYYfVNjPTdTvvvLO9f6uttjLbbbddv7quvfZas//++9vP//a3v62t7X3vvffsJlpuNkH2xnXWWcfWO+200+bKfB5Blwj96le/MspPfRk9erRZffXV+31eu+8rvqOPProfC+24vtlmm9k/kmG9qDjttNPMn/70p371SCp/85vf2I3DssWHoKtuyWr9poR6NiSX2ZcPEss//OEP5oILLmi4ieFOO+1k909o9MJCLyiU+3/84x/9+qfdyvV8apO7VoJ+8803m7322svev8gii/qC0EkAACAASURBVJgxY8bY51nsJemrrbaafSbri2ai3HLLLX1GtO+9916zzTbb2EuXX355+/X6oq+LQfZ7ptUDtf7669deJtVfd9FFF9mXEcrj9ddfX/uyntX99tuv9vFAgq6XPRdeeGG/70fHRM+oXgC5opcp+v75y1/+0i90vUA44IADcn2PcBEEINAbAgh6b7jTKgQg0B4BBL09XlwdGYGBBP3vf/97bVr7RhttZPbcc0/bw3HjxvXZjVsCqBHA7Jp1rWc/7rjjaqNsTtCziHRfox3kdU391/SxhDI7Yi15y+4+LSmX2GXj0Nclm5IxSYLkSqJ43XXX9ZM7F6O+rqPQJptsMluXRDC7Q7a+nm1DH1966aW5RtMHEvR//etfdrdzV1S3Nv1yI/v6/Oabb24kqK6obxLDrJC6Y9AcX9VzxRVX2JHdW2+9tc9a5EaPrcQseySaD0HP9inLT5/XC6ATTzyxlhON/kqCWxXtXL7hhhv2ueSf//yn2X777ft8Ti94svlzmx42E3QdV+Z219e95513Xm00PK+gazbJ5ZdfbuPICroLrD4mx+Dkk0/OdcRhK0F3uTvooIP6vFSql+RWgi4532WXXYxebLXK25lnnmlfYKhop3i3c7w+zn6fNJuBE9mPTMKFQKUJIOiVTi+dg0BlCCDolUklHWlEoJmgS3Jvu+02O0LoBM/90q+Pf/SjH9VEVyNm3/3ud61USIIOPvhgc+edd9rmNGImKVDJCrqEWaPemiYrGdIItBM2iaVETWdmP/XUU0bC4kYc9YJALwpUNMXX1S0R0D0jRoywX7vrrrvs6KdilQjpHG6NHEu0jj32WHuNrv/Od75Tw6Jp0Outt579WKPrGmVX2XfffWsjghK7H//4x3aUUyPBGoWWlKjkHSFsJegSRkmT+q2SHcXXNHRxcqKuFwKajq5y8cUX25kJKvPNN5/RKLumxDtO2uBPzJdcckn7OcmXRtMXXnhhu7eApo2rTXFy65jrj97yIeiKSbMu3Oi1dhTXxy73ypn4uqKZFHo+dtxxRztSqyUGN9xwg33xo6JnRZsZuinyyve6665bq2/XXXe1z6qmw2v5gmRTz/Wvf/1rO229kaDXv5ARD8dSbRYVdL2I0Mi2XiYpD5J3fc9oWriKNnrT7usDFU0716yJ733ve/ZS5VGcVMTD9U+j2trl3U2Dz45itxL0yy67zM5CcM+2WOrlmGLWqLybaaIXEfrZoDbVN5cXfU591OyTc845xz6r7vt1oL7xdQhAoDcEEPTecKdVCECgPQIIenu8uDoyAvXHrNWPurruaETSrW/VVN/TTz/dfknT1CXS2ZKVpOy0eCfo+qVd0pNdQzx27NiadEk0tRO1K/fff3+tbY2WatRU5dBDD7UjwiqSeCef7j5JqZsqr5HENdZYw7z99ttm5ZVXtpfUT1HO9ksSOMMMM5jsaKzkWFJbX/TSQNPyVfRiQqPurUorQdeovpuCrCnPblq0q09LA1wM7oVAdhmCXlRIsl0eW8UhcauPVfIlLpJU1XXjjTfWqvAh6I3OQdeLB0m1iuJWm249ttZ/awp7/Vrn7NRtiaTWcKtoCYZGdFXqNz1sxKJe0PWM6+XMv//9b3u5RoOzR5Tpc0UFvdGzqvXdbiaAXrDoRVLessQSS9hLNctDI96NigRdOc07gq4XIe4lgV4A6PuoPgf6HtbLBBX9PNAouvse1Pf4VVddlbcLXAcBCARCAEEPJBGEAQEItCSAoPOAVJrAQOega/RZo8ZOagVDI8sSGH1NUtuonHTSSXZkU8Kl6dQqTtAl9PXrz7Prw8866yw7suuKJErCLvGXNDgpcFN8s1OJs7G88cYbZtVVV+0nLxqtdPKgdcYaFVQbP/zhD63ErLnmmnZUV0Uj5PqjopHy7AZbri3JuZvWWz/a2ohNK0HX+nGtH1aRrA8dOrRfFa7fmn6uUUrNFnAjp/Uj0HkeXo3Ia3M9jeBKwiS8bpReU+adLJcl6IpRsxqclGrZgpsJ4eJXXvSsSua18djDDz9ceymSFV69vNBLDL1c0HKIVpvPqe6soOu51rR692xoxFgbsNWXMgRdbej7zH2v6MVQo436GuWzDEG/5557ans06AVU/UsKxaF1/ttuO3FHfq1F13OpFwRumYU46dSHdjdRzPPMcg0EIFAOAQS9HK7UCgEI+CWAoPvlSW2BEcgKukbXNOItGXLTwDUSpunTTtI0pVabXDVbN96oe5rGrFHQTgVddTopdYKeFSu9PDj88MMbknXyopi1AZ1KdhTaiUX2BYFEXFOwVbKj43lSd8YZZ5hFF1205aWtBF3ryjUKn32xUV+Z24RMn5dI6aWAm96uqcQLLbRQnlDtzubuRUqzG9xMAn29TEHXqLlyoaJcuhdCmh6tjeLUr2bFTQnXs+mmWEsos2uhm92bfY7qr9lhhx3sEWb1pSxBz55nrs0K9QIsTylD0LOj43licDNs9GJHsySy+wvoJYd27v/a176WpyqugQAEekgAQe8hfJqGAARyE0DQc6PiwhgJNFuDLuGTmKtkdzzPThGXRM4777wtu61jnZw8+hR0iZubBl+/M3U2IDe1t37U3o20SsQl5FoPrxH/+uu0HtqtB19sscVa9lXTw7VmdyCxaiXomqasnKgOSVqjorW/7mtaT61p3Rp1VtGosY61Gqho/b42mnMipenJEj2NOGsE1O3M3y1Bz47Yavq6przrJZBGaPVCRUVMdKKARsc1gq58qThBzz6beqHjhL8Vi1aCrvu0yZtmaGRLWYKumSOaDaCi5RkDfW+5mMoQdG2s6J4pTbkf6Ig0PUtuLbxG1vWCL7uTu35W6MVLo5H4gZ5Vvg4BCHSPAILePda0BAEIdE4AQe+cHXdGQKCZoEuAN9hgg5rAuWObJKFunal+IXcj7Xm66lPQs3Fkp71n48jKl0RdG665kl3rLSlyu35nN2XTtZ1OO27Fo5WgZ9vTTvmNikZ2NSvBjbJn19pnR/9bxaB11pJilfpj27Kjp90S9OwIupuyrrXk7lg/bQyoo9HclPVHH320Nv3cCXonz2a9oGtDOW22pr9VNCJfv6t6WYJ+xBFHmEsuucS2Kx7uDPWBvrfKEPTs6Qh5n6n6OPViS33S0Yqu6IXSQLI/UH/5OgQgUB4BBL08ttQMAQj4I4Cg+2NJTQESaHXMmkYoNbKsopFlCZPWxba7ztd126egq063A7VGOLVuun4Tq6zE1W9Oph29NY06O1U/e7Sai1lyppFNFfeSomgas4Jev/GcNuOScKs0muacjduN9mvE220OlmcNunafd6Od2rVeO5pnSx5Bb7Q5YDMurc4ad/doqr3bl+Dqq6+2u8q7ZQ1aZqGR7Ox5540EXXW5GQidrEHXMgjN9tAznn05UP8CQzM2tF7fzb6o77dbgtDsmLVGm8Rper6OdXv88cdtdc1ezjRi7EPQ649Ay+5roJ8B7oVFu8++XpqIqXvx4I48bLcerocABLpDAEHvDmdagQAEihFA0Ivx4+7ACQx0DroE0p2D7H5R1/Fkbk1wdnf3bFclgW7delmCnp2Gq83qRo4c2Yd29gzoRrtxn3rqqUZrxl1p1Jfs2vRGo6m6VzuN6+VAViBbpV0vBXSEmYpizm60pw3n3FnzeqGx9dZb96nqmmuuMeqXitZHazQ9e154o7Pida1ESUfn6Qz0F1980ay99tq2Du1aXn9meHajuuxLgisuuNUcesxu9j5NPc+e1d6qv/UbsWn0Plu0Y7g25hMXSa2Oj5Mku5HqRiKszf30MkIlO+shu45bG+dp7XN90ewQt9lfs5cHehGikXStqRZTbRzn1lC7GQyqt36kW0sD3Lr1dgT9r3/9a+10glZ7KjTiXETQ3cs21asN6tzu/1r6oFknKvqcnrtpp522X/P13+fKpU5nyJ7QkF2+4J7ZwH8sEh4EkiWAoCebejoOgagIIOhRpYtg2yUwkKBrpFAjhq5I2IYMGVI7B12f18ifjoiaeeaZ7Tnot99+u918TCKf3Y3d9wh6vZhKLLVOXKKnHcHdiKw+546Fy/LJnqPeSLbctW59uj7WSKOEdtiwYXY3cQmZpvlrJLqRDDbLhwTdjd6Li+7XmfASadXj1l2rbe0uL/mXQLl11fUirmnIblM0rdXWUXQaYdeUcNWlqeKqX6OZ2angGmlWruaZZx67nEHM3C7yij374uOW6x4yu+838Zg53ScOii0rY436m5Vg3afR/mWXXdaeI6/Y9KLFnQGefZGSne6va3RmvV6GaG2zduJ3JfsiQ4Ko0V63tl7Ppf5oFF7PpoTardnXTvGtRvd1Prk75i67s3/2JYD2QdAmaHr29dxrx3/XdjNB1zOklwc6F1zrtTVTxa09V5802qznK28pIujZ4+p0vJ7Wkut0ABeHpqiriJ+eKW1AqJdRmr6ul1t6lvT8uHLCCSfY0wf0Eua73/2uPQNdX9cLFZX6IxTz9pHrIACB7hBA0LvDmVYgAIFiBBD0Yvy4O3ACAwm6ws/Kn1vvfd9999k1wa12c19qqaX6/PLuW9AVm6ZDawpysyIhlJDNPffcDS9xu7TXnw+dvVjCpdFid/RYs7ayR5INlHbJjUbwXdFmdG5EWBugiVUrtvVr5XWmuQTKHdPVrH236Zl2RpdMNSqSf9e2JF/SqfPSH7/vfXPw0buYhx79V+02CdxKK63UsrsDbcTmbtaLHkm5K/fff78d4R+oKF69VNC0eBVNzxbLVvw0Oq/nZqDp99kj+dzU9OyLoVaxNRP0Vvc0O9qt1T1FBD37EkJtZGOWfOsFkZPrZjFoOYA2Gcweh9joWl2j575+KcpA+eXrEIBA9wgg6N1jTUsQgEDnBBD0ztlxZwQEtOZVa7lVtHbW/TsbuuRPo4RuN3MnKq+99po9usztpu3u0S/5WuPsRhbd590RYo3OQde5z26qdf056Lq//pi1bHwahdUO0W7U2X1NI4I6h1k7yTcrrt2xY8ea+eefv+l1H3/8sZUL7Wxfv25d09TV17zHm6kRjQSrnxrpV33akG/fffettS8JlPxqynu2SHIkTW6UM/s1rWPWVGQJkxuRdl/XTtwSYE2f1qi6ZErtZ6fXS3R1brwkUSLvNgB057FL0N97/x1z1vnHmrvGTYyr/kVBI4BOgjUKq2njemGSZTjXXHMZPRsaVa8v6v8BBxzQ53otNdC6eT1/bglA9mg21aGRac2oqOenr+lliEbVNUqdnU1Qv0+BrtV+AXp5o3gV/5VXXmkFU2vgJe96weWKXkhp6r/2END3RDNB1+frX/YoP3o5sfjii7f9UyOPoLvlAo1eRClWzVDQDAP10Z0Dr0D0TCn/mg2jr7uiZ2XBBRe0z61e2mlJgljqRYm+R+qfPz13Wi7jXqK03UlugAAEukIAQe8KZhqBAAQKEkDQCwLk9uoTkIDpF3JJ5ze/+c3aTtvd7rleJEh8tEu0jhqTNAxUJBWSLHfu+UDX6+sSlbfeesv2VWu6ixSxU8ySZslRfVF8WjOuNdGzzTabHcnOUz744APzwgsv2OUIQ4cObZoTTTNX+3qJoeuyo5uaLq4XBRJoFQm6K7PNP6k9R133tHoB4q7XiyDXhj4ngVb9ktU8U+TVlmIT8+xaf3FRPyV+9XseqB3HT+vvFavWUfscwVUftFRC/Wi1O3l2pFovuPRSx33PtJPXPLnv9Bo9Z3puGr38UZ2ur1oqMcMMM7RsRte+/PLL9rnT92Kj3HQaJ/dBAALlEUDQy2NLzRCAgD8CCLo/ltQEAQhETCAr6MMXGxJxT7ofer2gu6MKux8JLUIAAhBoTgBB5+mAAARiIICgx5AlYoQABEongKB3jhhB75wdd0IAAt0jgKB3jzUtQQACnRNA0Dtnx50QgECFCCDonScTQe+cHXdCAALdI4Cgd481LUEAAp0TQNA7Z8edEIBAhQgg6J0n8z//+U/tGD63yWLntXEnBCAAgXIIIOjlcKVWCEDALwEE3S9PaoMABCIlgKAXS5w25FPRxml5NjAs1hp3QwACEGifAILePjPugAAEuk8AQe8+c1qEAAQCJICgB5gUQoIABCDgkQCC7hEmVUEAAqURQNBLQ0vFEIBATAQQ9JiyRawQgAAE2ieAoLfPjDsgAIHuE0DQu8+cFiEAgQAJIOgBJoWQIAABCHgkgKB7hElVEIBAaQQQ9NLQUjEEIBATAQQ9pmwRKwQgAIH2CSDo7TPjDghAoPsEEPTuM6dFCEAgQAIIeoBJISQIQAACHgkg6B5hUhUEIFAaAQS9NLRUDAEIxEQAQY8pW8QKAQhAoH0CCHr7zLgDAhDoPgEEvfvMaRECEAiQAIIeYFIICQIQgIBHAgi6R5hUBQEIlEYAQS8NLRVDAAIxEUDQY8oWsUIAAhBonwCC3j4z7oAABLpPAEHvPnNahAAEAiSAoAeYFEKCAAQg4JEAgu4RJlVBAAKlEUDQS0NLxRCAQEwEEPSYskWsEIAABNongKC3z4w7IACB7hNA0LvPnBYhAIEACZQh6OPHj+/T0/qPB8IwcuTI2iXZfw90H1+HAAQgAIH+BBB0ngoIQCAGAgh6DFkiRghAoHQC7Qi6E239nZXudgW8005J1uvlHYHvlCb3QQACqRBA0FPJNP2EQNwEEPS480f0EICAJwJZQX/380drtWYl3IeADyTSRdvYZpttbOz1Eu8JE9VAAAIQiJYAgh5t6ggcAkkRQNCTSjedhQAEmhHICvomW38/Fygn2/V/Z28eSMhzNWRMbaS+fsR+IKF3ou7EPW97XAcBCECgagQQ9KpllP5AoJoEEPRq5pVeQQACbRLICvrRp+5eE+KsfLcS8Tab8355dqT/tNNOa1g/su4dOxVCAAIREUDQI0oWoUIgYQIIesLJp+sQgMCXBOqnuPsa+e4lYyfqjYTdjagzst7LDNE2BCDQTQIIejdp0xYEINApAQS9U3LcBwEIVIpAO5vExdjxZrKOqMeYTWKGAAQ6IYCgd0KNeyAAgW4TQNC7TZz2IACBIAlUXdCz0CXr9TvQS9QZTQ/y0SQoCEDAEwEE3RNIqoEABEolgKCXipfKIQCBWAikJOguJxL1+unviHosTyxxQgAC7RJA0NslxvUQgEAvCCDovaBOmxCAQHAEUhT0ZqKOpAf3eBIQBCDggQCC7gEiVUAAAqUTQNBLR0wDEIBADARSFvRGoq5N8saMGRND6ogRAhCAQC4CCHouTFwEAQj0mACC3uME0DwEIBAGAQR9Yh6y096R9DCeTaKAAAT8EEDQ/XCkFghAoFwCCHq5fKkdAhCIhACC/mWikPRIHlrChAAE2iKAoLeFi4shAIEeEUDQewSeZiEAgbAIIOh985GVdNakh/WsEg0EINAZAQS9M27cBQEIdJcAgt5d3rQGAQgESgBB75+YrKRrPbqmvFMgAAEIxEoAQY81c8QNgbQIIOhp5ZveQgACTQgg6I3BLLHEEvYLrEfnWwcCEIidAIIeewaJHwJpEEDQ08gzvYQABAYggKA3BjR+/HgzatQo+8Vx48bxHEEAAhCIlgCCHm3qCBwCSRFA0JNKN52FAASaEUDQBxZ0prnz/QMBCMRMAEGPOXvEDoF0CCDo6eSankIAAi0IIOjN4bhp7gg630IQgEDMBBD0mLNH7BBIhwCCnk6u6SkEIICgd/QMaIq7prqzm3tH+LgJAhAIhACCHkgiCAMCEGhJAEHnAYEABCBgjGEEfeARdASdbxUIQCBmAgh6zNkjdgikQwBBTyfX9BQCEGAEve1ngE3i2kbGDRCAQKAEEPRAE0NYEIBAHwIIOg8EBCAAAUbQmz4D2bPQ2cWdbxUIQCBmAgh6zNkjdgikQwBBTyfX9BQCEGAEve1nwG0Qx/T2ttFxAwQgEBgBBD2whBAOBCDQkACCzoMBAQhAgBH0hs8Ao+d8a0AAAlUigKBXKZv0BQLVJYCgVze39AwCEGiDAJvE9YWVlXNGz9t4kLgUAhAIlgCCHmxqCAwCEMgQQNB5HCAAAQgwgt7nGUDO+ZaAAASqSABBr2JW6RMEqkcAQa9eTukRBCDQAQFG0CdCy8r5yJEjzZgxYzqgyS0QgAAEwiOAoIeXEyKCAAT6E0DQeSogAAEIFBxB11Fkr7zyill99dWjZak+SM71twpyHm0qCRwCEGhCAEHn0YAABGIggKDHkCVihAAESifQ7gh6vdAeeOCBZs011yw9zjIayI6aq37WnJdBmTohAIFeE0DQe50B2ocABPIQQNDzUOIaCECg8gQGEnQ3spwdZc5CueCCC8yIESOi4qQ+jRo1qk/MyHlUKSRYCECgDQIIehuwuBQCEOgZAQS9Z+hpGAIQCIlAI0F3o+SK0wl6o5gHDRpk7rnnnpC60zQW9SP7x12ImEeRPoKEAAQKEEDQC8DjVghAoGsEEPSuoaYhCEAgZAJO0B969F/m2r+NNe+995557LHHcoU87bTTmr/+9a+5ru3VRfVT8l0cWmsuOdffFAhAAAJVJoCgVzm79A0C1SGAoFcnl/QEAhDokIDk9bhjTjGS807KYostZk4//fRObi3tnmYj5Yh5acipGAIQCJwAgh54gggPAhCwBBB0HgQIQCBpAvUbpHUCY9111zW/+c1vOrnVyz3Z9fGqsNl0fEbLveCmEghAIFICCHqkiSNsCCRGAEFPLOF0FwIQaEzg8NEnmkuvPqcjPMsss4xZaKGF+tybnTJedPq4E+76v1vJuL7m2mUKe0dp5SYIQKBiBBD0iiWU7kCgogQQ9Iomlm5BAALtEdAa9MuuOadjSW+vtYny3GrjuXbrqxfy7Med1MU9EIAABKpGAEGvWkbpDwSqSQBBr2Ze6RUEINAmgfpN4vLKs3Zw33rrrWuynfe+NsOrXe5GxZv93Wm93AcBCECg6gQQ9KpnmP5BoBoEEPRq5JFeQAACBQnUH7OWd216nh3cs9Lean14qy4UnSZfEA+3QwACEIieAIIefQrpAASSIICgJ5FmOgkBCAxEoNE56HkkPcQd3AfqK1+HAAQgkCIBBD3FrNNnCMRHAEGPL2dEDAEIlECgkaC7ZlqJeq93cC8BBVVCAAIQqCQBBL2SaaVTEKgcAQS9cimlQxCAQCcEWgm66msm6XvssYfZeOONO2mSeyAAAQhAoIsEEPQuwqYpCECgYwIIesfouBECEKgSgYEEvZmkX3DBBWbEiBFVQkFfIAABCFSSAIJeybTSKQhUjgCCXrmU0iEIQKATAnkE3dWbHU0fN25cJ81xDwQgAAEIdJkAgt5l4DQHAQh0RABB7wgbN0EAAlUj0I6gq++vvfaaefjhh81yyy1XNRT0BwIQgEAlCSDolUwrnYJA5Qgg6JVLKR2CAAQ6IdCuoHfSBvdAAAIQgEDvCCDovWNPyxCAQH4CCHp+VlwJAQhUmACCXuHk0jUIQAACxhgEnccAAhCIgQCCHkOWiBECECidAIJeOmIagAAEINBTAgh6T/HTOAQgkJMAgp4TFJdBAALVJoCgVzu/9A4CEIAAgs4zAAEIxEAAQY8hS8QIAQiUTgBBLx0xDUAAAhDoKQEEvaf4aRwCEMhJAEHPCYrLIACBahNA0KudX3oHAQhAAEHnGYAABGIggKDHkCVihAAESieAoJeOmAYgAAEI9JQAgt5T/DQOAQjkJICg5wTFZRCAQLUJIOjVzi+9gwAEIICg8wxAAAIxEEDQY8gSMUIAAqUTQNBLR0wDEIAABHpKAEHvKX4ahwAEchJA0HOC4jIIQKDaBBD0aueX3kEAAhBA0HkGIACBGAgg6DFkiRghAIHSCSDopSOmAQhAAAI9JYCg9xQ/jUMAAjkJIOg5QXEZBCBQbQIIerXzS+8gAAEIIOg8AxCAQAwEEPQYskSMEIBA6QQQ9NIR0wAEIACBnhJA0HuKn8YhAIGcBBD0nKC4DAIQqDYBBL3a+aV3EIAABBB0ngEIQCAGAgh6DFkiRghAoHQCCHrpiGkAAhCAQE8JIOg9xU/jEIBATgIIek5QXAYBCFSbAIJe7fzSOwhAAAIIOs8ABCAQAwEEPYYsESMEIFA6AQS9dMQ0AAEIQKCnBBD0nuKncQhAICcBBD0nKC6DAASqTQBBr3Z+6R0EIAABBJ1nAAIQiIEAgh5DlogRAhAonQCCXjpiGoAABCDQUwIIek/x0zgEIJCTAIKeExSXQQAC1SaAoFc7v/QOAhCAAILOMwABCMRAAEGPIUvECAEIlE4AQS8dMQ1AAAIQ6CkBBL2n+GkcAhDISQBBzwmKyyAAgWoTQNCrnV96BwEIQABB5xmAAARiIICgx5AlYoQABEongKCXjpgGIAABCPSUAILeU/w0DgEI5CSAoOcExWUQgEC1CSDo1c4vvYMABCCAoPMMQAACMRBA0GPIEjFCAAKlE0DQS0dMAxCAAAR6SgBB7yl+GocABHISQNBzguIyCECg2gQQ9Grnl95BAAIQQNB5BiAAgRgIIOgxZIkYIQCB0gkg6KUjpgEIQAACPSWAoPcUP41DAAI5CSDoOUFxGQQgUG0CCHq180vvIAABCCDoPAMQgEAMBBD0GLJEjBCAQOkEEPTSEdMABCAAgZ4SQNB7ip/GIQCBnAQQ9JyguAwCEKg2AQS92vmldxCAAAQQdJ4BCEAgBgIIegxZIkYIQKB0Agh66YhpAAIQgEBPCSDoPcVP4xCAQE4CCHpOUFwGAQhUmwCCXu380jsIQAACCDrPAAQgEAMBBD2GLBEjBCBQOgEEvXTENAABCECgpwQQ9J7ip3EIQCAnAQQ9JygugwAEqk0AQa92fukdBCAAAQSdZwACEIiBAIIeQ5aIEQIQKJ0Agl46YhqAAAQg0FMCCHpP8dM4BCCQkwCCnhMUl0EAAtUmgKBXO7/0DgIQgACCzjMAAQjEQABBjyFLxAgBCJROAEEvHTENQAACEOgpAQS9p/hpHAIQyEkAQc8JissgAIFqOIukiQAAIABJREFUE0DQq51fegcBCEAAQecZgAAEYiCAoMeQJWKEAARKJ4Cgl46YBiAAAQj0lACC3lP8NA4BCOQkgKDnBMVlEIBAtQkg6NXOL72DAAQggKDzDEAAAjEQQNBjyBIxQgAChQm89dZb5tFHHzWvvfaamW222cxcc81lpplmmlq9CHphxFQAAQhAIGgCCHrQ6SE4CEDg/wkg6DwKEIDAgAT23HNPM2TIEHPAAQc0vfazzz4za621lv36xhtvbDbbbLMB6/VxwSeffGJ22GEHK9+HHHKIWW655fpVe9VVV5mDDz64z+d33nnnPjH6EPSzzz7bXHLJJbadCy64wEw33XQNu3jCCSeY6667zn7t8ssvN1NOOaUPFNQBAQhAAAItCCDoPB4QgEAMBBD0GLJEjBDoMYFNNtnEPP7442a//fYz66yzTsNoJOhLLbWU/dpWW21ltttuu8JRP/LII+b6668322yzjZlqqqka1nffffeZrbfe2n5t5ZVXNocffnif6+644w4jGXdlkUUWMe+9956RJM8888y1z/sQ9N///vfm/PPPt3XeeOONZvrpp28Y829/+1sr5iq33XabGTx4cGFWVAABCEAAAq0JIOg8IRCAQAwEEPQYskSMEOgxASfoCkMjxMOGDesXkW9Bz456a7R56NChDSl8/PHH9oWAZF7i+4Mf/KDPdS52yfIpp5xi5p577ob1IOg9fshoHgIQgEDJBBD0kgFTPQQg4IUAgu4FI5VAoNoEsoI+fPhwc84555gpppiiT6d9C7peBBxxxBG2jVaC7oLQVPfJJ5+8T0wTJkwwyy67rP3cT37yE7Pbbrs1TRSCXu1nmN5BAAIQQNB5BiAAgRgIIOgxZIkYIdBjAllBVygbbbSR0br0bMkj6J9//rl54YUXzJNPPmkFXxu1aZr5oEGD+tT13//+1/z5z382p512mv38mDFjzEwzzWT//dWvfrU2dVzXqU5XVJckXbG8+OKL5vnnn69Nb99nn33sFHyt99ZovDaL++ijj8wkk0xiZp11VtNI0DU6/+qrr9rqZ5llFjPZZJO1zISPKe5qU+vpX375ZTutf4455rCb2jUruv7pp582zz33nJlxxhnttfq7nqk4iZeK+i8O6v/9999vp/yrfwsuuGCPnzSahwAEIFAeAQS9PLbUDAEI+COAoPtjSU0QqCyBekFXR4855pg+G7INJOhaCy5J/vDDD/tw+sY3vmEOO+wws8ACC9Q+r43e6q9zX1x77bXN/vvvbz+sv2706NFm9dVXN6+//rpZbbXVGuZD0nvrrbfa+LWRm8q1115r3vnvl2vchy82xH7+j3/8oznyyCPtv7UB3Le+9a2WOS4q6HfddZft25tvvtmnHb3IELvFF1+89nkJ94UXXmjUZn3ROvtf/epXfabzv/3223aNvsruu+9uPvjgA3PqqafWbtU9Z555ZmWfYToGAQhAAEHnGYAABGIggKDHkCVihECPCThBX2aZZWwkkm2J7qWXXlob2W4l6BJhCbErknJNP8+KaFb4tRGdG+3VPdkN4n784x+bHXfc0Val9ebZOg466CCzxhprtBR03Tdu3Dg7Sv3Tn/7U1rPTTjuZZRbeoBafE3Stbf/3v/9t+6gR/fpR6fq0FBF0jWJvsMEGffqjfrsXFWeddZZZeOGFbZOS81122cXmwRWtsa8Xewm3xFvlnXfeMSuttJL9d/Za14Y213MC3+PHjeYhAAEIlEIAQS8FK5VCAAKeCSDonoFSHQSqSMAJukas9913XyuSEseRI0eak08+2U4TbyboL730Uu34NYnhiSeeaEaMGGExacR4r732snVJgq+88sraOvI8a9C17lzTu51oO0H/4osvjKZ+P/TQQ3YHeBUJ6Pe+9z37b3es2aabbmo3l9MLg6MOOK8m4BL0bNyjRo2q7RTfKr9FBP3iiy82Rx11lK1eR9Rtv/32lqt2qZdoH3/88fZjlcsuu8zOOlDR0Xa77rqrPdNd4q5d790Mg9lnn92Osms5QVbQdZ/EXbMDvva1r1kGysmkk05axceXPkEAAhCwBBB0HgQIQCAGAgh6DFkiRgj0mEBW0DXSfcstt9hp0ioSyS233LKpoB966KHmiiuusNdK5pdccsk+vdGxZG6athNsXZBH0HWd1pmvt956ts7s/fr4wQcfNJtvvrn9Wv2UfH1OR51p53eVA/c+wcw7z8Qp7BL07Ki/rpPsDlSKCHq2vUa70bu23333XbPiiivaD/XCQW3Wj+xnp+affvrpZrHFFusn6DfccIOZYYYZBuoSX4cABCBQGQIIemVSSUcgUGkCCHql00vnIOCHQL2gq9bsWd6afq0Nxhqdg77++uvbDcwkuO7s72xUb7zxhll11VXtpzSiranbKt0Q9KzsrvC9Ncw2m0/c+E6C7kbXtTb+3HPPzQWyiKBnXyZo2rn4uhH/bOP33HNP7Yx5bdTnlh1kr3nllVfMtttuaz+ltejKQXYEXaPuBxxwQK4+cREEIACBqhBA0KuSSfoBgWoTQNCrnV96BwEvBBoJuqal6/NaK67p6RoJX2WVVWx7Wru93Xbb9RlV1/pmTTNvVJZYYgn76eWXX9787ne/65qgqyGNul9zzTW2zbNOuNYMnnIqM+WMb9VG5d2U/jwgiwi66tc09uzLgPnmm89oer07Kk7XZEfH88TkZjhkBX2HHXYwW2yxRZ7buQYCEIBAZQgg6JVJJR2BQKUJIOiVTi+dg4AfAo0EXTVrjbfWSzu51tT3rKBr47MVVljBfk4bv+23334NA3KbvWmXdO2WrtKNEXS1ozXeW2+9tW1zuy33Ncstvaq5/d+X2rXyKn/5y1/sOu08paigqw29LDjhhBP6bPimFxdaKqC189nd5yXwgwcPbhmapvhrJD4r6DoPXufCUyAAAQikRABBTynb9BUC8RJA0OPNHZFDoGsEmgm6AtD0dq0tzxY3gq5Ny9yac62bdkeWZa/Nbi4nUXdrwrsl6NpQbt1117UzAeYbvrA5YK/jza8P29I89dRTfUb088DOjoBr3X2z88t1ZNpNN91kq/zHP/5R27TOtaHN77RhXpaXpqz/4he/6LM2XqPt2ePpWsWIoOfJINdAAAJVJoCgVzm79A0C1SGAoFcnl/QEAqURaCXoEmztlK7jyFxxgq6P3b1ag67dx+s3NMsedyYBdWuns4LeSnaLbBLn4h07dqw57rjj7Ie7bjfa/P6UieesS5Ddhmx54OrYOTeNv9mxZXppseaaa5pXX33VHnd24403Nq0627fhw4fbHdm18707Zk6i/6Mf/ShPaIyg56LERRCAQJUJIOhVzi59g0B1CCDo1cklPYFAaQRaCboaffHFF83aa6/dUNCzU7LHjBljj2bLluwacI1Au03PdO6428gs+/n6TvoQ9Ndee8388Ic/7FO1NmrT9HYdUZa3jB8/3q4ZV9HRbRLq7Bnu+nz2xYOOrcueD684hg4d2qc5dxa7Pnnrrbeajz76yJ7/rqK6NSV+2mmn7ReirnPHyemLjKDnzSLXQQACVSWAoFc1s/QLAtUigKBXK5/0BgKlEBhI0NXotddeWzt/OzuC/vrrr5vVVlutJpRHH320PfZLm8ydd955tTXn+pyOBHMlu6u5Ro+12dnCCy9sHn74YTP33HPXRNaHoKvNbbba2dz77ztq7eusd20Q107R1HTt/q7p8SraPE+j3cOGDbOCfPPNN/fZyT577Nzbb79ttJHe6quvbteHS/C1Pl7rxVXmmmsuc9FFF5mvfOUrfSRf1+29995moYUWsrMT1PYZZ5xhz0Q/6aSTauEj6O1kkmshAIEqEkDQq5hV+gSB6hFA0KuXU3oEAe8E8gi6GtWRXpqynRV0ff7qq682o0ePbhqXpnqfcsopVrxd0dpwSbmOFasvqksiq+JL0M8748/m2FO/PHrMnR/eLky9QPjZz3424G3aXG/nnXeuXafp/4cddljT+7IyL/nW9HYJf6ty5plnmkUWWcRegqAPmBIugAAEKk4AQa94gukeBCpCAEGvSCLpBgTKJJBX0HWuuNZEr7feerWzul1c2vFd67L1d7ZodH2PPfYw0003Xb8uvPnmm3aa+5133tnnaxJbt3t8dnq9psuvscYatWuzo/CaSq4p5c3KHTc9YXbeZ2P7ZY18/+lPf7Kj1Z2Ul156yY5eX3/99f1u10i4znqvP7/8iSeesBvu1a9J18sLHVknptmiFxjXXXed3W1e69ld0bR3nUmvGQBaP+/6gKB3kknugQAEqkQAQa9SNukLBKpLAEGvbm7pGQR6QuCVV14xk0wyiZlxxhkbtv/pp5+a5557zh4PNssss+SSYIm6JHSGGWawG6upft/lkXFvm023XdlWq2PX3FryIu3873//M+KhP1NPPbWdtl6/Jr2+fvFRX3VEnRiqvwO9KNCLEb0U0PViRIEABCAAgf4EEHSeCghAIAYCCHoMWSJGCECgdAKnn3iJGXPOEbYdbeSmdeMUCEAAAhCoDgEEvTq5pCcQqDIBBL3K2aVvEIBASwIvv/yyncp+++23mwceeMBeu+hCS5kzzvlyczUQQgACEIBANQgg6NXII72AQNUJIOhVzzD9gwAEmhLI7jyvixacb3Gz546/NQt9p/H0fFBCAAIQgEC8BBD0eHNH5BBIiQCCnlK26SsEINCHgDZk087z8803n1l68VXN8t/9oZli8inN8MWGQAoCEIAABCpGAEGvWELpDgQqSgBBr2hi6RYEIDAwAe2ErqLzwx+/7/3aDQj6wOy4AgIQgEBsBBD02DJGvBBIkwCCnmbe6TUEIFBHAEHnkYAABCBQbQIIerXzS+8gUBUCCHpVMkk/IACBQgQQ9EL4uBkCEIBA8AQQ9OBTRIAQgIBmdn7h5niCAwIQgEDCBBD0hJNP1yEAgSQIIOhJpJlOQiB6Agh69CmkAxCAgA8CCLoPitQBAQhAIFwCCHq4uSEyCEDgSwIIOk8DBCAAAWPYJI6nAAIQgEDFCSDoFU8w3YNARQgg6BVJJN2AAASKEWAEvRg/7oYABCAQOgEEPfQMER8EICACCDrPAQQgAAFG0HkGIAABCFSeAIJe+RTTQQhUggCCXok00gkIQKAoAUbQixLkfghAAAJhE0DQw84P0UEAAhMJIOg8CRCAAAQYQecZgAAEIFB5Agh65VNMByFQCQIIeiXSSCcgAIGiBBhBL0qQ+yEAAQiETQBBDzs/RAcBCDCCzjMAAQhAoEagDEEfP358P8KNPld/0ciRI/vd1+hzpA8CEIAABPITQNDzs+JKCECgdwQYQe8de1qGAAQCItCOoDvJ1t9Z4c4j30W77EQ9K+z6NwJflCz3QwACVSeAoFc9w/QPAtUggKBXI4/0AgIQKEggK+jvfv5orbashPsS8EYy7avubbbZxsaOtBd8ILgdAhCoHAEEvXIppUMQqCQBBL2SaaVTEIBAuwSygr7J1t/PdXv9KLYT4/qbfYxuNxutH0jsnag7cc/VMS6CAAQgUEECCHoFk0qXIFBBAgh6BZNKlyAAgfYJZAX96FN3r01dz04pbyTk7bdUzh1O4OtFPtuak3RkvZwcUCsEIBA2AQQ97PwQHQQgMJEAgs6TAAEIQKDumDVNcfcx6t1LsFlRP+200/qFgqz3Mju0DQEI9IIAgt4L6rQJAQi0SwBBb5cY10MAApUk0M4mcTECcJJeL+sSddarx5hRYoYABNolgKC3S4zrIQCBXhBA0HtBnTYhAIHgCFRd0LPAJen1U+El6kx9D+6xJCAIQMAjAQTdI0yqggAESiOAoJeGloohAIGYCKQk6C4vEvVGI+qIekxPLrFCAAJ5CSDoeUlxHQQg0EsCCHov6dM2BCAQDIEUBb2ZqDOaHsxjSSAQgIBHAgi6R5hUBQEIlEYAQS8NLRVDAAIxEUhZ0BuJutaljxkzJqYUEisEIACBlgQQdB4QCEAgBgIIegxZIkYIQKB0Agj6RMTZae9IeumPHQ1AAAJdJICgdxE2TUEAAh0TQNA7RseNEIBAlQgg6F9mE0mv0pNNXyAAAUcAQedZgAAEYiCAoMeQJWKEAARKJ4Cg90WclXTWpJf++NEABCDQBQIIehcg0wQEIFCYAIJeGCEVQAACVSCAoPfP4qhRo+xxbCpaj64p7xQIQAACsRJA0GPNHHFDIC0CCHpa+aa3EIBAEwIIemMwSyyxhP0C69H51oEABGIngKDHnkHih0AaBBD0NPJMLyEAgQEIIOiNAWkEXSPpKuPGjeM5ggAEIBAtAQQ92tQROASSIoCgJ5VuOgsBCDQjgKAPLOhMc+f7BwIQiJkAgh5z9ogdAukQQNDTyTU9hQAEWhBA0JvDcdPcEXS+hSAAgZgJIOgxZ4/YIZAOAQQ9nVzTUwhAAEHv6Blwm8Wxm3tH+LgJAhAIhACCHkgiCAMCEGhJAEHnAYEABCBgjGEEfeARdASdbxUIQCBmAgh6zNkjdgikQwBBTyfX9BQCEGAEve1ngE3i2kbGDRCAQKAEEPRAE0NYEIBAHwIIOg8EBCAAAUbQmz4Dp512mtEfFXZx51sFAhCImQCCHnP2iB0C6RBA0NPJNT2FAAQYQW/7GXAbxDG9vW103AABCARGAEEPLCGEAwEINCSAoPNgQAACEGAEveEzwOg53xoQgECVCCDoVcomfYFAdQkg6NXNLT2DAATaIMAmcX1hZeWc0fM2HiQuhQAEgiWAoAebGgKDAAQyBBB0HgcIQAACjKD3eQaQc74lIACBKhJA0KuYVfoEgeoRQNCrl1N6BAEIdECAEfSJ0LJyPnLkSDNmzJgOaHILBCAAgfAIIOjh5YSIIACB/gQQdJ4KCEAAAgVH0HUU2csvv2zWWGONqFmOGjXKqC8qyHnUqSR4CECgAQEEnccCAhCIgQCCHkOWiBECECidQLsj6BJZjTY7od1///3N2muvXXqcZTSQHTVX/aw5L4MydUIAAr0mgKD3OgO0DwEI5CGAoOehxDUQgEDlCQwk6E7Es1KehXL++eebeeedNypO9S8ZkPOo0kewEIBAmwQQ9DaBcTkEINATAgh6T7DTKAQgEBqBRoI+kJS7PgwaNMjcc889oXWpYTzN+sSU9ijSR5AQgEABAgh6AXjcCgEIdI0Agt411DQEAQiETMAJ+kOP/stc+7exNlQnswPFPc0005ibb755oMt6+vVGo+UKSGKuKe36mwIBCECgygQQ9Cpnl75BoDoEEPTq5JKeQAACHRKQvB53zClGct5JWWSRRcyZZ57Zya2l3TPQ6D9iXhp6KoYABAIlgKAHmhjCggAE+hBA0HkgIACBpAnUb5DWCYx11lnH7Lfffp3c6u0eN0KuCpuN/CPl3nBTEQQgECEBBD3CpBEyBBIkgKAnmHS6DAEI9Cdw+OgTzaVXn9MRmmWWWcYstNBCtXvrp4sXnT6eFW79u/7jVkE7Kdc1RePoCA43QQACEAiEAIIeSCIIAwIQaEkAQecBgQAEIPD/56Bfds05HUt6OxDrRTnvWveB2nD1ak05Qj4QLb4OAQikRgBBTy3j9BcCcRJA0OPMG1FDAAKeCWQ3iTv46F1y164d3BdffPHa9b5ku1kAWbnXv93HjI7nThkXQgACiRJA0BNNPN2GQGQEEPTIEka4EIBAOQTqj1nLuzZ9oB3c64W9lcC3kmwEvJy8UysEIJAOAQQ9nVzTUwjETABBjzl7xA4BCHgj0Ogc9DySHuIO7t6gUBEEIACBChFA0CuUTLoCgQoTQNArnFy6BgEI5CfQSNDd3aNGjWq6M3oIO7jn7yVXQgACEEiXAIKebu7pOQRiIoCgx5QtYoUABEoj0ErQ1Wiz0fTdd9/dbLLJJqXFRcUQgAAEIOCHAILuhyO1QAAC5RJA0MvlS+0QgEAkBAYS9GaSft5555n55psvkl4SJgQgAIF0CSDo6eaenkMgJgIIekzZIlYIQKA0AnkE3TWeHU0fN25caTFRMQQgAAEI+COAoPtjSU0QgEB5BBD08thSMwQgEBGBdgRd3XrppZfM3XffbdZdd92IekmoEIAABNIlgKCnm3t6DoGYCCDoMWWLWCEAgdIItCvopQVCxRCAAAQgUAoBBL0UrFQKAQh4JoCgewZKdRCAQJwEEPQ480bUEIAABPISQNDzkuI6CECglwQQ9F7Sp20IQCAYAgh6MKkgEAhAAAKlEEDQS8FKpRCAgGcCCLpnoFQHAQjESQBBjzNvRA0BCEAgLwEEPS8proMABHpJAEHvJX3ahgAEgiGAoAeTCgKBAAQgUAoBBL0UrFQKAQh4JoCgewZKdRCAQJwEEPQ480bUEIAABPISQNDzkuI6CECglwQQ9F7Sp20IQCAYAgh6MKkgEAhAAAKlEEDQS8FKpRCAgGcCCLpnoFQHAQjESQBBjzNvRA0BCEAgLwEEPS8proMABHpJAEHvJX3ahgAEgiGAoAeTCgKBAAQgUAoBBL0UrFQKAQh4JoCgewZKdRCAQJwEEPQ480bUEIAABPISQNDzkuI6CECglwQQ9F7Sp20IQCAYAgh6MKkgEAhAAAKlEEDQS8FKpRCAgGcCCLpnoFQHAQjESQBBjzNvRA0BCEAgLwEEPS8proMABHpJAEHvJX3ahgAEgiGAoAeTCgKBAAQgUAoBBL0UrFQKAQh4JoCgewZKdRCAQJwEEPQ480bUEIAABPISQNDzkuI6CECglwQQ9F7Sp20IQCAYAgh6MKkgEAhAAAKlEEDQS8FKpRCAgGcCCLpnoFQHAQjESQBBjzNvRA0BCEAgLwEEPS8proMABHpJAEHvJX3ahgAEgiGAoAeTCgKBAAQgUAoBBL0UrFQKAQh4JoCgewZKdRCAQJwEEPQ480bUEIAABPISQNDzkuI6CECglwQQ9F7Sp20IQCAYAgh6MKkgEAhAAAKlEEDQS8FKpRCAgGcCCLpnoFQHAQjESQBBjzNvRA0BCEAgLwEEPS8proMABHpJAEHvJX3ahgAEgiGAoAeTCgKBAAQgUAoBBL0UrFQKAQh4JoCgewZKdRCAQJwEEPQ480bUEIAABPISQNDzkuI6CECglwQQ9F7Sp20IQCAYAgh6MKkgEAhAAAKlEEDQS8FKpRCAgGcCCLpnoFQHAQjESQBBjzNvRA0BCEAgLwEEPS8proMABHpJAEHvJX3ahgAEgiGAoAeTCgKBAAQgUAoBBL0UrFQKAQh4JoCgewZKdRCAQJwEEPQ480bUEIAABPISQNDzkuI6CECglwQQ9F7Sp20IQCAYAgh6MKkgEAhAAAKlEEDQS8FKpRCAgGcCCLpnoFQHAQjESQBBjzNvRA0BCEAgLwEEPS8proMABHpJAEHvJX3ahgAEgiGAoAeTCgKBAAQgUAoBBL0UrFQKAQh4JoCgewZKdRCAQJwEEPQ480bUEIAABPISQNDzkuI6CECglwQQ9F7Sp20IQCAYAgh6MKkgEAhAAAKlEEDQS8FKpRCAgGcCCLpnoFQHAQjESQBBjzNvRA0BCEAgLwEEPS8proMABHpJAEHvJX3ahgAEgiGAoAeTCgKBAAQgUAoBBL0UrFQKAQh4JoCgewZKdRCAQJwEEPQ480bUEIAABPISQNDzkuI6CECglwQQ9F7Sp20IQCAYAgh6MKkgEAhAAAKlEEDQS8FKpRCAgGcCCLpnoFSXLoEJ739m9OfD9z5LF0LEPVfuXBk8ZJKIe5Ju6MrboEHGTD/L5OlCoOelE9DPijde+qT0dmigHAL8rC+Ha7dq5ed8t0jTTi8JIOi9pE/blSGQfSs/2ZTIXWUSS0eiIvDpRxNfskjQZ/g6kh5V8iIIVmL3+oufmI8+mPic8bM+gqQRYuUIuJ/z6ph+zvNCtnIppkPGGASdxwACBQloJEWCrl/Wpp5pcMHauB0CEChCYMI7nxj9QdKLUOTeRgTcMphpZh5sJp2CF7E8JRDoFYH/ffyZ/TkvWf/m8MGGWW+9ygTtlkUAQS+LLPUmQ0C/tA2ednL7hwIBCPSegJN0fnHrfS6qEoGbJcXP+qpklH5UgcCbz71vpvzqJGa2EQyOVCGf9OFLAgg6TwMEChBwv7RNP/uQArVwKwQg4JuAfnFjFN031XTre/6xCeazzwyzpNJ9BOh5gAQ0kv7uKxMYRQ8wN4RUjACCXowfdydOAEFP/AGg+8ESeO/VCWbSSY39xY0CgaIEmClVlCD3Q8A/AQTdP1NqDIMAgh5GHogiUgIvPD7B7tzOCHqkCSTsyhJA0Cub2p50DEHvCXYahUBLAgg6D0hVCSDoVc0s/eoKAQS9K5hpBAJtE0DQ20bGDS0IIOg8HhAIjwCCHl5OiMgPAQTdD0dqSZQAgp5o4ul28AQQ9OBTFFWACHpU6SLYRAgg6IkkOsFuIugJJp0u+yOAoPtjSU0Q8EkAQfdJk7oQdJ4BCIRHAEEPLydE5IcAgu6HI7UkSgBBTzTxdDt4Agh68CmKKkAEPap0EWwiBBD0RBKdYDcR9ASTTpf9EUDQ/bGkJgj4JICg+6RJXQg6zwAEwiOAoIeXEyLyQwBB98ORWhIlgKAnmni6HTwBBD34FEUVIIIeVboINhECCHoiiU6wmwh6gkmny/4IIOj+WFITBHwSQNB90qQuBJ1nAALhEUDQw8sJEfkhgKD74UgtiRJA0BNNPN0OngCCHnyKogoQQY8qXQSbCAEEPZFEJ9hNBD3BpNNlfwQQdH8sqQkCPgkg6D5pUheCzjMAgfAIIOjh5YSI/BBA0P1wpJZECSDoiSaebgdPAEEPPkVRBYigR5Uugk2EAIKeSKIT7CaCnmDS6bI/Agi6P5bUBAGfBBB0nzSpC0HnGYBAeAQQ9PByQkR+CCDofjhSS6IEEPREE0+3gyeAoAefoqgCRNCjShfBJkIAQU8k0Ql2E0FPMOl02R8BBN0fS2qCgE8CCLpPmtSFoPMMQCA8Agh6eDkhIj8EEHQ/HKklUQIIeqKJp9uQB4acAAAdbklEQVTBE0DQg09RVAEi6FGli2ATIYCgJ5LoBLuJoCeYdLrsjwCC7o8lNUHAJwEE3SdN6kLQeQYgEB4BBD28nBCRHwIIuh+O1JIoAQQ90cTT7eAJIOjBpyiqABH0qNJFsIkQQNATSXSC3UTQE0w6XfZHAEH3x5KaIOCTAILukyZ1Ieg8AxAIjwCCHl5OiMgPAQTdD0dqSZQAgp5o4ul28AQQ9OBTFFWACHpU6SLYRAgg6IkkOsFuIugJJp0u+yOAoPtjSU0Q8EkAQfdJk7oQdJ4BCIRHAEEPLydE5IcAgu6HI7UkSgBBTzTxdDt4Agh68CmKKkAEPap0EWwiBBD0RBKdYDcR9ASTTpf9EUDQ/bGkJgj4JICg+6RJXQg6zwAEwiOAoIeXEyLyQwBB98ORWhIlgKAnmni6HTwBBD34FEUVIIIeVboINhECCHoiiU6wmwh6gkmny/4IIOj+WFITBHwSQNB90qQuBJ1nAALhEUDQw8sJEfkhgKD74UgtiRJA0BNNPN0OngCCHnyKogoQQY8qXQSbCAEEPZFEJ9hNBD3BpNNlfwQQdH8sqQkCPgkg6D5pUheCzjMAgfAIIOjh5YSI/BBA0P1wpJZECSDoiSaebgdPAEEPPkVRBYigR5Uugk2EAIKeSKIT7CaCnmDS6bI/Agi6P5bUBAGfBBB0nzSpC0HnGYBAeAQQ9PByQkR+CCDofjhSS6IEEPREE0+3gyeAoAefoqgCRNCjShfBJkIAQU8k0Ql2E0FPMOl02R8BBN0fS2qCgE8CCLpPmtSFoPMMQCA8Agh6eDkhIj8EEHQ/HKklUQIIeqKJp9vBE0DQg09RVAEi6FGli2ATIYCgJ5LoBLuJoCeYdLrsjwCC7o8lNUHAJwEE3SdN6kLQeQYgEB4BBD28nBCRHwIIuh+O1JIoAQQ90cTT7eAJIOjBpyiqABH0qNJFsIkQQNATSXSC3UTQE0w6XfZHAEH3x5KaIOCTAILukyZ1Ieg8AxAIjwCCHl5OiMgPAQTdD0dqSZQAgp5o4ul28AQQ9OBTFFWACHpU6SLYRAgg6IkkOsFuIugJJp0u+yOAoPtjSU0Q8EkAQfdJk7pSFvTPP//cPP/8M+bTTz81Q4fObKaddrp+D8Szzz5l/v73v5hBgwaZ9dffxAwZMnWQD81dd91mHn30ITPNNNOa9dbbuKMYxUP91B9Kbwkg6L3lT+vlEUDQy2NLzQkQQNDDSPKKK440r7/+qllyyWXMGWdcXAvqpJOONpdddqG56qq/mamnnqZpsL/4xUbmn/+8wyyyyEgzduyVLTv16qsvm5VX/ra9ZosttjO77vqr2vW/+c2u5uqrL7Uf33vv02bSSScNA1CCUSDoCSa9xC5XSdA/+eRjs/76q5j//Odf5tRTzzOrrbZ2Q3IXXniO/Xl25523mvfff692zVJLfdesssoaZuONNzezzDKr/fz1119tNt10Hfvvm266xyy66BIlZqPzqvfdd2dz+ukn2Apef/2LXBX97W83mi22+FEfBrpxscW+bRZccGEzcuRSZuONf24mm2yyXPU1u+jAA/cyJ554lNlzz/3N3nsfVKiuVG5G0FPJdHr9RNDTyzk99kgAQfcIs0BV8803sxX07373+1bGXdl//93NyScfYzbccFNzyiljm7aw3normdtuu9ksscR3zPXX39kykpdfftEstNA37DU777y32X//w2vXb7/9ZuaPf5zYzssvf4qgF8hp0VsR9KIEuT9LoEqCrlHkNddcznZvnXU2NGee+cc+yf7444/M3nvvaM4778yWD8G1195uX4qqVFnQs31rBkSifvLJY62wd1L00mTWWaes3cr/H/koIuj5OHFVfAQQ9PhyRsQBEUDQw0jGQIKuKE8++Vzz4x//rGHACHoYefQZBYLukyZ1VUnQP/pogll99e+Z+++/15x++kVmvfU2qiX4f//7n1lnne+bu+++3X5OU9U1Uq5R869+dYh55ZWXzLXXXmWeeupxc9ddj9Smeaci6Ouu+2Oz1FLfM2+//ZZ59NEHzT/+8Xf7ctiVyy+/ySy33EodfcPstdcO5qyzTjbbbberOfjgYzqqI7WbEPTUMp5OfxH0dHJNT0sggKCXALWDKvMIuqr95z8fM3PNNbxfCwh6B9ADvwVBDzxBkYVXJUF36DVSPsUUX47a6vMXX3yu2WGHze0lM844k52RNO+8C/TLVv29qQj6H/5wuVljjfVqPDT1/5BDfmXOOONE+7k55pjL3H77f8yUUw7u6AnXy5NO7+2owchvQtAjTyDhNyWAoPNwQKAAAQS9ADyPt+YV9IUXXtxcf/0dZvLJp+jTOoLuMRmBVIWgB5KIioRRFUHXZm7a5MyVb3xjttrPQ8nhoovOWRsRvv32BxvKeaOU5hX0zz77zCiGhx/+j305MN98CxrFUL/h2oQJHxotJ1KZffZhZpJJJunTrKaE//e/z9vPffObczRc/63ZANoQ7rHHHjIzzDDUzD//QuaYYw5tew16tm/1gu6C2nHHn5uLLvqD/VDrx7WOXOWDD9432rdEZc4557b9fOON1+yeJ1/5ylfMiBHzm6mm+qr58MMPav2bfvoZ7UZ8YqX4Vaaffobaev96/o8//ojdwG/w4MFm2LB5+nxZOX3ssYfNk08+Zmae+ev2BbX+rsoGdwh6RX7A0o1+BBB0HgoIFCCAoBeA5/HWvIKuJrfffnczevTRfVpH0D0mI5CqEPRAElGRMKoi6HPOOU2fzc60N4f26FDR/hnaR0NlrbU2MGefPXHDyzwlj6DfdNN1RhtyZjecU90adT7zzIv7bCx3+eUXmm22+Ylt+s47HzbDh8/XJ4wHHrjPrLDC4vZz5557hVl99XX7fP2KKy42u+66db+2NCvATUnPu0lcHkF/7rlnzOKLD7MxaMaBXm6oZO/Vmv0TTjjSXHfdVbVY99rrAPPkk4+byy67oPa5TTfdyhx77BnmjTdeN/POO9R+vtn+KM8++7QZOXIue83Pf76tOfroU+y/JfdjxhxntA9LfdFyhaOPPtW+sIi9IOixZ5D4mxFA0Hk2IFCAAIJeAJ7HW/MIujZzGz16H9vqRRdda1Ze+Ye1CBB0j8kIpCoEPZBEVCSMqgi6+1np0nLSSX8wG200Ucr18/H444+w/9bUdm26mbcMJOinnnqs0SkXrkjKNbqcXb99/vlXm1VXXctecuml55ttt5344mAgQT/nnMvMmmuuX6v7yCMPMkceeWCf0LWWvv7FgE9BV2OrrLKkue++e2y7L730iR3Vz3LJvhxwwd1///PmsMP2M9ox35VNNvm5OeGEs+2HO+20Re1rjTgcffTB5vDDJ47W33rr/WaBBb5lZ0j85CdrGr0QcaVR23/+8z/s3gIxFwQ95uwReysCCDrPBwQKEEDQC8DzeGseQdeuuOuuu6LRDsb6Ze3uux+1U/1UEHSPyQikKgQ9kERUJIyqCLqmhmvatBt9zgr6z362bm1098EHX6z9fMyTwlaC/vzzz5rFFpvTViNRvOyyG82CCy5iP84eYTbrrN8048Y9Yafcdyromjq++uoTpVM/5zULQJu2aTq5zmnfcMNVa93xLeijRv20NhKuDfTmmWfePoKuhrfccntzyCHHmC+++MI89NAD9qg2TcX/9NNPzPzzz2JfImQF/d57/2l+8IOlbMw60vPXvz60Fr9GycX1xRdf6HOCyTnnnGr22GM7e53qGj36d+ZrX5veiru4ulkSc889wtxyy7+iXvOOoOf57uSaGAkg6DFmjZiDIYCgh5GKPIKuX8b0i+Kyy37L/hL0/e+vYi6++Dq7thFBDyOPPqNA0H3SpK6qCLoy+fTTT5hvf3viZplZQV9qqXntWmWVV1/9zEpt3tJK0HfddRszduzptqpGu5zrKEw3FdvF04mgS0BXXfU7tVHsO+54yK7xzpZ99tmptqGbb0Hff/89zMkn/84250ans1wk4zfccFdTru7/saygqy43Mq+XG//5z39rx3fecstNZoMNVrHtjR17pfnhD9cxb731phk+fAb7OZ1Vf8EF1/Rbb64N7cRB5U9/utV85zvL5k1zcNch6MGlhIA8EUDQPYGkmjQJIOhh5D2voE/8BfHLtY0HHnik2XHHPRH0MNLoNQoE3SvO5CtLQdAXXng2Oxqrkednnnm3rZy3EnQn/hqx1cyl+qJN1BZYYOJsJrdHSCeC/swzT5ollpi4SVp2PXa2vX333bmUTeLURnajuPHjnzJzzDGszwi6pq1LvpuVZoJ+ySXnme22m3hEqF4qr7TSavbfbsReMw/uvfdpK+633Xaz/f9M5bDDju+zlMu1q831NJtM5ZhjxpjNNtumrVyHdDGCHlI2iMUnAQTdJ03qSo4Agh5GytsRdEWsX3b0S4/KjTfebQ4+eF/7i02zjXiyvdTOwgst9A37qZ133ttobbsrmjqojZZUNKVevzBRekMAQe8N96q2moKgu5lEyuHTT79jpp56mtzpbCbomr49yyyT2XrWWWdDc+aZf2xY54wzDrKf1yiwRoM7EXStud5449VtPWpH7dWXMgV9zTWXs0uoVBqtQR9ozXczQddO7PqaZn6tt97G5vTTLzRvvvmGGTFiRtuWprBvv/1u/9/vk8zee++YO2+aMq+p87EWBD3WzBH3QAQQ9IEI8XUItCCAoIfxeLQr6O+887ad6q7RIm1WNGTIEPPgg/fnEvQXXnjOLLroHLbj9WsCEfQwngdFgaCHk4sqRJKCoGvdstYvq9xyy7/NggsunDt1zQRdP2vnnvtrth63O3mjSt3PcPeStBNBz07d1o7pSy65TNcEXWv7R4wYaiVa/6eMH/+kbXugzfOyATYTdF2js9aPPfYwe/njj79hrrjiIrPXXjvUPtYac5X99tvNnHLK7+2/dayojnBrVX75y73tVPhYC4Iea+aIeyACCPpAhPg6BFoQQNDDeDzaFXRFrZEOjXhkS54RdG3ss9xyE39xPfTQY82oUb+sVYGgh/E8KAoEPZxcVCGSFAT9xBOPMgceuJdN10477WUOOGDiju55SjMR1brwmWaaeIZ5s6PbsqPsboS4E0HPHhPX6Og1xVDWCPr5559lfvnLrWw/tRO9dqRX8SXo2ePUdJTa2WefYl8qb7HFduaoo06upUhyLklX+ctf/mk3oatyQdCrnN20+4agp51/el+QAIJeEKCn2zsRdDV96KG/Nr///W9rUeQR9DvvvNWstdby9h5NNdQvlK4g6J4S6qEaBN0DRKqoEUhB0LNruNXxhx56ycw00yy5noKsiF5//Z12NpIryy+/iJVJrUHX7uaDBk2czu5K9kzzPfbYz+yzz2g7Qrz11pvYS7Lrrt09999/r1lxxZH2Q3fMWnYH9z333N/svfdB/WIvQ9A1ar788ouaZ599yraXHb33JeiqN7vLvuvYbbc90Oc8c+2K73aql7hL4KtcEPQqZzftviHoaeef3hckgKAXBOjp9k4F/ZNPPjGrrba00S97Kk7QNeqj9ZgffviBnZa5+eajapHqzFmdPatS/4sogu4poR6qQdA9QKSKGoEUBF2d3XPP7e3orIpGX88776p+x61pkzFtiKYNxoYNm7gp2623/tWsv/7K9t8SbIm2Kzr/XOegqzQ6Xz171reT8bvvvt2sscb37D3bbruLOeSQidO2VXS82M9/vkHtSDgn6NkdzHVdoxcMvgVdI9s6c1xH16nUzxLwKejZXdvV1rLLrmiuuOKvfb5Lda68/j9U0WZ/2jxu+ukn7uqeLRMmfGgGD56q3+dj+wSCHlvGiDcvAQQ9Lymug0ADAgh6GI9Fp4Ku6J944lHzne/MZzuSHUHX6IzEXb/kHHTQUWauuYbb43tGj97HXqt1hvfc83ifI3MQ9DCeB0WBoIeTiypEkoqgS74XWWT2Wsp0tNeOO+5RO7dco93HHHOoXWstgdfGZ5NPPrl5/PFHzNJLTzzSTPdo87ENN/ypPWP7lVdeMgsuOGtNGv/wh8vN0ksvZ+vQsWRubbWO+9KxXypvvPG6mXfeobV79tvvMLPGGuuZxx572Iwde4YdYXfFCbo+PuKIA8xRR42uxaFR5G9/e2kbxw03XGN22GHz2n2dHLOmGEaOXMpIcMePv9vcfPMNfVhdd93ttZcW+oJPQdeLYx2P50bqNY1e0+nry1lnnVxbn67/p4444kT7f5tmLjzyyIPmd787+P/PRL8x+m9NBD36FNKBJgQQdB4NCBQggKAXgOfx1iKCrjDOPfc0s9tuo/oI+jXXXGa22OJHTaPMnh/sLkLQPSa1YFUIekGA3N6HQCqCrk5rOvpmm61XE8Fmj8JPf7qlOfzwE2ojseuss4K5/fa/1y4/66xLzNprT/wZesEFZ5udd96y6VMlqddo8PzzL1S7Ri9Djz9+4HXwWUF/7713jeJws6JaPcadCHorFgcddLSZbrqJG+K54lPQVafbCC97tFp9TBL5rbb6sdH/Ya3KQLvKx/AjAEGPIUvE2AkBBL0TatwDgf8ngKCH8SgUFfQvvvjCbLrpOuaNN16z09Zd0cY/v/71LnakxxWNSBx55Em1s2izBHbZ5RfmvPPOtJ/imLXePhsIem/5V631Kgn6c889YxZffJhNUaMXjfr822+/ZQ44YA9zww1/Mpo2nS0aOf/Vrw4xK6zwgz6f16j33nvvYK68cuJRavV7dGgGknYe19/ZssEGPzG//e1xZoYZJh4b5oqWIB133OF2VNwVielGG21mR9NXXnniBmhZQdfHH3/8kd31XCPt2Z/dK664qp3xpOPY2jnrPXt8m4tj3nkXsC8TRoxYwCy77Ap2RkCjkr33ppvuMYsuukTTbw13Dr3OSteZ6Y2K8jLPPNPbKf+a+t+s6P80HSUqDjqtxBX1W/nTOfGaji8eMRcEPebsEXsrAgg6zwcEChBA0AvAC+zWd999x7z66stmnnnm7ROZdhh+/vlnzIQJE8ywYXNXYt1eYOhLCQdBLwVrspVWSdDbTeJrr71ilwINHTqzmXPOuc2kk07asgpN/37qqSfMLLPM2k+6daPE+8knH7NHgM022xwDSqL7GSzp1FKjvEXXP//8s0bniM8++5x2mnsViqapzzHHsNz/F0nq9X/YzDN/Pfemf7FwQtBjyRRxtksAQW+XGNdDIEMAQedxgECYBBD0MPMSa1QpC3qsOSPu6hNA0Kuf41R7iKCnmnn67YUAgu4FI5VAwDsBBN070qQrRNCTTj+dD5QAgh5oYgirMAEEvTBCKkiZAIKecvbpe8gEEPSQsxNfbAh6fDkj4uoTQNCrn+NUe4igp5p5+u2FAILuBSOVQMA7AQTdO9KkK0TQk04/nQ+UAIIeaGIIqzABBL0wQipImQCCnnL26XvIBBD0kLMTX2wIenw5I+LqE0DQq5/jVHuIoKeaefrthQCC7gUjlUDAOwEE3TvSpCtE0JNOP50PlACCHmhiCKswAQS9MEIqSJkAgp5y9ul7yAQQ9JCzE19sCHp8OSPi6hNA0Kuf41R7iKCnmnn67YUAgu4FI5VAwDsBBN070qQrRNCTTj+dD5QAgh5oYgirMAEEvTBCKkiZAIKecvbpe8gEEPSQsxNfbAh6fDkj4uoTQNCrn+NUe4igp5p5+u2FAILuBSOVQMA7AQTdO9KkK0TQk04/nQ+UAIIeaGIIqzABBL0wQipImQCCnnL26XvIBBD0kLMTX2wIenw5I+LqE0DQq5/jVHuIoKeaefrthQCC7gUjlUDAOwEE3TvSpCtE0JNOP50PlACCHmhiCKswAQS9MEIqSJkAgp5y9ul7yAQQ9JCzE19sCHp8OSPi6hNA0Kuf41R7iKCnmnn67YUAgu4FI5VAwDsBBN070qQrRNCTTj+dD5QAgh5oYgirMAEEvTBCKkiZAIKecvbpe8gEEPSQsxNfbAh6fDkj4uoTQNCrn+NUe4igp5p5+u2FAILuBSOVQMA7AQTdO9KkK0TQk04/nQ+UAIIeaGIIqzABBL0wQipImQCCnnL26XvIBBD0kLMTX2wIenw5I+LqE0DQq5/jVHuIoKeaefrthQCC7gUjlUDAOwEE3TvSpCtE0JNOP50PlACCHmhiCKswAQS9MEIqSJkAgp5y9ul7yAQQ9JCzE19sCHp8OSPi6hNA0Kuf41R7iKCnmnn67YUAgu4FI5VAwDsBBN070qQrRNCTTj+dD5QAgh5oYgirMAEEvTBCKkiZAIKecvbpe8gEEPSQsxNfbAh6fDkj4uoTQNCrn+NUe4igp5p5+u2FAILuBSOVQMA7AQTdO9KkK0TQk04/nQ+UAIIeaGIIqzABBL0wQipImQCCnnL26XvIBBD0kLMTX2wIenw5I+LqE0DQq5/jVHuIoKeaefrthQCC7gUjlUDAOwEE3TvSpCtE0JNOP50PlACCHmhiCKswAQS9MEIqSJkAgp5y9ul7yAQQ9JCzE19sCHp8OSPi6hNA0Kuf41R7iKCnmnn67YUAgu4FI5VAwDsBBN070qQrRNCTTj+dD5QAgh5oYgirMAEEvTBCKkiZAIKecvbpe8gEEPSQsxNfbAh6fDkj4uoTQNCrn+NUe4igp5p5+u2FAILuBSOVQMA7AQTdO9KkK0TQk04/nQ+UAIIeaGIIqzABBL0wQipImQCCnnL26XvIBBD0kLMTX2wIenw5I+LqE0DQq5/jVHuIoKeaefrthQCC7gUjlUDAOwEE3TvSpCtE0JNOP50PlACCHmhiCKswAQS9MEIqSJkAgp5y9ul7yAQQ9JCzE19sCHp8OSPi6hNA0Kuf41R7iKCnmnn67YUAgu4FI5VAwDsBBN070qQrRNCTTj+dD5QAgh5oYgirMAEEvTBCKkiZAIKecvbpe8gEEPSQsxNfbAh6fDkj4uoTQNCrn+NUe4igp5p5+u2FAILuBSOVQMA7AQTdO9KkK0TQk04/nQ+UAIIeaGIIqzABBL0wQipImQCCnnL26XvIBBD0kLMTX2wIenw5I+LqE0DQq5/jVHuIoKeaefrthQCC7gUjlUDAOwEE3TvSpCtE0JNOP50PlACCHmhiCKswAQS9MEIqSJnAhPc/M5L0aWYebCadYpKUUdB3CARF4M3n3jfTzzK5meHrkwcVF8HESeD5xyaYzz4zZuqZBsfZAaKGQAUJTHjnE6M/wxcbUsHe0aWUCSDoKWefvhcm4AR98LSTG/2hQAACvSfgfmmTnEvSKRAoSsDNluJlbFGS3A8BfwT0IlYFQffHlJrCIICgh5EHooiYwOsvfmLeeuUTK+hIesSJJPRKEHBy/rWZJzczzoqcVyKpgXRC09xV+FkfSEIII1kCmtqun/WffvSZnSXFi9hkH4XKdhxBr2xq6Vg3Cbzx0ifmzZc/sU1ONiVT3bvJnrYg4AjolzUrUEMmMd8czlRkngy/BNyMKVcrP+v98qU2COQl4H7WI+d5iXFdbAQQ9NgyRrzBEpCgf/GFMfoljgIBCPSGgH5hk6BTIFAWAf2s//xzYz76gJ/1ZTGmXgi0IjDV1JPYn/P8rOc5qSoBBL2qmaVfEIAABCAAAQhAAAIQgAAEIBAVAQQ9qnQRLAQgAAEIQAACEIAABCAAAQhUlQCCXtXM0i8IQAACEIAABCAAAQhAAAIQiIoAgh5VuggWAhCAAAQgAAEIQAACEIAABKpKAEGvambpFwQgAAEIQAACEIAABCAAAQhERQBBjypdBAsBCEAAAhCAAAQgAAEIQAACVSWAoFc1s/QLAhCAAAQgAAEIQAACEIAABKIigKBHlS6ChQAEIAABCEAAAhCAAAQgAIGqEkDQq5pZ+gUBCEAAAhCAAAQgAAEIQAACURFA0KNKF8FCAAIQgAAEIAABCEAAAhCAQFUJIOhVzSz9ggAEIAABCEAAAhCAAAQgAIGoCCDoUaWLYCEAAQhAAAIQgAAEIAABCECgqgQQ9Kpmln5BAAIQgAAEIAABCEAAAhCAQFQEEPSo0kWwEIAABCAAAQhAAAIQgAAEIFBVAgh6VTNLvyAAAQhAAAIQgAAEIAABCEAgKgIIelTpIlgIQAACEIAABCAAAQhAAAIQqCqB/wNvHwoPvMxpJwAAAABJRU5ErkJggg==;" vertex="1" parent="1">
          <mxGeometry x="30" y="50" width="415.05" height="320" as="geometry" />
        </mxCell>
        <mxCell id="WfmTKSGuRJZ3hl7WZfGl-7" value="ios Backup" style="text;strokeColor=none;align=center;fillColor=none;html=1;verticalAlign=middle;whiteSpace=wrap;rounded=0;" vertex="1" parent="1">
          <mxGeometry x="207.53" y="370" width="60" height="30" as="geometry" />
        </mxCell>
      </root>
    </mxGraphModel>
  </diagram>
</mxfile>
